<svg width="151" height="35" viewBox="0 0 151 35" fill="none" xmlns="http://www.w3.org/2000/svg">
<path d="M49.12 26.21C47.72 26.21 46.46 25.97 45.34 25.49C44.22 24.99 43.34 24.29 42.7 23.39C42.06 22.49 41.74 21.44 41.74 20.24H45.4C45.48 21.14 45.83 21.88 46.45 22.46C47.09 23.04 47.98 23.33 49.12 23.33C50.3 23.33 51.22 23.05 51.88 22.49C52.54 21.91 52.87 21.17 52.87 20.27C52.87 19.57 52.66 19 52.24 18.56C51.84 18.12 51.33 17.78 50.71 17.54C50.11 17.3 49.27 17.04 48.19 16.76C46.83 16.4 45.72 16.04 44.86 15.68C44.02 15.3 43.3 14.72 42.7 13.94C42.1 13.16 41.8 12.12 41.8 10.82C41.8 9.62 42.1 8.57 42.7 7.67C43.3 6.77 44.14 6.08 45.22 5.6C46.3 5.12 47.55 4.88 48.97 4.88C50.99 4.88 52.64 5.39 53.92 6.41C55.22 7.41 55.94 8.79 56.08 10.55H52.3C52.24 9.79 51.88 9.14 51.22 8.6C50.56 8.06 49.69 7.79 48.61 7.79C47.63 7.79 46.83 8.04 46.21 8.54C45.59 9.04 45.28 9.76 45.28 10.7C45.28 11.34 45.47 11.87 45.85 12.29C46.25 12.69 46.75 13.01 47.35 13.25C47.95 13.49 48.77 13.75 49.81 14.03C51.19 14.41 52.31 14.79 53.17 15.17C54.05 15.55 54.79 16.14 55.39 16.94C56.01 17.72 56.32 18.77 56.32 20.09C56.32 21.15 56.03 22.15 55.45 23.09C54.89 24.03 54.06 24.79 52.96 25.37C51.88 25.93 50.6 26.21 49.12 26.21ZM74.6055 17.33C74.6055 17.95 74.5655 18.51 74.4855 19.01H61.8555C61.9555 20.33 62.4455 21.39 63.3255 22.19C64.2055 22.99 65.2855 23.39 66.5655 23.39C68.4055 23.39 69.7055 22.62 70.4655 21.08H74.1555C73.6555 22.6 72.7455 23.85 71.4255 24.83C70.1255 25.79 68.5055 26.27 66.5655 26.27C64.9855 26.27 63.5655 25.92 62.3055 25.22C61.0655 24.5 60.0855 23.5 59.3655 22.22C58.6655 20.92 58.3155 19.42 58.3155 17.72C58.3155 16.02 58.6555 14.53 59.3355 13.25C60.0355 11.95 61.0055 10.95 62.2455 10.25C63.5055 9.55 64.9455 9.2 66.5655 9.2C68.1255 9.2 69.5155 9.54 70.7355 10.22C71.9555 10.9 72.9055 11.86 73.5855 13.1C74.2655 14.32 74.6055 15.73 74.6055 17.33ZM71.0355 16.25C71.0155 14.99 70.5655 13.98 69.6855 13.22C68.8055 12.46 67.7155 12.08 66.4155 12.08C65.2355 12.08 64.2255 12.46 63.3855 13.22C62.5455 13.96 62.0455 14.97 61.8855 16.25H71.0355ZM75.9311 17.66C75.9311 16 76.2711 14.53 76.9511 13.25C77.6511 11.97 78.5911 10.98 79.7711 10.28C80.9711 9.56 82.2911 9.2 83.7311 9.2C85.0311 9.2 86.1611 9.46 87.1211 9.98C88.1011 10.48 88.8811 11.11 89.4611 11.87V9.47H92.9111V26H89.4611V23.54C88.8811 24.32 88.0911 24.97 87.0911 25.49C86.0911 26.01 84.9511 26.27 83.6711 26.27C82.2511 26.27 80.9511 25.91 79.7711 25.19C78.5911 24.45 77.6511 23.43 76.9511 22.13C76.2711 20.81 75.9311 19.32 75.9311 17.66ZM89.4611 17.72C89.4611 16.58 89.2211 15.59 88.7411 14.75C88.2811 13.91 87.6711 13.27 86.9111 12.83C86.1511 12.39 85.3311 12.17 84.4511 12.17C83.5711 12.17 82.7511 12.39 81.9911 12.83C81.2311 13.25 80.6111 13.88 80.1311 14.72C79.6711 15.54 79.4411 16.52 79.4411 17.66C79.4411 18.8 79.6711 19.8 80.1311 20.66C80.6111 21.52 81.2311 22.18 81.9911 22.64C82.7711 23.08 83.5911 23.3 84.4511 23.3C85.3311 23.3 86.1511 23.08 86.9111 22.64C87.6711 22.2 88.2811 21.56 88.7411 20.72C89.2211 19.86 89.4611 18.86 89.4611 17.72ZM99.9231 11.87C100.423 11.03 101.083 10.38 101.903 9.92C102.743 9.44 103.733 9.2 104.873 9.2V12.74H104.003C102.663 12.74 101.643 13.08 100.943 13.76C100.263 14.44 99.9231 15.62 99.9231 17.3V26H96.5031V9.47H99.9231V11.87ZM113.777 9.2C115.057 9.2 116.187 9.46 117.167 9.98C118.167 10.48 118.947 11.11 119.507 11.87V9.47H122.957V26.27C122.957 27.79 122.637 29.14 121.997 30.32C121.357 31.52 120.427 32.46 119.207 33.14C118.007 33.82 116.567 34.16 114.887 34.16C112.647 34.16 110.787 33.63 109.307 32.57C107.827 31.53 106.987 30.11 106.787 28.31H110.177C110.437 29.17 110.987 29.86 111.827 30.38C112.687 30.92 113.707 31.19 114.887 31.19C116.267 31.19 117.377 30.77 118.217 29.93C119.077 29.09 119.507 27.87 119.507 26.27V23.51C118.927 24.29 118.137 24.95 117.137 25.49C116.157 26.01 115.037 26.27 113.777 26.27C112.337 26.27 111.017 25.91 109.817 25.19C108.637 24.45 107.697 23.43 106.997 22.13C106.317 20.81 105.977 19.32 105.977 17.66C105.977 16 106.317 14.53 106.997 13.25C107.697 11.97 108.637 10.98 109.817 10.28C111.017 9.56 112.337 9.2 113.777 9.2ZM119.507 17.72C119.507 16.58 119.267 15.59 118.787 14.75C118.327 13.91 117.717 13.27 116.957 12.83C116.197 12.39 115.377 12.17 114.497 12.17C113.617 12.17 112.797 12.39 112.037 12.83C111.277 13.25 110.657 13.88 110.177 14.72C109.717 15.54 109.487 16.52 109.487 17.66C109.487 18.8 109.717 19.8 110.177 20.66C110.657 21.52 111.277 22.18 112.037 22.64C112.817 23.08 113.637 23.3 114.497 23.3C115.377 23.3 116.197 23.08 116.957 22.64C117.717 22.2 118.327 21.56 118.787 20.72C119.267 19.86 119.507 18.86 119.507 17.72ZM128.289 7.28C127.669 7.28 127.149 7.07 126.729 6.65C126.309 6.23 126.099 5.71 126.099 5.09C126.099 4.47 126.309 3.95 126.729 3.53C127.149 3.11 127.669 2.9 128.289 2.9C128.889 2.9 129.399 3.11 129.819 3.53C130.239 3.95 130.449 4.47 130.449 5.09C130.449 5.71 130.239 6.23 129.819 6.65C129.399 7.07 128.889 7.28 128.289 7.28ZM129.969 9.47V26H126.549V9.47H129.969ZM141.899 9.2C143.199 9.2 144.359 9.47 145.379 10.01C146.419 10.55 147.229 11.35 147.809 12.41C148.389 13.47 148.679 14.75 148.679 16.25V26H145.289V16.76C145.289 15.28 144.919 14.15 144.179 13.37C143.439 12.57 142.429 12.17 141.149 12.17C139.869 12.17 138.849 12.57 138.089 13.37C137.349 14.15 136.979 15.28 136.979 16.76V26H133.559V9.47H136.979V11.36C137.539 10.68 138.249 10.15 139.109 9.77C139.989 9.39 140.919 9.2 141.899 9.2Z" fill="#131217"/>
<rect x="125" y="1" width="6" height="7" fill="white"/>
<circle cx="128" cy="5" r="2" fill="#1955FF"/>
<mask id="path-4-outside-1_1516_241" maskUnits="userSpaceOnUse" x="0" y="0" width="33" height="34" fill="black">
<rect fill="white" width="33" height="34"/>
<path fill-rule="evenodd" clip-rule="evenodd" d="M9.41011 21.6919C12.5807 27.5433 15.35 28.3025 17.1384 25.3535C18.4058 23.2631 16.5693 21.0561 14.4659 18.5282C12.1211 15.7101 9.44439 12.4933 10.3662 8.59476C11.5354 3.63168 15.4739 1.15789 19.7542 1.36447C19.1944 1.23535 18.6148 1.14239 18.0351 1.08042C9.51415 0.197291 1.91958 6.68906 1.07739 15.5668C0.839592 18.0664 1.15665 20.4834 1.93444 22.6887C1.60747 20.1787 1.93444 18.397 4.24303 17.6068C6.14043 16.9664 8.02298 19.1303 9.41011 21.6919ZM25.6893 14.312C27.6263 16.4449 31 16.1299 31.218 12.0964C31.8818 14.1777 32.1494 16.4346 31.9264 18.7638C31.2279 26.118 25.8973 31.83 19.249 33.0798C23.5689 30.606 26.4472 24.7081 23.3113 19.2234C22.0497 17.2184 20.7316 15.7182 19.6497 14.4867C17.7747 12.3525 16.6087 11.0253 17.6736 9.27662C18.6248 7.71177 20.4281 7.83056 21.9093 8.81181C23.0396 9.553 23.786 10.9955 24.4514 12.2814C24.8709 13.0922 25.2582 13.8407 25.6893 14.312ZM26.3779 19.9929C26.3779 21.1963 27.2696 22.1672 28.3595 22.1672C29.4593 22.1672 30.3411 21.1963 30.3411 19.9929C30.3411 18.7948 28.3595 16.7651 28.3595 16.7651C28.3595 16.7651 26.3779 18.7948 26.3779 19.9929Z"/>
</mask>
<path fill-rule="evenodd" clip-rule="evenodd" d="M9.41011 21.6919C12.5807 27.5433 15.35 28.3025 17.1384 25.3535C18.4058 23.2631 16.5693 21.0561 14.4659 18.5282C12.1211 15.7101 9.44439 12.4933 10.3662 8.59476C11.5354 3.63168 15.4739 1.15789 19.7542 1.36447C19.1944 1.23535 18.6148 1.14239 18.0351 1.08042C9.51415 0.197291 1.91958 6.68906 1.07739 15.5668C0.839592 18.0664 1.15665 20.4834 1.93444 22.6887C1.60747 20.1787 1.93444 18.397 4.24303 17.6068C6.14043 16.9664 8.02298 19.1303 9.41011 21.6919ZM25.6893 14.312C27.6263 16.4449 31 16.1299 31.218 12.0964C31.8818 14.1777 32.1494 16.4346 31.9264 18.7638C31.2279 26.118 25.8973 31.83 19.249 33.0798C23.5689 30.606 26.4472 24.7081 23.3113 19.2234C22.0497 17.2184 20.7316 15.7182 19.6497 14.4867C17.7747 12.3525 16.6087 11.0253 17.6736 9.27662C18.6248 7.71177 20.4281 7.83056 21.9093 8.81181C23.0396 9.553 23.786 10.9955 24.4514 12.2814C24.8709 13.0922 25.2582 13.8407 25.6893 14.312ZM26.3779 19.9929C26.3779 21.1963 27.2696 22.1672 28.3595 22.1672C29.4593 22.1672 30.3411 21.1963 30.3411 19.9929C30.3411 18.7948 28.3595 16.7651 28.3595 16.7651C28.3595 16.7651 26.3779 18.7948 26.3779 19.9929Z" fill="#1955FF"/>
<path d="M17.1384 25.3535L17.566 25.6128L17.566 25.6128L17.1384 25.3535ZM9.41011 21.6919L8.97044 21.93L8.9705 21.9301L9.41011 21.6919ZM14.4659 18.5282L14.8503 18.2084H14.8503L14.4659 18.5282ZM10.3662 8.59476L10.8528 8.70982L10.8529 8.70941L10.3662 8.59476ZM19.7542 1.36447L19.7301 1.86389L19.8666 0.877257L19.7542 1.36447ZM18.0351 1.08042L18.0883 0.58325L18.0867 0.583083L18.0351 1.08042ZM1.07739 15.5668L1.57514 15.6142L1.57515 15.614L1.07739 15.5668ZM1.93444 22.6887L1.46291 22.855L2.43025 22.6241L1.93444 22.6887ZM4.24303 17.6068L4.08313 17.1331L4.08112 17.1337L4.24303 17.6068ZM31.218 12.0964L31.6944 11.9445L30.7187 12.0694L31.218 12.0964ZM25.6893 14.312L26.0594 13.9758L26.0582 13.9746L25.6893 14.312ZM31.9264 18.7638L31.4287 18.7162L31.4287 18.7165L31.9264 18.7638ZM19.249 33.0798L19.0005 32.6459L19.3414 33.5712L19.249 33.0798ZM23.3113 19.2234L23.7454 18.9753L23.7401 18.9661L23.7345 18.9571L23.3113 19.2234ZM19.6497 14.4867L19.274 14.8167L19.6497 14.4867ZM17.6736 9.27662L18.1006 9.53667L18.1009 9.53632L17.6736 9.27662ZM21.9093 8.81181L21.6332 9.22865L21.6351 9.22993L21.9093 8.81181ZM24.4514 12.2814L24.8955 12.0516V12.0516L24.4514 12.2814ZM28.3595 16.7651L28.7173 16.4158L28.3595 16.0494L28.0017 16.4158L28.3595 16.7651ZM16.7109 25.0943C16.2946 25.7808 15.8535 26.1962 15.4172 26.3923C14.998 26.5808 14.5306 26.5911 13.9867 26.362C13.4274 26.1265 12.7876 25.636 12.0819 24.8202C11.3792 24.0078 10.6313 22.896 9.84972 21.4537L8.9705 21.9301C9.77427 23.4135 10.5614 24.5909 11.3256 25.4744C12.0868 26.3544 12.8455 26.9665 13.5985 27.2837C14.3668 27.6072 15.1252 27.62 15.8273 27.3044C16.5124 26.9963 17.0881 26.4008 17.566 25.6128L16.7109 25.0943ZM14.0816 18.848C15.1457 20.1269 16.0867 21.2623 16.6189 22.3283C17.1391 23.3704 17.2228 24.25 16.7109 25.0943L17.566 25.6128C18.3214 24.3667 18.1206 23.0976 17.5136 21.8816C16.9185 20.6895 15.8896 19.4575 14.8503 18.2084L14.0816 18.848ZM9.87966 8.4797C9.38324 10.5791 9.86345 12.4818 10.7466 14.1957C11.6232 15.8967 12.9162 17.4474 14.0816 18.848L14.8503 18.2084C13.6708 16.7909 12.4531 15.3242 11.6355 13.7376C10.8246 12.1639 10.4274 10.509 10.8528 8.70982L9.87966 8.4797ZM19.7783 0.865048C15.2714 0.647533 11.1072 3.26887 9.87957 8.48011L10.8529 8.70941C11.9636 3.99449 15.6763 1.66824 19.7301 1.86389L19.7783 0.865048ZM17.982 1.57759C18.5444 1.63773 19.1041 1.72765 19.6418 1.85168L19.8666 0.877257C19.2847 0.743058 18.6851 0.647061 18.0883 0.583253L17.982 1.57759ZM1.57515 15.614C2.39296 6.99327 9.75816 0.725258 17.9836 1.57776L18.0867 0.583083C9.27014 -0.330677 1.44619 6.38485 0.579621 15.5196L1.57515 15.614ZM2.40597 22.5224C1.65225 20.3854 1.34424 18.0413 1.57514 15.6142L0.579634 15.5195C0.33494 18.0916 0.661051 20.5815 1.46291 22.855L2.40597 22.5224ZM4.08112 17.1337C2.80877 17.5692 2.02399 18.307 1.63363 19.3236C1.25787 20.3022 1.27258 21.4786 1.43863 22.7533L2.43025 22.6241C2.26933 21.3888 2.28404 20.4194 2.56717 19.6821C2.8357 18.9827 3.3687 18.4345 4.40494 18.0799L4.08112 17.1337ZM9.84979 21.4538C9.14412 20.1507 8.29372 18.9114 7.34959 18.0745C6.40882 17.2405 5.27871 16.7295 4.08314 17.1331L4.40292 18.0805C5.10475 17.8437 5.86462 18.0944 6.68625 18.8228C7.50453 19.5481 8.28897 20.6716 8.97044 21.93L9.84979 21.4538ZM30.7187 12.0694C30.6173 13.9456 29.8068 14.7954 28.9616 15.0357C28.0736 15.2881 26.9326 14.9373 26.0594 13.9759L25.3191 14.6481C26.383 15.8196 27.8973 16.3778 29.235 15.9976C30.6154 15.6052 31.6007 14.2807 31.7173 12.1234L30.7187 12.0694ZM32.4242 18.8114C32.6537 16.4134 32.3783 14.0887 31.6944 11.9445L30.7416 12.2484C31.3854 14.2667 31.645 16.4558 31.4287 18.7162L32.4242 18.8114ZM19.3414 33.5712C26.2148 32.279 31.7052 26.3809 32.4242 18.8111L31.4287 18.7165C30.7506 25.8552 25.5799 31.3809 19.1566 32.5884L19.3414 33.5712ZM22.8773 19.4716C25.8436 24.6598 23.1421 30.2742 19.0005 32.6459L19.4975 33.5137C23.9958 30.9377 27.0508 24.7565 23.7454 18.9753L22.8773 19.4716ZM19.274 14.8167C20.3558 16.0479 21.6498 17.5219 22.8881 19.4897L23.7345 18.9571C22.4495 16.915 21.1075 15.3885 20.0253 14.1567L19.274 14.8167ZM17.2466 9.01656C16.9432 9.5147 16.7836 10.0094 16.7696 10.5145C16.7557 11.0175 16.8873 11.4935 17.1085 11.9537C17.5379 12.8471 18.3547 13.7703 19.274 14.8167L20.0253 14.1567C19.0697 13.069 18.366 12.2615 18.0098 11.5205C17.8383 11.1636 17.7608 10.8465 17.7692 10.5421C17.7776 10.2399 17.8715 9.9129 18.1006 9.53667L17.2466 9.01656ZM22.1855 8.39498C21.3822 7.86284 20.4555 7.53917 19.5641 7.59025C18.6488 7.64269 17.8093 8.09075 17.2463 9.01691L18.1009 9.53632C18.4891 8.89764 19.0268 8.62267 19.6213 8.58861C20.2396 8.55318 20.9552 8.77952 21.6332 9.22865L22.1855 8.39498ZM24.8955 12.0516C24.5651 11.4132 24.1996 10.7056 23.7702 10.0642C23.3409 9.42299 22.8275 8.81602 22.1835 8.39369L21.6351 9.22993C22.1214 9.54879 22.5464 10.0337 22.9392 10.6205C23.3319 11.2071 23.6723 11.8637 24.0073 12.5112L24.8955 12.0516ZM26.0582 13.9746C25.6822 13.5634 25.327 12.8855 24.8955 12.0516L24.0073 12.5112C24.4149 13.2988 24.8343 14.118 25.3203 14.6494L26.0582 13.9746ZM28.3595 21.6672C27.5873 21.6672 26.8779 20.9636 26.8779 19.9929H25.8779C25.8779 21.4289 26.9519 22.6672 28.3595 22.6672V21.6672ZM29.8411 19.9929C29.8411 20.9653 29.14 21.6672 28.3595 21.6672V22.6672C29.7786 22.6672 30.8411 21.4272 30.8411 19.9929H29.8411ZM28.3595 16.7651C28.0017 17.1144 28.0017 17.1144 28.0017 17.1143C28.0017 17.1143 28.0016 17.1143 28.0016 17.1143C28.0016 17.1143 28.0016 17.1143 28.0017 17.1144C28.0018 17.1145 28.002 17.1147 28.0024 17.1151C28.003 17.1158 28.0042 17.1169 28.0058 17.1186C28.009 17.1219 28.014 17.1271 28.0206 17.134C28.0339 17.1479 28.054 17.169 28.0798 17.1965C28.1314 17.2516 28.2058 17.3323 28.2954 17.4332C28.4752 17.6354 28.7137 17.9159 28.9511 18.2307C29.1897 18.5473 29.4195 18.8885 29.5875 19.213C29.7615 19.549 29.8411 19.8142 29.8411 19.9929H30.8411C30.8411 19.5726 30.6731 19.1348 30.4755 18.7532C30.272 18.3602 30.0063 17.9694 29.7496 17.6287C29.4915 17.2864 29.2346 16.9846 29.0428 16.7688C28.9467 16.6607 28.8663 16.5735 28.8095 16.5128C28.7811 16.4825 28.7586 16.4588 28.7429 16.4424C28.7351 16.4342 28.7289 16.4279 28.7246 16.4234C28.7224 16.4212 28.7207 16.4194 28.7195 16.4181C28.7189 16.4175 28.7184 16.417 28.718 16.4166C28.7178 16.4164 28.7177 16.4163 28.7176 16.4161C28.7175 16.4161 28.7174 16.416 28.7174 16.416C28.7173 16.4159 28.7173 16.4158 28.3595 16.7651ZM26.8779 19.9929C26.8779 19.8142 26.9575 19.549 27.1315 19.213C27.2995 18.8885 27.5293 18.5473 27.768 18.2307C28.0053 17.9159 28.2438 17.6354 28.4236 17.4332C28.5132 17.3323 28.5877 17.2516 28.6392 17.1965C28.665 17.169 28.6851 17.1479 28.6984 17.134C28.7051 17.1271 28.71 17.1219 28.7132 17.1186C28.7148 17.1169 28.716 17.1158 28.7166 17.1151C28.717 17.1147 28.7172 17.1145 28.7173 17.1144C28.7174 17.1143 28.7174 17.1143 28.7174 17.1143C28.7174 17.1143 28.7173 17.1143 28.7173 17.1143C28.7173 17.1144 28.7173 17.1144 28.3595 16.7651C28.0017 16.4158 28.0017 16.4159 28.0016 16.416C28.0016 16.416 28.0015 16.4161 28.0015 16.4161C28.0013 16.4163 28.0012 16.4164 28.001 16.4166C28.0006 16.417 28.0001 16.4175 27.9995 16.4181C27.9983 16.4194 27.9966 16.4212 27.9944 16.4234C27.9901 16.4279 27.984 16.4342 27.9761 16.4424C27.9604 16.4588 27.9379 16.4825 27.9095 16.5128C27.8527 16.5735 27.7723 16.6607 27.6762 16.7688C27.4844 16.9846 27.2275 17.2864 26.9694 17.6287C26.7127 17.9694 26.447 18.3602 26.2435 18.7532C26.0459 19.1348 25.8779 19.5726 25.8779 19.9929H26.8779Z" fill="#1955FF" mask="url(#path-4-outside-1_1516_241)"/>
</svg>
