<svg width="150" height="34" viewBox="0 0 150 34" fill="none" xmlns="http://www.w3.org/2000/svg">
<path d="M48.12 25.21C46.72 25.21 45.46 24.97 44.34 24.49C43.22 23.99 42.34 23.29 41.7 22.39C41.06 21.49 40.74 20.44 40.74 19.24H44.4C44.48 20.14 44.83 20.88 45.45 21.46C46.09 22.04 46.98 22.33 48.12 22.33C49.3 22.33 50.22 22.05 50.88 21.49C51.54 20.91 51.87 20.17 51.87 19.27C51.87 18.57 51.66 18 51.24 17.56C50.84 17.12 50.33 16.78 49.71 16.54C49.11 16.3 48.27 16.04 47.19 15.76C45.83 15.4 44.72 15.04 43.86 14.68C43.02 14.3 42.3 13.72 41.7 12.94C41.1 12.16 40.8 11.12 40.8 9.82C40.8 8.62 41.1 7.57 41.7 6.67C42.3 5.77 43.14 5.08 44.22 4.6C45.3 4.12 46.55 3.88 47.97 3.88C49.99 3.88 51.64 4.39 52.92 5.41C54.22 6.41 54.94 7.79 55.08 9.55H51.3C51.24 8.79 50.88 8.14 50.22 7.6C49.56 7.06 48.69 6.79 47.61 6.79C46.63 6.79 45.83 7.04 45.21 7.54C44.59 8.04 44.28 8.76 44.28 9.7C44.28 10.34 44.47 10.87 44.85 11.29C45.25 11.69 45.75 12.01 46.35 12.25C46.95 12.49 47.77 12.75 48.81 13.03C50.19 13.41 51.31 13.79 52.17 14.17C53.05 14.55 53.79 15.14 54.39 15.94C55.01 16.72 55.32 17.77 55.32 19.09C55.32 20.15 55.03 21.15 54.45 22.09C53.89 23.03 53.06 23.79 51.96 24.37C50.88 24.93 49.6 25.21 48.12 25.21ZM73.6055 16.33C73.6055 16.95 73.5655 17.51 73.4855 18.01H60.8555C60.9555 19.33 61.4455 20.39 62.3255 21.19C63.2055 21.99 64.2855 22.39 65.5655 22.39C67.4055 22.39 68.7055 21.62 69.4655 20.08H73.1555C72.6555 21.6 71.7455 22.85 70.4255 23.83C69.1255 24.79 67.5055 25.27 65.5655 25.27C63.9855 25.27 62.5655 24.92 61.3055 24.22C60.0655 23.5 59.0855 22.5 58.3655 21.22C57.6655 19.92 57.3155 18.42 57.3155 16.72C57.3155 15.02 57.6555 13.53 58.3355 12.25C59.0355 10.95 60.0055 9.95 61.2455 9.25C62.5055 8.55 63.9455 8.2 65.5655 8.2C67.1255 8.2 68.5155 8.54 69.7355 9.22C70.9555 9.9 71.9055 10.86 72.5855 12.1C73.2655 13.32 73.6055 14.73 73.6055 16.33ZM70.0355 15.25C70.0155 13.99 69.5655 12.98 68.6855 12.22C67.8055 11.46 66.7155 11.08 65.4155 11.08C64.2355 11.08 63.2255 11.46 62.3855 12.22C61.5455 12.96 61.0455 13.97 60.8855 15.25H70.0355ZM74.9311 16.66C74.9311 15 75.2711 13.53 75.9511 12.25C76.6511 10.97 77.5911 9.98 78.7711 9.28C79.9711 8.56 81.2911 8.2 82.7311 8.2C84.0311 8.2 85.1611 8.46 86.1211 8.98C87.1011 9.48 87.8811 10.11 88.4611 10.87V8.47H91.9111V25H88.4611V22.54C87.8811 23.32 87.0911 23.97 86.0911 24.49C85.0911 25.01 83.9511 25.27 82.6711 25.27C81.2511 25.27 79.9511 24.91 78.7711 24.19C77.5911 23.45 76.6511 22.43 75.9511 21.13C75.2711 19.81 74.9311 18.32 74.9311 16.66ZM88.4611 16.72C88.4611 15.58 88.2211 14.59 87.7411 13.75C87.2811 12.91 86.6711 12.27 85.9111 11.83C85.1511 11.39 84.3311 11.17 83.4511 11.17C82.5711 11.17 81.7511 11.39 80.9911 11.83C80.2311 12.25 79.6111 12.88 79.1311 13.72C78.6711 14.54 78.4411 15.52 78.4411 16.66C78.4411 17.8 78.6711 18.8 79.1311 19.66C79.6111 20.52 80.2311 21.18 80.9911 21.64C81.7711 22.08 82.5911 22.3 83.4511 22.3C84.3311 22.3 85.1511 22.08 85.9111 21.64C86.6711 21.2 87.2811 20.56 87.7411 19.72C88.2211 18.86 88.4611 17.86 88.4611 16.72ZM98.9231 10.87C99.4231 10.03 100.083 9.38 100.903 8.92C101.743 8.44 102.733 8.2 103.873 8.2V11.74H103.003C101.663 11.74 100.643 12.08 99.9431 12.76C99.2631 13.44 98.9231 14.62 98.9231 16.3V25H95.5031V8.47H98.9231V10.87ZM112.777 8.2C114.057 8.2 115.187 8.46 116.167 8.98C117.167 9.48 117.947 10.11 118.507 10.87V8.47H121.957V25.27C121.957 26.79 121.637 28.14 120.997 29.32C120.357 30.52 119.427 31.46 118.207 32.14C117.007 32.82 115.567 33.16 113.887 33.16C111.647 33.16 109.787 32.63 108.307 31.57C106.827 30.53 105.987 29.11 105.787 27.31H109.177C109.437 28.17 109.987 28.86 110.827 29.38C111.687 29.92 112.707 30.19 113.887 30.19C115.267 30.19 116.377 29.77 117.217 28.93C118.077 28.09 118.507 26.87 118.507 25.27V22.51C117.927 23.29 117.137 23.95 116.137 24.49C115.157 25.01 114.037 25.27 112.777 25.27C111.337 25.27 110.017 24.91 108.817 24.19C107.637 23.45 106.697 22.43 105.997 21.13C105.317 19.81 104.977 18.32 104.977 16.66C104.977 15 105.317 13.53 105.997 12.25C106.697 10.97 107.637 9.98 108.817 9.28C110.017 8.56 111.337 8.2 112.777 8.2ZM118.507 16.72C118.507 15.58 118.267 14.59 117.787 13.75C117.327 12.91 116.717 12.27 115.957 11.83C115.197 11.39 114.377 11.17 113.497 11.17C112.617 11.17 111.797 11.39 111.037 11.83C110.277 12.25 109.657 12.88 109.177 13.72C108.717 14.54 108.487 15.52 108.487 16.66C108.487 17.8 108.717 18.8 109.177 19.66C109.657 20.52 110.277 21.18 111.037 21.64C111.817 22.08 112.637 22.3 113.497 22.3C114.377 22.3 115.197 22.08 115.957 21.64C116.717 21.2 117.327 20.56 117.787 19.72C118.267 18.86 118.507 17.86 118.507 16.72ZM127.289 6.28C126.669 6.28 126.149 6.07 125.729 5.65C125.309 5.23 125.099 4.71 125.099 4.09C125.099 3.47 125.309 2.95 125.729 2.53C126.149 2.11 126.669 1.9 127.289 1.9C127.889 1.9 128.399 2.11 128.819 2.53C129.239 2.95 129.449 3.47 129.449 4.09C129.449 4.71 129.239 5.23 128.819 5.65C128.399 6.07 127.889 6.28 127.289 6.28ZM128.969 8.47V25H125.549V8.47H128.969ZM140.899 8.2C142.199 8.2 143.359 8.47 144.379 9.01C145.419 9.55 146.229 10.35 146.809 11.41C147.389 12.47 147.679 13.75 147.679 15.25V25H144.289V15.76C144.289 14.28 143.919 13.15 143.179 12.37C142.439 11.57 141.429 11.17 140.149 11.17C138.869 11.17 137.849 11.57 137.089 12.37C136.349 13.15 135.979 14.28 135.979 15.76V25H132.559V8.47H135.979V10.36C136.539 9.68 137.249 9.15 138.109 8.77C138.989 8.39 139.919 8.2 140.899 8.2Z" fill="white"/>
<rect x="124" width="6" height="7" fill="#03080B"/>
<circle cx="127" cy="4" r="2" fill="#1955FF"/>
<path d="M16.1384 24.3535C14.35 27.3025 11.5807 26.5433 8.41011 20.6919C7.02298 18.1303 5.14043 15.9664 3.24303 16.6068C0.934439 17.397 0.607471 19.1787 0.934439 21.6887C0.156651 19.4834 -0.160408 17.0664 0.0773864 14.5668C0.919576 5.68906 8.51415 -0.802709 17.0351 0.0804194C17.6148 0.142393 18.1944 0.235354 18.7542 0.364467C14.4739 0.157887 10.5354 2.63168 9.36625 7.59476C7.61746 14.9903 18.8186 19.9327 16.1384 24.3535Z" fill="#1955FF"/>
<path d="M30.2179 11.0964C29.9999 15.1299 26.6262 15.4449 24.6892 13.312C23.5745 12.0932 22.7522 9.02028 20.9092 7.81179C19.428 6.83053 17.6247 6.71175 16.6735 8.27659C14.9941 11.0344 18.8632 12.7439 22.3112 18.2234C25.4472 23.7081 22.5689 29.606 18.2489 32.0797C24.8973 30.8299 30.2278 25.118 30.9264 17.7638C31.1493 15.4346 30.8818 13.1777 30.2179 11.0964ZM27.3594 21.1672C26.2695 21.1672 25.3778 20.1962 25.3778 18.9929C25.3778 17.7948 27.3594 15.7651 27.3594 15.7651C27.3594 15.7651 29.3411 17.7948 29.3411 18.9929C29.3411 20.1962 28.4592 21.1672 27.3594 21.1672Z" fill="#1955FF"/>
</svg>
