<svg width="28" height="28" viewBox="0 0 28 28" fill="none" xmlns="http://www.w3.org/2000/svg">
<path d="M25.6666 9.11159V14.5833H20.9066C20.7666 14.5716 20.4633 14.3966 20.3933 14.2683L19.1799 11.9699C18.7016 11.0599 17.8733 10.5466 16.9866 10.5933C16.0999 10.6399 15.3416 11.2349 14.9566 12.2033L13.3466 16.2399L13.1133 15.6333C12.5416 14.1516 10.9083 13.0316 9.29825 13.0316L2.33325 13.0666V9.11159C2.33325 4.86492 4.86492 2.33325 9.11159 2.33325H18.8883C23.1349 2.33325 25.6666 4.86492 25.6666 9.11159Z" fill="white"/>
<path d="M25.6666 18.8884V16.3334H20.9066C20.1249 16.3334 19.2033 15.7734 18.8416 15.0851L17.6283 12.7868C17.3016 12.1684 16.8349 12.2034 16.5783 12.8451L13.8949 19.6234C13.6033 20.3818 13.1133 20.3818 12.8099 19.6234L11.4799 16.2634C11.1649 15.4468 10.1849 14.7818 9.30992 14.7818L2.33325 14.8168V18.8884C2.33325 23.0651 4.78325 25.5851 8.90159 25.6551C9.02992 25.6668 9.16992 25.6668 9.29825 25.6668H18.6316C18.8066 25.6668 18.9816 25.6668 19.1449 25.6551C23.2399 25.5618 25.6666 23.0534 25.6666 18.8884Z" fill="#CCFF86"/>
<path d="M2.33334 14.8167V18.6783C2.31001 18.305 2.29834 17.9083 2.29834 17.5V14.8167H2.33334Z" fill="#292D32"/>
</svg>
