<svg width="29" height="29" viewBox="0 0 29 29" fill="none" xmlns="http://www.w3.org/2000/svg">
<path d="M19.3333 5.1355C19.3333 6.63383 18.1129 7.85425 16.6145 7.85425H12.3854C11.6362 7.85425 10.9595 7.55217 10.4641 7.05675C9.96871 6.56133 9.66663 5.88466 9.66663 5.1355C9.66663 3.63716 10.887 2.41675 12.3854 2.41675H16.6145C17.3637 2.41675 18.0404 2.71883 18.5358 3.21425C19.0312 3.70966 19.3333 4.38633 19.3333 5.1355Z" fill="white"/>
<path d="M22.753 6.07802C22.475 5.84844 22.1609 5.66719 21.8225 5.53427C21.4721 5.40136 21.1217 5.67927 21.0492 6.04177C20.6384 8.10802 18.8138 9.66677 16.6146 9.66677H12.3855C11.1771 9.66677 10.0413 9.19552 9.18337 8.33761C8.55504 7.70927 8.12004 6.91177 7.95087 6.05386C7.87837 5.69136 7.51587 5.40136 7.16546 5.54636C5.76379 6.11427 4.83337 7.39511 4.83337 9.96886V21.7501C4.83337 25.3751 6.99629 26.5834 9.66671 26.5834H19.3334C22.0038 26.5834 24.1667 25.3751 24.1667 21.7501V9.96886C24.1667 7.99927 23.623 6.79094 22.753 6.07802ZM9.66671 14.8022H14.5C14.9955 14.8022 15.4063 15.213 15.4063 15.7084C15.4063 16.2039 14.9955 16.6147 14.5 16.6147H9.66671C9.17129 16.6147 8.76046 16.2039 8.76046 15.7084C8.76046 15.213 9.17129 14.8022 9.66671 14.8022ZM19.3334 21.448H9.66671C9.17129 21.448 8.76046 21.0372 8.76046 20.5418C8.76046 20.0464 9.17129 19.6355 9.66671 19.6355H19.3334C19.8288 19.6355 20.2396 20.0464 20.2396 20.5418C20.2396 21.0372 19.8288 21.448 19.3334 21.448Z" fill="#CCFF86"/>
</svg>
