<svg width="27" height="27" viewBox="0 0 27 27" fill="none" xmlns="http://www.w3.org/2000/svg">
<path d="M24.75 3.09375H2.25C1.78875 3.09375 1.40625 2.71125 1.40625 2.25C1.40625 1.78875 1.78875 1.40625 2.25 1.40625H24.75C25.2113 1.40625 25.5938 1.78875 25.5938 2.25C25.5938 2.71125 25.2113 3.09375 24.75 3.09375Z" fill="#CCFF86"/>
<path d="M18.7537 25.1325C18.6075 25.425 18.3037 25.5938 18 25.5938C17.8762 25.5938 17.7412 25.56 17.6287 25.5038L13.5 23.445L9.37123 25.5038C9.25873 25.56 9.12374 25.5938 8.99999 25.5938C8.69624 25.5938 8.39248 25.425 8.24623 25.1325C8.03248 24.705 8.20124 24.1988 8.62874 23.9963L12.6562 21.9825V19.125H14.3437V21.9825L18.3712 23.9963C18.7987 24.1988 18.9675 24.705 18.7537 25.1325Z" fill="white"/>
<path d="M3.375 2.25V15.8625C3.375 18 4.5 19.125 6.6375 19.125H20.3625C22.5 19.125 23.625 18 23.625 15.8625V2.25H3.375ZM19.1025 9.6525L15.5588 12.6112C15.2325 12.8813 14.8162 12.9937 14.4225 12.9262C14.0175 12.8587 13.6687 12.6112 13.455 12.2513L12.2738 10.2825L8.9775 13.0275C8.82 13.1625 8.62875 13.2188 8.4375 13.2188C8.20125 13.2188 7.95375 13.1175 7.785 12.915C7.48125 12.555 7.5375 12.0262 7.8975 11.7225L11.4412 8.76375C11.7675 8.49375 12.1838 8.38125 12.5775 8.44875C12.9825 8.51625 13.3313 8.76375 13.545 9.12375L14.7262 11.0925L18.0225 8.3475C18.3825 8.04375 18.9113 8.1 19.215 8.46C19.5075 8.82 19.4625 9.34875 19.1025 9.6525Z" fill="#CCFF86"/>
</svg>
