<svg width="30" height="30" viewBox="0 0 30 30" fill="none" xmlns="http://www.w3.org/2000/svg">
<path d="M27.0875 8.6875C26.2875 5.975 24.025 3.7125 21.3125 2.9125C19.25 2.3125 17.825 2.3625 16.8375 3.1C15.65 3.9875 15.5125 5.5875 15.5125 6.725V9.8375C15.5125 12.9125 16.9125 14.475 19.6625 14.475H23.25C24.375 14.475 25.9875 14.3375 26.875 13.15C27.6375 12.175 27.7 10.75 27.0875 8.6875Z" fill="white"/>
<path d="M23.6375 16.6999C23.3125 16.3249 22.8375 16.1124 22.35 16.1124H17.875C15.675 16.1124 13.8875 14.3249 13.8875 12.1249V7.64994C13.8875 7.16244 13.675 6.68744 13.3 6.36244C12.9375 6.03744 12.4375 5.88744 11.9625 5.94994C9.02499 6.32494 6.32499 7.93744 4.56249 10.3624C2.7875 12.7999 2.1375 15.7749 2.69999 18.7499C3.51249 23.0499 6.94999 26.4874 11.2625 27.2999C11.95 27.4374 12.6375 27.4999 13.325 27.4999C15.5875 27.4999 17.775 26.7999 19.6375 25.4374C22.0625 23.6749 23.675 20.9749 24.05 18.0374C24.1125 17.5499 23.9625 17.0624 23.6375 16.6999Z" fill="#CCFF86"/>
</svg>
