<svg width="28" height="28" viewBox="0 0 28 28" fill="none" xmlns="http://www.w3.org/2000/svg">
<path d="M26.3962 8.80611V17.917C26.0367 17.7435 25.64 17.6195 25.1938 17.5452L24.8095 17.4832L24.4872 16.8138C23.8054 15.4255 22.6898 14.6198 21.4378 14.6198C20.1858 14.6198 19.0702 15.4255 18.3885 16.8138L18.0537 17.4832L17.6819 17.5452C16.2068 17.7931 15.1407 18.6112 14.7565 19.7764C14.3846 20.954 14.7689 22.2432 15.8225 23.3092L16.2068 23.6935L16.1696 23.8422C15.9217 24.9455 16.0209 25.7884 16.2564 26.3958H8.80647C4.29438 26.3958 1.60449 23.7059 1.60449 19.1938V8.80611C1.60449 4.29402 4.29438 1.60413 8.80647 1.60413H19.1942C23.7063 1.60413 26.3962 4.29402 26.3962 8.80611Z" fill="#CCFF86"/>
<path d="M22.826 17.6444L23.2227 18.4501C23.421 18.8468 23.9293 19.2187 24.3507 19.2931L24.8837 19.3798C26.5076 19.6525 26.8795 20.8425 25.7267 22.0077L25.2308 22.5036C24.8961 22.8383 24.7226 23.4828 24.8218 23.9539L24.8837 24.2514C25.33 26.2099 24.2887 26.9661 22.5905 25.9372L22.2311 25.7141C21.7972 25.4538 21.0782 25.4538 20.6444 25.7141L20.2849 25.9372C18.5743 26.9661 17.5454 26.2099 17.9917 24.2514L18.0536 23.9539C18.1528 23.4952 17.9793 22.8383 17.6446 22.5036L17.1488 22.0077C15.9959 20.8301 16.3678 19.6525 17.9917 19.3798L18.5247 19.2931C18.9585 19.2187 19.4544 18.8468 19.6527 18.4501L20.0494 17.6444C20.8179 16.0949 22.0575 16.0949 22.826 17.6444Z" fill="#F8FFEF"/>
<path fill-rule="evenodd" clip-rule="evenodd" d="M19.119 8.9391C19.5249 9.25367 19.5988 9.83765 19.2842 10.2435L16.4153 13.9445C15.6779 14.8771 14.3183 15.0472 13.3698 14.3142L13.3633 14.3092L11.0991 12.5275C10.9592 12.4213 10.7641 12.4477 10.6579 12.5848C10.6578 12.5849 10.658 12.5846 10.6579 12.5848L7.70826 16.4143C7.39495 16.8211 6.8112 16.8969 6.40442 16.5835C5.99765 16.2702 5.92188 15.6865 6.23519 15.2797L9.18629 11.4482C9.9225 10.4955 11.2875 10.3233 12.2382 11.0579L12.2447 11.0629L14.5089 12.8446C14.6502 12.952 14.8494 12.9243 14.9549 12.7935L17.8147 9.10429C18.1293 8.69849 18.7132 8.62452 19.119 8.9391Z" fill="#000005"/>
</svg>
