<svg width="28" height="28" viewBox="0 0 28 28" fill="none" xmlns="http://www.w3.org/2000/svg">
<path d="M22.1667 9.33325C24.0997 9.33325 25.6667 7.76625 25.6667 5.83325C25.6667 3.90026 24.0997 2.33325 22.1667 2.33325C20.2338 2.33325 18.6667 3.90026 18.6667 5.83325C18.6667 7.76625 20.2338 9.33325 22.1667 9.33325Z" fill="white"/>
<path d="M23.0999 10.99C23.0766 10.99 23.0533 11.0017 23.0299 11.0017C22.9133 11.025 22.7966 11.0367 22.6683 11.06C22.1783 11.1067 21.6533 11.0833 21.1166 10.9783C20.9766 10.9433 20.8599 10.92 20.7316 10.8733C20.3466 10.78 19.9849 10.6283 19.6466 10.43C19.5066 10.36 19.3666 10.2667 19.2383 10.185C18.6783 9.8 18.1999 9.32167 17.8149 8.76167C17.7333 8.63333 17.6399 8.49333 17.5699 8.35333C17.3716 8.015 17.2199 7.65333 17.1266 7.26833C17.0799 7.14 17.0566 7.02333 17.0216 6.88333C16.9166 6.34667 16.8933 5.82167 16.9399 5.33167C16.9633 5.20333 16.9749 5.08667 16.9983 4.97C16.9983 4.94667 17.0099 4.92333 17.0099 4.9C17.1499 4.17667 16.6133 3.5 15.8666 3.5H8.77325C8.60992 3.5 8.44659 3.51167 8.29492 3.52333C8.15492 3.535 8.02659 3.54667 7.88659 3.57C7.74659 3.58167 7.60659 3.605 7.47825 3.62833C4.66658 4.03667 2.86992 5.82167 2.46159 8.645C2.43825 8.77333 2.41492 8.91333 2.40325 9.05333C2.37992 9.19333 2.36825 9.32167 2.35659 9.46167C2.34492 9.61333 2.33325 9.77667 2.33325 9.94V19.2267C2.33325 19.39 2.34492 19.5533 2.35659 19.705C2.36825 19.845 2.37992 19.9733 2.40325 20.1133C2.41492 20.2533 2.43825 20.3933 2.46159 20.5217C2.86992 23.345 4.66658 25.13 7.47825 25.5383C7.60659 25.5617 7.74659 25.585 7.88659 25.5967C8.02659 25.62 8.15492 25.6317 8.29492 25.6433C8.44659 25.655 8.60992 25.6667 8.77325 25.6667H18.0599C18.2233 25.6667 18.3866 25.655 18.5383 25.6433C18.6783 25.6317 18.8066 25.62 18.9466 25.5967C19.0866 25.585 19.2266 25.5617 19.3549 25.5383C22.1666 25.13 23.9633 23.345 24.3716 20.5217C24.3949 20.3933 24.4183 20.2533 24.4299 20.1133C24.4533 19.9733 24.4649 19.845 24.4766 19.705C24.4883 19.5533 24.4999 19.39 24.4999 19.2267V12.1333C24.4999 11.3867 23.8232 10.85 23.0999 10.99ZM7.87492 14.5833H13.7083C14.1866 14.5833 14.5833 14.98 14.5833 15.4583C14.5833 15.9367 14.1866 16.3333 13.7083 16.3333H7.87492C7.39658 16.3333 6.99992 15.9367 6.99992 15.4583C6.99992 14.98 7.39658 14.5833 7.87492 14.5833ZM18.3749 21H7.87492C7.39658 21 6.99992 20.6033 6.99992 20.125C6.99992 19.6467 7.39658 19.25 7.87492 19.25H18.3749C18.8533 19.25 19.2499 19.6467 19.2499 20.125C19.2499 20.6033 18.8533 21 18.3749 21Z" fill="#CCFF86"/>
</svg>
