<svg width="20" height="20" viewBox="0 0 20 20" fill="none" xmlns="http://www.w3.org/2000/svg">
<path d="M16.7895 10.7543L10.4955 17.0489C10.3979 17.1465 10.265 17.2018 10.1267 17.2018H3.38585C2.92138 17.2018 2.68853 16.6401 3.0172 16.312C4.9421 14.3853 9.32625 9.99933 9.32625 9.99933C9.32625 9.99933 4.94149 5.61456 3.0172 3.68784C2.68838 3.35977 2.92138 2.7981 3.38585 2.7981H10.1267C10.2651 2.7981 10.3979 2.85333 10.4955 2.95099L13.352 5.80743L16.7895 9.24432C17.206 9.6615 17.206 10.3372 16.7895 10.7543Z" fill="white"/>
<path d="M12.8474 10.7543L6.55343 17.0489C6.45577 17.1465 6.32302 17.2018 6.18477 17.2018H3.38585C2.92138 17.2018 2.68853 16.6401 3.0172 16.312C4.9421 14.3853 9.32625 9.99933 9.32625 9.99933C9.32625 9.99933 4.94149 5.61456 3.0172 3.68784C2.68838 3.35977 2.92138 2.7981 3.38585 2.7981H6.18477C6.32302 2.7981 6.45592 2.85333 6.55358 2.95099L12.8475 9.24417C13.2641 9.6615 13.2641 10.3372 12.8474 10.7543Z" fill="#191B1E"/>
<path d="M12.8454 10.7543L6.55148 17.0489C6.45383 17.1465 6.32108 17.2018 6.18283 17.2018H4.54297C4.68121 17.2018 4.81396 17.1465 4.91162 17.0489L11.3876 10.5724C11.8042 10.1551 11.8042 9.84338 11.3876 9.42621L4.91162 2.95099C4.81396 2.85333 4.68121 2.7981 4.54297 2.7981H6.18283C6.32108 2.7981 6.45383 2.85333 6.55148 2.95099L12.8454 9.24432C13.2621 9.6615 13.2621 10.3372 12.8454 10.7543Z" fill="white"/>
<mask id="path-4-inside-1_2146_1738" fill="white">
<path d="M16.9976 9.03711L13.5602 5.60022L10.7038 2.74377C10.5521 2.5921 10.3421 2.50513 10.1278 2.50513H3.38688C3.05103 2.50513 2.76264 2.698 2.63416 3.00836C2.50599 3.31842 2.57374 3.65823 2.81086 3.8949C4.47453 5.5607 8.02006 9.10638 8.913 9.99933C8.02219 10.8906 4.48582 14.4285 2.81117 16.1047C2.57374 16.3418 2.50599 16.6816 2.63416 16.9915C2.76264 17.3019 3.05103 17.4948 3.38688 17.4948H10.1278C10.3421 17.4948 10.5521 17.4078 10.7038 17.2561L16.9977 10.9615C16.9977 10.9615 16.9977 10.9615 16.9977 10.9614C17.5275 10.4308 17.5275 9.56781 16.9976 9.03711ZM16.5831 10.5474L16.5833 10.5473L10.2893 16.8418C10.2468 16.8844 10.1879 16.9088 10.1278 16.9088H3.38688C3.24512 16.9088 3.18928 16.8006 3.1757 16.7675C3.16196 16.7346 3.12519 16.6192 3.22544 16.5191C5.15034 14.5924 9.53449 10.2064 9.53449 10.2064C9.64893 10.0919 9.64893 9.90656 9.53449 9.79211C9.49055 9.74832 5.12775 5.38538 3.22514 3.48047C3.12519 3.38068 3.16196 3.26532 3.1757 3.23221C3.18928 3.1991 3.24512 3.09106 3.38688 3.09106H10.1278C10.1879 3.09106 10.2468 3.11548 10.2893 3.15805L13.1459 6.01465L16.5831 9.45123C16.885 9.75351 16.885 10.2451 16.5831 10.5474Z"/>
</mask>
<path d="M16.9976 9.03711L13.5602 5.60022L10.7038 2.74377C10.5521 2.5921 10.3421 2.50513 10.1278 2.50513H3.38688C3.05103 2.50513 2.76264 2.698 2.63416 3.00836C2.50599 3.31842 2.57374 3.65823 2.81086 3.8949C4.47453 5.5607 8.02006 9.10638 8.913 9.99933C8.02219 10.8906 4.48582 14.4285 2.81117 16.1047C2.57374 16.3418 2.50599 16.6816 2.63416 16.9915C2.76264 17.3019 3.05103 17.4948 3.38688 17.4948H10.1278C10.3421 17.4948 10.5521 17.4078 10.7038 17.2561L16.9977 10.9615C16.9977 10.9615 16.9977 10.9615 16.9977 10.9614C17.5275 10.4308 17.5275 9.56781 16.9976 9.03711ZM16.5831 10.5474L16.5833 10.5473L10.2893 16.8418C10.2468 16.8844 10.1879 16.9088 10.1278 16.9088H3.38688C3.24512 16.9088 3.18928 16.8006 3.1757 16.7675C3.16196 16.7346 3.12519 16.6192 3.22544 16.5191C5.15034 14.5924 9.53449 10.2064 9.53449 10.2064C9.64893 10.0919 9.64893 9.90656 9.53449 9.79211C9.49055 9.74832 5.12775 5.38538 3.22514 3.48047C3.12519 3.38068 3.16196 3.26532 3.1757 3.23221C3.18928 3.1991 3.24512 3.09106 3.38688 3.09106H10.1278C10.1879 3.09106 10.2468 3.11548 10.2893 3.15805L13.1459 6.01465L16.5831 9.45123C16.885 9.75351 16.885 10.2451 16.5831 10.5474Z" fill="white"/>
<path d="M13.5602 5.60022L12.8531 6.30733L12.8532 6.30737L13.5602 5.60022ZM10.7038 2.74377L9.99667 3.45088L9.99667 3.45088L10.7038 2.74377ZM2.63416 3.00836L1.7102 2.62588L1.71001 2.62633L2.63416 3.00836ZM2.81086 3.8949L3.51842 3.18824L3.51728 3.18711L2.81086 3.8949ZM8.913 9.99933L9.62029 10.7063L10.327 9.99915L9.62011 9.29222L8.913 9.99933ZM2.81117 16.1047L3.51782 16.8122L3.51859 16.8115L2.81117 16.1047ZM2.63416 16.9915L1.71008 17.3737L1.7102 17.374L2.63416 16.9915ZM10.7038 17.2561L11.4109 17.9632L11.4109 17.9632L10.7038 17.2561ZM16.9977 10.9615H17.9977V8.54717L16.2906 10.2545L16.9977 10.9615ZM16.9977 10.9614L16.2901 10.2548L15.9977 10.5476V10.9614H16.9977ZM16.5831 10.5474L15.8755 9.84085L17.2902 11.2545L16.5831 10.5474ZM16.5833 10.5473L17.2904 11.2543L15.8762 9.84017L16.5833 10.5473ZM10.2893 16.8418L10.9965 17.5489L10.9965 17.5489L10.2893 16.8418ZM3.1757 16.7675L4.10092 16.388L4.09877 16.3829L3.1757 16.7675ZM3.22544 16.5191L3.93201 17.2267L3.93288 17.2259L3.22544 16.5191ZM9.53449 10.2064L8.82739 9.49928L8.82724 9.49943L9.53449 10.2064ZM9.53449 9.79211L10.2416 9.08501L10.2404 9.08378L9.53449 9.79211ZM3.22514 3.48047L3.93267 2.77379L3.9317 2.77282L3.22514 3.48047ZM3.1757 3.23221L4.09941 3.61531L4.1009 3.61167L3.1757 3.23221ZM13.1459 6.01465L12.4388 6.72176L12.4389 6.72182L13.1459 6.01465ZM16.5831 9.45123L17.2908 8.74466L17.2902 8.74406L16.5831 9.45123ZM17.7046 8.32996L14.2673 4.89307L12.8532 6.30737L16.2905 9.74426L17.7046 8.32996ZM14.2673 4.89311L11.4109 2.03667L9.99667 3.45088L12.8531 6.30733L14.2673 4.89311ZM11.4109 2.03667C11.0717 1.69752 10.6074 1.50513 10.1278 1.50513V3.50513C10.1002 3.50513 10.0764 3.49966 10.0565 3.49143C10.0367 3.4832 10.0161 3.47029 9.99667 3.45088L11.4109 2.03667ZM10.1278 1.50513H3.38688V3.50513H10.1278V1.50513ZM3.38688 1.50513C2.64617 1.50513 1.99329 1.94203 1.7102 2.62588L3.55812 3.39085C3.54818 3.41487 3.52596 3.44667 3.48858 3.47166C3.45119 3.49666 3.41317 3.50513 3.38688 3.50513V1.50513ZM1.71001 2.62633C1.42755 3.30961 1.58048 4.07974 2.10444 4.60269L3.51728 3.18711C3.53637 3.20615 3.55741 3.2394 3.56623 3.28367C3.57505 3.32791 3.5683 3.36623 3.55831 3.39039L1.71001 2.62633ZM2.1033 4.60155C3.76724 6.26763 7.31304 9.81358 8.2059 10.7064L9.62011 9.29222C8.72708 8.39919 5.18181 4.85377 3.51842 3.18824L2.1033 4.60155ZM8.20571 9.2924C7.31499 10.1836 3.77848 13.7216 2.10374 15.3979L3.51859 16.8115C5.19315 15.1354 8.7294 11.5976 9.62029 10.7063L8.20571 9.2924ZM2.10451 15.3971C1.58088 15.9201 1.42731 16.69 1.71008 17.3737L3.55825 16.6093C3.56833 16.6337 3.57507 16.6722 3.56623 16.7165C3.5574 16.7608 3.53641 16.7937 3.51782 16.8122L2.10451 15.3971ZM1.7102 17.374C1.99329 18.0579 2.64617 18.4948 3.38688 18.4948V16.4948C3.41317 16.4948 3.45119 16.5032 3.48858 16.5282C3.52596 16.5532 3.54818 16.585 3.55812 16.609L1.7102 17.374ZM3.38688 18.4948H10.1278V16.4948H3.38688V18.4948ZM10.1278 18.4948C10.6074 18.4948 11.0717 18.3024 11.4109 17.9632L9.99667 16.549C10.0161 16.5296 10.0367 16.5167 10.0565 16.5084C10.0764 16.5002 10.1002 16.4948 10.1278 16.4948V18.4948ZM11.4109 17.9632L17.7049 11.6686L16.2906 10.2545L9.99663 16.549L11.4109 17.9632ZM16.9977 10.9615C15.9977 10.9615 16.9977 10.9615 17.9977 10.9615C17.9977 10.9615 17.9977 10.9615 17.9977 10.9615C17.9977 10.9615 17.9977 10.9615 17.9977 10.9615C17.9977 10.9615 17.9977 10.9615 17.9977 10.9615C17.9977 10.9615 17.9977 10.9615 17.9977 10.9615C17.9977 10.9615 17.9977 10.9615 17.9977 10.9615V10.9615C17.9977 10.9615 17.9977 10.9615 17.9977 10.9615C17.9977 10.9615 17.9977 10.9615 17.9977 10.9615V10.9615C17.9977 10.9615 17.9977 10.9615 17.9977 10.9615V10.9615C17.9977 10.9615 17.9977 10.9615 17.9977 10.9615C17.9977 10.9615 17.9977 10.9615 17.9977 10.9615V10.9615C17.9977 10.9615 17.9977 10.9615 17.9977 10.9615C17.9977 10.9615 17.9977 10.9615 17.9977 10.9615C17.9977 10.9615 17.9977 10.9615 17.9977 10.9615C17.9977 10.9615 17.9977 10.9615 17.9977 10.9615V10.9615C17.9977 10.9615 17.9977 10.9615 17.9977 10.9615C17.9977 10.9615 17.9977 10.9615 17.9977 10.9615C17.9977 10.9615 17.9977 10.9615 17.9977 10.9615C17.9977 10.9615 17.9977 10.9615 17.9977 10.9615C17.9977 10.9615 17.9977 10.9615 17.9977 10.9615C17.9977 10.9615 17.9977 10.9615 17.9977 10.9615V10.9615C17.9977 10.9615 17.9977 10.9615 17.9977 10.9615C17.9977 10.9615 17.9977 10.9615 17.9977 10.9615C17.9977 10.9615 17.9977 10.9615 17.9977 10.9615V10.9615C17.9977 10.9615 17.9977 10.9615 17.9977 10.9615C17.9977 10.9615 17.9977 10.9615 17.9977 10.9615C17.9977 10.9615 17.9977 10.9615 17.9977 10.9615C17.9977 10.9615 17.9977 10.9615 17.9977 10.9615C17.9977 10.9615 17.9977 10.9615 17.9977 10.9615C17.9977 10.9615 17.9977 10.9615 17.9977 10.9615C17.9977 10.9615 17.9977 10.9615 17.9977 10.9615C17.9977 10.9615 17.9977 10.9615 17.9977 10.9615V10.9615C17.9977 10.9615 17.9977 10.9615 17.9977 10.9615C17.9977 10.9615 17.9977 10.9615 17.9977 10.9615V10.9615C17.9977 10.9615 17.9977 10.9615 17.9977 10.9615C17.9977 10.9615 17.9977 10.9615 17.9977 10.9615C17.9977 10.9615 17.9977 10.9615 17.9977 10.9615C17.9977 10.9615 17.9977 10.9615 17.9977 10.9615C17.9977 10.9615 17.9977 10.9615 17.9977 10.9615V10.9615C17.9977 10.9615 17.9977 10.9615 17.9977 10.9615C17.9977 10.9615 17.9977 10.9615 17.9977 10.9615V10.9615C17.9977 10.9615 17.9977 10.9615 17.9977 10.9615C17.9977 10.9615 17.9977 10.9615 17.9977 10.9615V10.9615V10.9615C17.9977 10.9615 17.9977 10.9615 17.9977 10.9615C17.9977 10.9615 17.9977 10.9615 17.9977 10.9615C17.9977 10.9615 17.9977 10.9615 17.9977 10.9615C17.9977 10.9615 17.9977 10.9615 17.9977 10.9615C17.9977 10.9615 17.9977 10.9615 17.9977 10.9615C17.9977 10.9615 17.9977 10.9615 17.9977 10.9615C17.9977 10.9615 17.9977 10.9615 17.9977 10.9615C17.9977 10.9615 17.9977 10.9615 17.9977 10.9615C17.9977 10.9615 17.9977 10.9615 17.9977 10.9615C17.9977 10.9615 17.9977 10.9615 17.9977 10.9615C17.9977 10.9615 17.9977 10.9615 17.9977 10.9615C17.9977 10.9615 17.9977 10.9615 17.9977 10.9615C17.9977 10.9615 17.9977 10.9615 17.9977 10.9615C17.9977 10.9615 17.9977 10.9615 17.9977 10.9615C17.9977 10.9615 17.9977 10.9615 17.9977 10.9615V10.9615V10.9615C17.9977 10.9615 17.9977 10.9615 17.9977 10.9615C17.9977 10.9615 17.9977 10.9615 17.9977 10.9615C17.9977 10.9615 17.9977 10.9615 17.9977 10.9615V10.9615V10.9615C17.9977 10.9615 17.9977 10.9615 17.9977 10.9615C17.9977 10.9615 17.9977 10.9615 17.9977 10.9615V10.9615C17.9977 10.9615 17.9977 10.9615 17.9977 10.9615C17.9977 10.9615 17.9977 10.9615 17.9977 10.9615V10.9615C17.9977 10.9615 17.9977 10.9615 17.9977 10.9615C17.9977 10.9615 17.9977 10.9615 17.9977 10.9615V10.9615C17.9977 10.9615 17.9977 10.9615 17.9977 10.9615C17.9977 10.9615 17.9977 10.9615 17.9977 10.9615C17.9977 10.9615 17.9977 10.9615 17.9977 10.9615C17.9977 10.9615 17.9977 10.9615 17.9977 10.9615V10.9615C17.9977 10.9615 17.9977 10.9615 17.9977 10.9615V10.9615C17.9977 10.9615 17.9977 10.9615 17.9977 10.9615V10.9615C17.9977 10.9615 17.9977 10.9615 17.9977 10.9615V10.9615C17.9977 10.9615 17.9977 10.9615 17.9977 10.9615V10.9615C17.9977 10.9615 17.9977 10.9615 17.9977 10.9615V10.9615C17.9977 10.9615 17.9977 10.9615 17.9977 10.9615V10.9614C17.9977 10.9614 17.9977 10.9614 17.9977 10.9614C17.9977 10.9614 17.9977 10.9614 17.9977 10.9614V10.9614C17.9977 10.9614 17.9977 10.9614 17.9977 10.9614V10.9614C17.9977 10.9614 17.9977 10.9614 17.9977 10.9614C17.9977 10.9614 17.9977 10.9614 17.9977 10.9614V10.9614C17.9977 10.9614 17.9977 10.9614 17.9977 10.9614C17.9977 10.9614 17.9977 10.9614 17.9977 10.9614V10.9614C17.9977 10.9614 17.9977 10.9614 17.9977 10.9614C17.9977 10.9614 17.9977 10.9614 17.9977 10.9614V10.9614C17.9977 10.9614 17.9977 10.9614 17.9977 10.9614C17.9977 10.9614 17.9977 10.9614 17.9977 10.9614V10.9614C17.9977 10.9614 17.9977 10.9614 17.9977 10.9614C17.9977 10.9614 17.9977 10.9614 17.9977 10.9614V10.9614C17.9977 10.9614 17.9977 10.9614 17.9977 10.9614C17.9977 10.9614 17.9977 10.9614 17.9977 10.9614C17.9977 10.9614 17.9977 10.9614 17.9977 10.9614V10.9614C17.9977 10.9614 17.9977 10.9614 17.9977 10.9614C17.9977 10.9614 17.9977 10.9614 17.9977 10.9614C17.9977 10.9614 17.9977 10.9614 17.9977 10.9614V10.9614V10.9614C17.9977 10.9614 17.9977 10.9614 17.9977 10.9614C17.9977 10.9614 17.9977 10.9614 17.9977 10.9614C17.9977 10.9614 17.9977 10.9614 17.9977 10.9614V10.9614V10.9614C17.9977 10.9614 17.9977 10.9614 17.9977 10.9614C17.9977 10.9614 17.9977 10.9614 17.9977 10.9614C17.9977 10.9614 17.9977 10.9614 17.9977 10.9614C17.9977 10.9614 17.9977 10.9614 17.9977 10.9614V10.9614V10.9614C17.9977 10.9614 17.9977 10.9614 17.9977 10.9614C17.9977 10.9614 17.9977 10.9614 17.9977 10.9614C17.9977 10.9614 17.9977 10.9614 17.9977 10.9614C17.9977 10.9614 17.9977 10.9614 17.9977 10.9614C17.9977 10.9614 17.9977 10.9614 17.9977 10.9614V10.9614V10.9614V10.9614C17.9977 10.9614 17.9977 10.9614 17.9977 10.9614C17.9977 10.9614 17.9977 10.9614 17.9977 10.9614C17.9977 10.9614 17.9977 10.9614 17.9977 10.9614C17.9977 10.9614 17.9977 10.9614 17.9977 10.9614C17.9977 10.9614 17.9977 10.9614 17.9977 10.9614C17.9977 10.9614 17.9977 10.9614 17.9977 10.9614C17.9977 10.9614 17.9977 10.9614 17.9977 10.9614V10.9614V10.9614H15.9977V10.9614V10.9614C15.9977 10.9614 15.9977 10.9614 15.9977 10.9614C15.9977 10.9614 15.9977 10.9614 15.9977 10.9614C15.9977 10.9614 15.9977 10.9614 15.9977 10.9614C15.9977 10.9614 15.9977 10.9614 15.9977 10.9614C15.9977 10.9614 15.9977 10.9614 15.9977 10.9614C15.9977 10.9614 15.9977 10.9614 15.9977 10.9614C15.9977 10.9614 15.9977 10.9614 15.9977 10.9614V10.9614V10.9614V10.9614C15.9977 10.9614 15.9977 10.9614 15.9977 10.9614C15.9977 10.9614 15.9977 10.9614 15.9977 10.9614C15.9977 10.9614 15.9977 10.9614 15.9977 10.9614C15.9977 10.9614 15.9977 10.9614 15.9977 10.9614C15.9977 10.9614 15.9977 10.9614 15.9977 10.9614V10.9614V10.9614C15.9977 10.9614 15.9977 10.9614 15.9977 10.9614C15.9977 10.9614 15.9977 10.9614 15.9977 10.9614C15.9977 10.9614 15.9977 10.9614 15.9977 10.9614C15.9977 10.9614 15.9977 10.9614 15.9977 10.9614V10.9614V10.9614C15.9977 10.9614 15.9977 10.9614 15.9977 10.9614C15.9977 10.9614 15.9977 10.9614 15.9977 10.9614C15.9977 10.9614 15.9977 10.9614 15.9977 10.9614V10.9614V10.9614C15.9977 10.9614 15.9977 10.9614 15.9977 10.9614C15.9977 10.9614 15.9977 10.9614 15.9977 10.9614C15.9977 10.9614 15.9977 10.9614 15.9977 10.9614V10.9614C15.9977 10.9614 15.9977 10.9614 15.9977 10.9614C15.9977 10.9614 15.9977 10.9614 15.9977 10.9614C15.9977 10.9614 15.9977 10.9614 15.9977 10.9614V10.9614C15.9977 10.9614 15.9977 10.9614 15.9977 10.9614C15.9977 10.9614 15.9977 10.9614 15.9977 10.9614V10.9614C15.9977 10.9614 15.9977 10.9614 15.9977 10.9614C15.9977 10.9614 15.9977 10.9614 15.9977 10.9614V10.9614C15.9977 10.9614 15.9977 10.9614 15.9977 10.9614C15.9977 10.9614 15.9977 10.9614 15.9977 10.9614V10.9614C15.9977 10.9614 15.9977 10.9614 15.9977 10.9614C15.9977 10.9614 15.9977 10.9614 15.9977 10.9614V10.9614C15.9977 10.9614 15.9977 10.9614 15.9977 10.9614C15.9977 10.9614 15.9977 10.9614 15.9977 10.9614V10.9614C15.9977 10.9614 15.9977 10.9614 15.9977 10.9614V10.9614C15.9977 10.9614 15.9977 10.9614 15.9977 10.9614C15.9977 10.9614 15.9977 10.9614 15.9977 10.9614V10.9615C15.9977 10.9615 15.9977 10.9615 15.9977 10.9615V10.9615C15.9977 10.9615 15.9977 10.9615 15.9977 10.9615V10.9615C15.9977 10.9615 15.9977 10.9615 15.9977 10.9615V10.9615C15.9977 10.9615 15.9977 10.9615 15.9977 10.9615V10.9615C15.9977 10.9615 15.9977 10.9615 15.9977 10.9615V10.9615C15.9977 10.9615 15.9977 10.9615 15.9977 10.9615V10.9615C15.9977 10.9615 15.9977 10.9615 15.9977 10.9615C15.9977 10.9615 15.9977 10.9615 15.9977 10.9615C15.9977 10.9615 15.9977 10.9615 15.9977 10.9615C15.9977 10.9615 15.9977 10.9615 15.9977 10.9615V10.9615C15.9977 10.9615 15.9977 10.9615 15.9977 10.9615C15.9977 10.9615 15.9977 10.9615 15.9977 10.9615V10.9615C15.9977 10.9615 15.9977 10.9615 15.9977 10.9615C15.9977 10.9615 15.9977 10.9615 15.9977 10.9615V10.9615C15.9977 10.9615 15.9977 10.9615 15.9977 10.9615C15.9977 10.9615 15.9977 10.9615 15.9977 10.9615V10.9615V10.9615C15.9977 10.9615 15.9977 10.9615 15.9977 10.9615C15.9977 10.9615 15.9977 10.9615 15.9977 10.9615C15.9977 10.9615 15.9977 10.9615 15.9977 10.9615V10.9615V10.9615C15.9977 10.9615 15.9977 10.9615 15.9977 10.9615C15.9977 10.9615 15.9977 10.9615 15.9977 10.9615C15.9977 10.9615 15.9977 10.9615 15.9977 10.9615C15.9977 10.9615 15.9977 10.9615 15.9977 10.9615C15.9977 10.9615 15.9977 10.9615 15.9977 10.9615C15.9977 10.9615 15.9977 10.9615 15.9977 10.9615C15.9977 10.9615 15.9977 10.9615 15.9977 10.9615C15.9977 10.9615 15.9977 10.9615 15.9977 10.9615C15.9977 10.9615 15.9977 10.9615 15.9977 10.9615C15.9977 10.9615 15.9977 10.9615 15.9977 10.9615C15.9977 10.9615 15.9977 10.9615 15.9977 10.9615C15.9977 10.9615 15.9977 10.9615 15.9977 10.9615C15.9977 10.9615 15.9977 10.9615 15.9977 10.9615C15.9977 10.9615 15.9977 10.9615 15.9977 10.9615C15.9977 10.9615 15.9977 10.9615 15.9977 10.9615V10.9615V10.9615C15.9977 10.9615 15.9977 10.9615 15.9977 10.9615C15.9977 10.9615 15.9977 10.9615 15.9977 10.9615V10.9615C15.9977 10.9615 15.9977 10.9615 15.9977 10.9615C15.9977 10.9615 15.9977 10.9615 15.9977 10.9615V10.9615C15.9977 10.9615 15.9977 10.9615 15.9977 10.9615C15.9977 10.9615 15.9977 10.9615 15.9977 10.9615C15.9977 10.9615 15.9977 10.9615 15.9977 10.9615C15.9977 10.9615 15.9977 10.9615 15.9977 10.9615C15.9977 10.9615 15.9977 10.9615 15.9977 10.9615V10.9615C15.9977 10.9615 15.9977 10.9615 15.9977 10.9615C15.9977 10.9615 15.9977 10.9615 15.9977 10.9615V10.9615C15.9977 10.9615 15.9977 10.9615 15.9977 10.9615C15.9977 10.9615 15.9977 10.9615 15.9977 10.9615C15.9977 10.9615 15.9977 10.9615 15.9977 10.9615C15.9977 10.9615 15.9977 10.9615 15.9977 10.9615C15.9977 10.9615 15.9977 10.9615 15.9977 10.9615C15.9977 10.9615 15.9977 10.9615 15.9977 10.9615C15.9977 10.9615 15.9977 10.9615 15.9977 10.9615C15.9977 10.9615 15.9977 10.9615 15.9977 10.9615V10.9615C15.9977 10.9615 15.9977 10.9615 15.9977 10.9615C15.9977 10.9615 15.9977 10.9615 15.9977 10.9615C15.9977 10.9615 15.9977 10.9615 15.9977 10.9615V10.9615C15.9977 10.9615 15.9977 10.9615 15.9977 10.9615C15.9977 10.9615 15.9977 10.9615 15.9977 10.9615C15.9977 10.9615 15.9977 10.9615 15.9977 10.9615C15.9977 10.9615 15.9977 10.9615 15.9977 10.9615C15.9977 10.9615 15.9977 10.9615 15.9977 10.9615C15.9977 10.9615 15.9977 10.9615 15.9977 10.9615V10.9615C15.9977 10.9615 15.9977 10.9615 15.9977 10.9615C15.9977 10.9615 15.9977 10.9615 15.9977 10.9615C15.9977 10.9615 15.9977 10.9615 15.9977 10.9615C15.9977 10.9615 15.9977 10.9615 15.9977 10.9615V10.9615C15.9977 10.9615 15.9977 10.9615 15.9977 10.9615C15.9977 10.9615 15.9977 10.9615 15.9977 10.9615V10.9615C15.9977 10.9615 15.9977 10.9615 15.9977 10.9615V10.9615C15.9977 10.9615 15.9977 10.9615 15.9977 10.9615C15.9977 10.9615 15.9977 10.9615 15.9977 10.9615V10.9615C15.9977 10.9615 15.9977 10.9615 15.9977 10.9615C15.9977 10.9615 15.9977 10.9615 15.9977 10.9615C15.9977 10.9615 15.9977 10.9615 15.9977 10.9615C15.9977 10.9615 15.9977 10.9615 15.9977 10.9615C15.9977 10.9615 15.9977 10.9615 15.9977 10.9615C16.9977 10.9615 17.9977 10.9615 16.9977 10.9615ZM17.7053 11.668C18.625 10.747 18.6249 9.25155 17.7052 8.33051L16.29 9.74371C16.4301 9.88407 16.43 10.1147 16.2901 10.2548L17.7053 11.668ZM17.2902 11.2545L17.2904 11.2544L15.8762 9.84017L15.876 9.84032L17.2902 11.2545ZM15.8761 9.8402L9.5822 16.1348L10.9965 17.5489L17.2904 11.2543L15.8761 9.8402ZM9.58224 16.1347C9.72692 15.99 9.92226 15.9088 10.1278 15.9088V17.9088C10.4535 17.9088 10.7666 17.7788 10.9965 17.5489L9.58224 16.1347ZM10.1278 15.9088H3.38688V17.9088H10.1278V15.9088ZM3.38688 15.9088C3.59996 15.9088 3.78763 16 3.91591 16.1199C4.02419 16.221 4.07587 16.327 4.1009 16.3881L2.25049 17.147C2.30889 17.2894 2.61341 17.9088 3.38688 17.9088V15.9088ZM4.09877 16.3829C4.12386 16.4431 4.1625 16.5551 4.15719 16.7041C4.1509 16.8805 4.0819 17.0771 3.93201 17.2267L2.51887 15.8115C1.97232 16.3572 2.19308 17.0092 2.25262 17.1521L4.09877 16.3829ZM3.93288 17.2259C4.89524 16.2626 6.47243 14.6845 7.80909 13.3471C8.47741 12.6785 9.08557 12.07 9.52666 11.6288C9.7472 11.4081 9.92598 11.2293 10.0496 11.1056C10.1114 11.0437 10.1595 10.9957 10.192 10.9631C10.2083 10.9468 10.2208 10.9343 10.2291 10.926C10.2333 10.9218 10.2364 10.9187 10.2386 10.9165C10.2396 10.9155 10.2404 10.9147 10.2409 10.9141C10.2412 10.9139 10.2414 10.9137 10.2415 10.9135C10.2416 10.9135 10.2417 10.9134 10.2417 10.9134C10.2417 10.9134 10.2417 10.9133 9.53449 10.2064C8.82724 9.49943 8.82722 9.49945 8.82719 9.49948C8.82716 9.49952 8.82711 9.49957 8.82704 9.49963C8.8269 9.49977 8.8267 9.49997 8.82644 9.50023C8.82591 9.50076 8.82511 9.50156 8.82405 9.50262C8.82194 9.50473 8.81878 9.50789 8.8146 9.51207C8.80625 9.52043 8.79382 9.53286 8.77753 9.54916C8.74495 9.58176 8.69691 9.62981 8.63509 9.69166C8.51145 9.81535 8.33267 9.99421 8.11212 10.2149C7.67103 10.6562 7.06285 11.2646 6.39451 11.9333C5.05787 13.2706 3.48053 14.8489 2.518 15.8123L3.93288 17.2259ZM10.2416 10.9135C10.7466 10.4085 10.7466 9.58997 10.2416 9.08501L8.82739 10.4992C8.5513 10.2231 8.5513 9.77537 8.82739 9.49928L10.2416 10.9135ZM10.2404 9.08378C10.2405 9.08386 10.2402 9.0836 10.2393 9.08272C10.2385 9.08194 10.2375 9.08089 10.2361 9.07953C10.2334 9.07683 10.2297 9.07309 10.2249 9.0683C10.2153 9.05875 10.2017 9.04517 10.1843 9.02777C10.1495 8.99297 10.0995 8.94294 10.0359 8.87934C9.9087 8.75215 9.72725 8.5707 9.5048 8.34824C9.0599 7.90331 8.45099 7.29432 7.784 6.62718C6.44997 5.29285 4.88378 3.72604 3.93267 2.77379L2.5176 4.18715C4.41994 6.09178 8.78366 10.4557 8.82862 10.5004L10.2404 9.08378ZM3.9317 2.77282C4.08241 2.9233 4.15105 3.12053 4.15718 3.29652C4.16236 3.44516 4.12375 3.55661 4.0994 3.61531L2.25199 2.84911C2.19406 2.98879 1.97147 3.64185 2.51857 4.18812L3.9317 2.77282ZM4.1009 3.61167C4.07571 3.6731 4.02387 3.77919 3.91547 3.88034C3.78706 4.00017 3.59951 4.09106 3.38688 4.09106V2.09106C2.61415 2.09106 2.30934 2.70925 2.25049 2.85274L4.1009 3.61167ZM3.38688 4.09106H10.1278V2.09106H3.38688V4.09106ZM10.1278 4.09106C9.92226 4.09106 9.72692 4.00984 9.58224 3.86516L10.9965 2.45094C10.7666 2.22111 10.4535 2.09106 10.1278 2.09106V4.09106ZM9.58224 3.86516L12.4388 6.72176L13.8531 5.30754L10.9965 2.45094L9.58224 3.86516ZM12.4389 6.72182L15.8761 10.1584L17.2902 8.74406L13.853 5.30748L12.4389 6.72182ZM15.8755 10.1578C15.7875 10.0697 15.7875 9.92898 15.8755 9.84085L17.2908 11.254C17.9824 10.5613 17.9824 9.43734 17.2908 8.74466L15.8755 10.1578Z" fill="#191B1E" mask="url(#path-4-inside-1_2146_1738)"/>
</svg>
