<svg width="132" height="109" viewBox="0 0 132 109" fill="none" xmlns="http://www.w3.org/2000/svg">
<path d="M102.869 38.8307C102.869 16.4956 83.4396 -1.29987 60.7413 1.24234C43.4907 3.23979 29.6901 16.8588 27.5111 34.1094C26.0584 46.0941 30.2349 57.1709 37.6799 64.9791C43.6722 71.153 47.1224 79.3244 47.1224 88.0406C47.1224 89.4932 48.2119 90.5828 49.6646 90.5828H81.2606C82.7133 90.5828 83.8028 89.4932 83.8028 88.0406V87.1326C83.8028 78.9612 86.7082 70.9715 92.3373 64.9791C98.8744 58.0788 102.869 48.9995 102.869 38.8307Z" stroke="#212121" stroke-width="1.211" stroke-miterlimit="10"/>
<path d="M48.5762 96.5753H82.7144" stroke="#212121" stroke-width="1.211" stroke-miterlimit="10" stroke-linecap="round"/>
<path d="M48.5762 102.386H82.7144" stroke="#212121" stroke-width="1.211" stroke-miterlimit="10" stroke-linecap="round"/>
<path d="M52.752 107.833H78.5372" stroke="#212121" stroke-width="1.211" stroke-miterlimit="10" stroke-linecap="round"/>
<path d="M23.3344 58.8052L11.5312 66.9766" stroke="#212121" stroke-width="1.211" stroke-miterlimit="10" stroke-linecap="round"/>
<path d="M11.5312 3.42139L23.3344 11.5928" stroke="#212121" stroke-width="1.211" stroke-miterlimit="10" stroke-linecap="round"/>
<path d="M15.5269 34.8359L1 35.0175" stroke="#212121" stroke-width="1.211" stroke-miterlimit="10" stroke-linecap="round"/>
<path d="M108.682 58.8052L120.666 66.9766" stroke="#212121" stroke-width="1.211" stroke-miterlimit="10" stroke-linecap="round"/>
<path d="M120.666 3.42139L108.682 11.5928" stroke="#212121" stroke-width="1.211" stroke-miterlimit="10" stroke-linecap="round"/>
<path d="M116.67 34.8359L131.197 35.0175" stroke="#212121" stroke-width="1.211" stroke-miterlimit="10" stroke-linecap="round"/>
<path d="M37.6797 54.9918C38.5876 56.4445 39.4955 57.7156 40.7666 58.6235" stroke="#212121" stroke-width="1.211" stroke-miterlimit="10" stroke-linecap="round"/>
<path d="M47.6679 12.1377C47.6679 12.1377 39.8597 15.0431 34.7752 28.4805C32.7778 33.7465 32.7778 43.0074 35.5016 50.4524" stroke="#212121" stroke-width="1.211" stroke-miterlimit="10" stroke-linecap="round"/>
</svg>
