<svg width="77" height="118" viewBox="0 0 77 118" fill="none" xmlns="http://www.w3.org/2000/svg">
<path d="M54.7379 16.437H72.6505C74.3981 16.437 76 17.8933 76 19.7865V113.136C76 114.884 74.5437 116.486 72.6505 116.486H4.34951C2.60194 116.486 1 115.029 1 113.136V19.7865C1 18.039 2.45631 16.437 4.34951 16.437H22.2621" stroke="#212121" stroke-width="1.211" stroke-miterlimit="10" stroke-linecap="round"/>
<path d="M52.9899 8.71845H45.1258V7.5534C45.1258 3.91262 42.2132 1 38.5724 1C34.9316 1 32.019 3.91262 32.019 7.5534V8.71845H24.0093C22.9899 8.71845 22.2617 9.59223 22.2617 10.466V18.767C22.2617 19.7864 23.1355 20.5146 24.0093 20.5146H52.8442C53.8637 20.5146 54.5918 19.6408 54.5918 18.767V10.466C54.7374 9.4466 53.8637 8.71845 52.9899 8.71845ZM35.5141 8.71845V7.5534C35.5141 5.95146 36.8248 4.64078 38.4268 4.64078C40.0287 4.64078 41.3394 5.95146 41.3394 7.5534V8.71845H35.5141Z" stroke="#212121" stroke-width="1.211" stroke-miterlimit="10"/>
<path d="M12.2129 39.4463L14.543 41.922L21.5333 35.0774" stroke="#212121" stroke-width="1.211" stroke-miterlimit="10" stroke-linecap="round"/>
<path d="M29.6895 41.922H64.7865" stroke="#212121" stroke-width="1.211" stroke-miterlimit="10" stroke-linecap="round"/>
<path d="M12.2129 58.0871L14.543 60.5628L21.5333 53.7181" stroke="#212121" stroke-width="1.211" stroke-miterlimit="10" stroke-linecap="round"/>
<path d="M29.6895 60.5627H64.7865" stroke="#212121" stroke-width="1.211" stroke-miterlimit="10" stroke-linecap="round"/>
<path d="M12.2129 76.7279L14.543 79.2037L21.5333 72.359" stroke="#212121" stroke-width="1.211" stroke-miterlimit="10" stroke-linecap="round"/>
<path d="M29.6895 79.2034H64.7865" stroke="#212121" stroke-width="1.211" stroke-miterlimit="10" stroke-linecap="round"/>
<path d="M12.2129 95.3683L14.543 97.844L21.5333 90.9994" stroke="#212121" stroke-width="1.211" stroke-miterlimit="10" stroke-linecap="round"/>
<path d="M29.6895 97.8441H64.7865" stroke="#212121" stroke-width="1.211" stroke-miterlimit="10" stroke-linecap="round"/>
</svg>
