<svg width="147" height="111" viewBox="0 0 147 111" fill="none" xmlns="http://www.w3.org/2000/svg">
<path d="M108.618 45.3348L95.1353 43.6202C94.3999 43.6202 93.9096 43.1303 93.6644 42.3955C93.1741 40.6809 92.4387 38.9663 91.4581 37.2517C91.213 36.7618 91.2129 36.027 91.7032 35.5371L100.038 25.0045C100.528 24.2697 100.528 23.2899 99.793 22.8L88.2712 11.2876C87.5358 10.5528 86.5552 10.5528 86.0649 11.0427L75.7689 19.1258C75.2786 19.6157 74.5432 19.6157 73.8077 19.3708C72.0917 18.391 70.1306 17.6562 68.1694 16.9213C67.434 16.6764 67.1889 16.1865 66.9437 15.4517L65.2277 2.46966C65.2277 1.48988 64.4923 1 63.5117 1H47.0871C46.1065 1 45.371 1.73483 45.371 2.46966L43.9002 14.9618C43.9002 15.6966 43.4099 16.1865 42.6745 16.4315C40.4682 17.1663 38.507 17.9011 36.5459 18.8809C36.0556 19.1258 35.3202 19.1259 34.8299 18.636L25.0241 11.0427C24.2887 10.5528 23.3081 10.5528 22.8178 11.2876L11.296 22.8C10.5606 23.5348 10.5606 24.5146 11.0509 25.0045L18.4052 34.5573C18.8955 35.0472 18.8955 35.782 18.6504 36.5168C17.6698 38.4764 16.6892 40.6809 15.9538 42.8854C15.7086 43.6202 15.2183 44.1101 14.4829 44.1101L2.47084 45.5798C1.49027 45.5798 1 46.3146 1 47.2944V63.7056C1 64.6854 1.73541 65.4202 2.47084 65.4202L14.4829 66.8899C15.2183 66.8899 15.7086 67.3798 15.9538 68.1146C16.6892 70.3191 17.6698 72.5236 18.6504 74.4831C18.8955 74.973 18.8955 75.7079 18.4052 76.4427L11.0509 85.9955C10.5606 86.7304 10.5606 87.7101 11.296 88.2L22.8178 99.7124C23.5532 100.447 24.5338 100.447 25.0241 99.9573L34.8299 92.364C35.3202 91.8742 36.0556 91.8742 36.5459 92.1191C38.507 93.0989 40.7133 93.8337 42.6745 94.5686C43.4099 94.8135 43.9002 95.3034 43.9002 96.0382C44.1453 98.7326 45.1259 105.346 45.371 108.53C45.371 109.51 46.1065 110 47.0871 110H63.5117C64.4923 110 65.2277 109.265 65.2277 108.53L66.9437 95.7933C66.9437 95.0585 67.434 94.5685 68.1694 94.3236C70.1306 93.5888 72.0917 92.8539 73.8077 91.8742C74.298 91.6292 75.0334 91.6292 75.7689 92.1191L86.0649 100.202C86.8004 100.692 87.7809 100.692 88.2712 99.9573L99.793 88.445C100.528 87.7101 100.528 86.7303 100.038 86.2405L91.7032 75.7079C91.2129 75.218 91.213 74.4831 91.4581 73.9933C92.1936 72.2787 92.929 70.5641 93.6644 68.6045C93.9096 67.8697 94.3999 67.6247 95.1353 67.3798L108.373 65.6652C109.354 65.6652 109.844 64.9304 109.844 63.9506V47.5393C110.334 46.3146 109.599 45.5798 108.618 45.3348ZM55.1768 74.9731C44.3905 74.9731 35.5653 66.1551 35.5653 55.3775C35.5653 44.6 44.3905 35.782 55.1768 35.782C65.9631 35.782 74.7883 44.6 74.7883 55.3775C74.7883 66.1551 65.9631 74.9731 55.1768 74.9731Z" stroke="#212121" stroke-width="1.211" stroke-miterlimit="10" stroke-linecap="round"/>
<path d="M145.594 14.0157L141.636 13.5124C141.42 13.5124 141.276 13.3685 141.204 13.1528C141.06 12.6494 140.844 12.1461 140.557 11.6427C140.485 11.4989 140.485 11.2831 140.628 11.1393L143.075 8.04719C143.219 7.83146 143.219 7.54382 143.003 7.4L139.621 4.02022C139.405 3.80449 139.117 3.80449 138.973 3.94831L135.95 6.32135C135.807 6.46517 135.591 6.46516 135.375 6.39325C134.871 6.10561 134.295 5.88988 133.719 5.67415C133.504 5.60224 133.432 5.45843 133.36 5.2427L132.856 1.43146C132.856 1.14382 132.64 1 132.352 1H127.53C127.242 1 127.026 1.21573 127.026 1.43146L126.595 5.09888C126.595 5.31461 126.451 5.45842 126.235 5.53033C125.587 5.74606 125.011 5.9618 124.435 6.24944C124.292 6.32135 124.076 6.32135 123.932 6.17753L121.053 3.94831C120.837 3.80449 120.549 3.80449 120.405 4.02022L117.023 7.4C116.807 7.61573 116.807 7.90337 116.951 8.04719L119.11 10.8517C119.254 10.9955 119.254 11.2112 119.182 11.427C118.894 12.0022 118.606 12.6494 118.39 13.2966C118.318 13.5124 118.174 13.6562 117.958 13.6562L114.432 14.0876C114.144 14.0876 114 14.3034 114 14.591V19.409C114 19.6966 114.216 19.9124 114.432 19.9124L117.958 20.3438C118.174 20.3438 118.318 20.4876 118.39 20.7034C118.606 21.3506 118.894 21.9978 119.182 22.573C119.254 22.7169 119.254 22.9326 119.11 23.1483L116.951 25.9528C116.807 26.1685 116.807 26.4562 117.023 26.6L120.405 29.9798C120.621 30.1955 120.909 30.1955 121.053 30.0517L123.932 27.8225C124.076 27.6787 124.292 27.6787 124.435 27.7506C125.011 28.0382 125.659 28.2539 126.235 28.4697C126.451 28.5416 126.595 28.6854 126.595 28.9011C126.667 29.6921 126.954 31.6337 127.026 32.5685C127.026 32.8562 127.242 33 127.53 33H132.352C132.64 33 132.856 32.7843 132.856 32.5685L133.36 28.8292C133.36 28.6135 133.504 28.4697 133.719 28.3978C134.295 28.182 134.871 27.9663 135.375 27.6787C135.519 27.6067 135.735 27.6067 135.95 27.7506L138.973 30.1236C139.189 30.2674 139.477 30.2674 139.621 30.0517L143.003 26.6719C143.219 26.4562 143.219 26.1685 143.075 26.0247L140.628 22.9326C140.485 22.7888 140.485 22.573 140.557 22.4292C140.772 21.9258 140.988 21.4225 141.204 20.8472C141.276 20.6315 141.42 20.5596 141.636 20.4876L145.522 19.9843C145.81 19.9843 145.954 19.7685 145.954 19.4809V14.6629C146.098 14.3034 145.882 14.0876 145.594 14.0157ZM129.905 22.7169C126.738 22.7169 124.148 20.1281 124.148 16.9641C124.148 13.8 126.738 11.2112 129.905 11.2112C133.072 11.2112 135.663 13.8 135.663 16.9641C135.663 20.1281 133.072 22.7169 129.905 22.7169Z" stroke="#212121" stroke-width="1.211" stroke-miterlimit="10" stroke-linecap="round"/>
</svg>
