<svg width="127" height="126" viewBox="0 0 127 126" fill="none" xmlns="http://www.w3.org/2000/svg">
<path d="M68.7017 113.992C94.353 107.847 110.165 82.0699 104.02 56.4186C97.8739 30.7672 72.0972 14.9548 46.4459 21.1006C20.7945 27.2464 4.98213 53.023 11.1279 78.6744C17.2737 104.326 43.0503 120.138 68.7017 113.992Z" stroke="#212121" stroke-width="1.211" stroke-miterlimit="10" stroke-linecap="round"/>
<path d="M57.5898 104.508C78.0156 104.508 94.5741 87.9494 94.5741 67.5236C94.5741 47.0977 78.0156 30.5393 57.5898 30.5393C37.1639 30.5393 20.6055 47.0977 20.6055 67.5236C20.6055 87.9494 37.1639 104.508 57.5898 104.508Z" stroke="#212121" stroke-width="1.211" stroke-miterlimit="10" stroke-linecap="round"/>
<path d="M57.5883 92.422C71.3396 92.422 82.4872 81.2744 82.4872 67.5231C82.4872 53.7719 71.3396 42.6243 57.5883 42.6243C43.8371 42.6243 32.6895 53.7719 32.6895 67.5231C32.6895 81.2744 43.8371 92.422 57.5883 92.422Z" stroke="#212121" stroke-width="1.211" stroke-miterlimit="10" stroke-linecap="round"/>
<path d="M60.8588 81.4126C68.5269 79.5945 73.2692 71.9044 71.4511 64.2363C69.633 56.5682 61.9429 51.8259 54.2749 53.6441C46.6068 55.4622 41.8645 63.1522 43.6826 70.8203C45.5007 78.4883 53.1908 83.2307 60.8588 81.4126Z" stroke="#212121" stroke-width="1.211" stroke-miterlimit="10" stroke-linecap="round"/>
<path d="M57.5893 72.474C60.3235 72.474 62.54 70.2576 62.54 67.5234C62.54 64.7892 60.3235 62.5728 57.5893 62.5728C54.8552 62.5728 52.6387 64.7892 52.6387 67.5234C52.6387 70.2576 54.8552 72.474 57.5893 72.474Z" stroke="#212121" stroke-width="1.211" stroke-miterlimit="10" stroke-linecap="round"/>
<path d="M57.5898 67.5235L118.454 10.0085" stroke="#212121" stroke-width="1.211" stroke-miterlimit="10" stroke-linecap="round"/>
<path d="M96.3206 31.1215L94.4277 16.852L109.717 2L111.901 15.6871L96.3206 31.1215Z" stroke="#212121" stroke-width="1.211" stroke-miterlimit="10" stroke-linecap="round"/>
<path d="M96.3203 31.1214L108.697 34.616L125.151 20.3464L111.9 15.687" stroke="#212121" stroke-width="1.211" stroke-miterlimit="10" stroke-linecap="round"/>
<path d="M104.037 8.84351L105.93 20.9289" stroke="#212121" stroke-width="1.211" stroke-miterlimit="10" stroke-linecap="round"/>
<path d="M99.0879 12.7749L100.981 25.5884" stroke="#212121" stroke-width="1.211" stroke-miterlimit="10" stroke-linecap="round"/>
<path d="M101.854 27.0444L113.357 30.2478" stroke="#212121" stroke-width="1.211" stroke-miterlimit="10" stroke-linecap="round"/>
<path d="M106.949 21.8027L119.908 25.0061" stroke="#212121" stroke-width="1.211" stroke-miterlimit="10" stroke-linecap="round"/>
</svg>
