<svg width="108" height="108" viewBox="0 0 108 108" fill="none" xmlns="http://www.w3.org/2000/svg">
<path d="M12.5652 86.6811C22.2508 98.9744 37.3382 106.797 54.1019 106.797C83.3452 106.797 107.001 83.1421 107.001 53.8988C107.001 24.6554 83.3452 1 54.1019 1C24.8585 1 1.2031 24.6554 1.2031 53.8988C1.01684 66.1921 5.3009 77.5542 12.5652 86.6811Z" stroke="#212121" stroke-width="1.211" stroke-miterlimit="10" stroke-linecap="round"/>
<path d="M54.1025 25.0277C38.2701 25.0277 25.418 37.8799 25.418 53.7122" stroke="#212121" stroke-width="1.211" stroke-miterlimit="10" stroke-linecap="round"/>
<path d="M57.6405 53.7123C57.6405 51.8497 56.1504 50.1733 54.1015 50.1733C52.2389 50.1733 50.5625 51.6634 50.5625 53.7123C50.5625 55.7612 52.0526 57.2513 54.1015 57.2513C55.9641 57.2513 57.6405 55.7612 57.6405 53.7123Z" stroke="#212121" stroke-width="1.211" stroke-miterlimit="10" stroke-linecap="round"/>
<path d="M63.4154 53.7126C63.4154 48.4972 59.3176 44.3994 54.1022 44.3994C48.8869 44.3994 44.7891 48.4972 44.7891 53.7126C44.7891 58.9279 48.8869 63.0257 54.1022 63.0257C59.1313 63.0257 63.4154 58.9279 63.4154 53.7126Z" stroke="#212121" stroke-width="1.211" stroke-miterlimit="10" stroke-linecap="round"/>
<path d="M57.2676 52.036L79.6192 34.8998" stroke="#212121" stroke-width="1.211" stroke-miterlimit="10" stroke-linecap="round"/>
<path d="M7.34961 53.7125H16.849" stroke="#212121" stroke-width="1.211" stroke-miterlimit="10" stroke-linecap="round"/>
<path d="M54.1016 6.40149V15.9009" stroke="#212121" stroke-width="1.211" stroke-miterlimit="10" stroke-linecap="round"/>
<path d="M21.1328 20.744L27.8383 27.4495" stroke="#212121" stroke-width="1.211" stroke-miterlimit="10" stroke-linecap="round"/>
<path d="M11.4473 34.7139L17.9665 37.6941" stroke="#212121" stroke-width="1.211" stroke-miterlimit="10" stroke-linecap="round"/>
<path d="M37.3379 10.1267L39.9456 16.6459" stroke="#212121" stroke-width="1.211" stroke-miterlimit="10" stroke-linecap="round"/>
<path d="M100.667 53.7125H91.168" stroke="#212121" stroke-width="1.211" stroke-miterlimit="10" stroke-linecap="round"/>
<path d="M87.0707 20.744L80.3652 27.4495" stroke="#212121" stroke-width="1.211" stroke-miterlimit="10" stroke-linecap="round"/>
<path d="M96.7555 34.7139L90.2363 37.6941" stroke="#212121" stroke-width="1.211" stroke-miterlimit="10" stroke-linecap="round"/>
<path d="M70.6799 10.1267L68.0723 16.6459" stroke="#212121" stroke-width="1.211" stroke-miterlimit="10" stroke-linecap="round"/>
<path d="M88.5607 93.5729C79.2475 85.9361 67.1404 81.2795 54.102 81.2795C40.8773 81.2795 28.7702 85.9361 19.457 93.7592" stroke="#212121" stroke-width="1.211" stroke-miterlimit="10" stroke-linecap="round"/>
<path d="M94.707 86.8672C83.7175 77.5541 69.5615 72.1525 53.9154 72.1525C38.2693 72.1525 23.927 77.7404 12.9375 87.2398" stroke="#212121" stroke-width="1.211" stroke-miterlimit="10" stroke-linecap="round"/>
</svg>
