<svg width="19" height="19" viewBox="0 0 19 19" fill="none" xmlns="http://www.w3.org/2000/svg">
<path d="M13.9488 8.5101C13.6084 8.5101 13.3393 8.23301 13.3393 7.90051C13.3393 7.6076 13.0463 6.99801 12.5555 6.4676C12.0726 5.95301 11.5422 5.65218 11.0988 5.65218C10.7584 5.65218 10.4893 5.3751 10.4893 5.0426C10.4893 4.7101 10.7663 4.43301 11.0988 4.43301C11.8905 4.43301 12.7218 4.86051 13.4501 5.62843C14.1309 6.34885 14.5663 7.24343 14.5663 7.8926C14.5663 8.23301 14.2893 8.5101 13.9488 8.5101Z" fill="#F8F8F8"/>
<path d="M16.8067 8.51043C16.4662 8.51043 16.1971 8.23334 16.1971 7.90084C16.1971 5.09043 13.9092 2.81043 11.1067 2.81043C10.7662 2.81043 10.4971 2.53334 10.4971 2.20084C10.4971 1.86834 10.7662 1.58334 11.0987 1.58334C14.5821 1.58334 17.4162 4.41751 17.4162 7.90084C17.4162 8.23334 17.1392 8.51043 16.8067 8.51043Z" fill="#F8F8F8"/>
<path d="M9.33342 11.2496L6.74467 13.8383C6.45967 13.585 6.18259 13.3238 5.91342 13.0546C5.09801 12.2313 4.36176 11.3683 3.70467 10.4658C3.05551 9.56334 2.53301 8.66084 2.15301 7.76626C1.77301 6.86376 1.58301 6.00084 1.58301 5.17751C1.58301 4.63918 1.67801 4.12459 1.86801 3.64959C2.05801 3.16668 2.35884 2.72334 2.77842 2.32751C3.28509 1.82876 3.83926 1.58334 4.42509 1.58334C4.64676 1.58334 4.86842 1.63084 5.06634 1.72584C5.27217 1.82084 5.45426 1.96334 5.59676 2.16918L7.43342 4.75793C7.57592 4.95584 7.67884 5.13793 7.75009 5.31209C7.82134 5.47834 7.86092 5.64459 7.86092 5.79501C7.86092 5.98501 7.80551 6.17501 7.69467 6.35709C7.59176 6.53918 7.44134 6.72918 7.25134 6.91918L6.64967 7.54459C6.56259 7.63168 6.52301 7.73459 6.52301 7.86126C6.52301 7.92459 6.53092 7.98001 6.54676 8.04334C6.57051 8.10668 6.59426 8.15418 6.61009 8.20168C6.75259 8.46293 6.99801 8.80334 7.34634 9.21501C7.70259 9.62668 8.08259 10.0463 8.49426 10.4658C8.77926 10.7429 9.05634 11.0121 9.33342 11.2496Z" fill="#8FC908"/>
<path d="M17.3925 14.5112C17.3925 14.7329 17.3529 14.9625 17.2738 15.1842C17.25 15.2475 17.2263 15.3108 17.1946 15.3742C17.06 15.6592 16.8859 15.9283 16.6563 16.1817C16.2684 16.6092 15.8409 16.9179 15.3579 17.1158C15.35 17.1158 15.3421 17.1237 15.3342 17.1237C14.8671 17.3137 14.3604 17.4167 13.8142 17.4167C13.0067 17.4167 12.1438 17.2267 11.2334 16.8387C10.3229 16.4508 9.41253 15.9283 8.51003 15.2712C8.20128 15.0417 7.89253 14.8121 7.59961 14.5667L10.1884 11.9779C10.41 12.1442 10.6079 12.2708 10.7742 12.3579C10.8138 12.3737 10.8613 12.3975 10.9167 12.4212C10.98 12.445 11.0434 12.4529 11.1146 12.4529C11.2492 12.4529 11.3521 12.4054 11.4392 12.3183L12.0409 11.7246C12.2388 11.5267 12.4288 11.3762 12.6109 11.2812C12.7929 11.1704 12.975 11.115 13.1729 11.115C13.3234 11.115 13.4817 11.1467 13.6559 11.2179C13.83 11.2892 14.0121 11.3921 14.21 11.5267L16.8304 13.3871C17.0363 13.5296 17.1788 13.6958 17.2659 13.8937C17.345 14.0917 17.3925 14.2896 17.3925 14.5112Z" fill="#8FC908"/>
</svg>
