<svg width="18" height="18" viewBox="0 0 18 18" fill="none" xmlns="http://www.w3.org/2000/svg">
<path d="M16.4775 13.748C16.4775 14.018 16.4175 14.2955 16.29 14.5655C16.1625 14.8355 15.9975 15.0905 15.78 15.3305C15.4125 15.7355 15.0075 16.028 14.55 16.2155C14.1 16.403 13.6125 16.5005 13.0875 16.5005C12.3225 16.5005 11.505 16.3205 10.6425 15.953C9.78 15.5855 8.9175 15.0905 8.0625 14.468C7.2 13.838 6.3825 13.1405 5.6025 12.368C4.83 11.588 4.1325 10.7705 3.51 9.91549C2.895 9.06049 2.4 8.20549 2.04 7.35799C1.68 6.50299 1.5 5.68549 1.5 4.90549C1.5 4.39549 1.59 3.90799 1.77 3.45799C1.95 3.00049 2.235 2.58049 2.6325 2.20549C3.1125 1.73299 3.6375 1.50049 4.1925 1.50049C4.4025 1.50049 4.6125 1.54549 4.8 1.63549C4.995 1.72549 5.1675 1.86049 5.3025 2.05549L7.0425 4.50799C7.1775 4.69549 7.275 4.86799 7.3425 5.03299C7.41 5.19049 7.4475 5.34799 7.4475 5.49049C7.4475 5.67049 7.395 5.85049 7.29 6.02299C7.1925 6.19549 7.05 6.37549 6.87 6.55549L6.3 7.14799C6.2175 7.23049 6.18 7.32799 6.18 7.44799C6.18 7.50799 6.1875 7.56049 6.2025 7.62049C6.225 7.68049 6.2475 7.72549 6.2625 7.77049C6.3975 8.01799 6.63 8.34049 6.96 8.73049C7.2975 9.12049 7.6575 9.51799 8.0475 9.91549C8.4525 10.313 8.8425 10.6805 9.24 11.018C9.63 11.348 9.9525 11.573 10.2075 11.708C10.245 11.723 10.29 11.7455 10.3425 11.768C10.4025 11.7905 10.4625 11.798 10.53 11.798C10.6575 11.798 10.755 11.753 10.8375 11.6705L11.4075 11.108C11.595 10.9205 11.775 10.778 11.9475 10.688C12.12 10.583 12.2925 10.5305 12.48 10.5305C12.6225 10.5305 12.7725 10.5605 12.9375 10.628C13.1025 10.6955 13.275 10.793 13.4625 10.9205L15.945 12.683C16.14 12.818 16.275 12.9755 16.3575 13.163C16.4325 13.3505 16.4775 13.538 16.4775 13.748Z" stroke="#575757" stroke-width="1.5" stroke-miterlimit="10"/>
<path d="M13.875 6.75098C13.875 6.30098 13.5225 5.61098 12.9975 5.04848C12.5175 4.53098 11.88 4.12598 11.25 4.12598" stroke="#575757" stroke-width="1.5" stroke-linecap="round" stroke-linejoin="round"/>
<path d="M16.5 6.75049C16.5 3.84799 14.1525 1.50049 11.25 1.50049" stroke="#575757" stroke-width="1.5" stroke-linecap="round" stroke-linejoin="round"/>
</svg>
