<svg width="75" height="75" viewBox="0 0 75 75" fill="none" xmlns="http://www.w3.org/2000/svg">
<path d="M43.2656 49.1276C43.2746 49.1118 43.2829 49.0955 43.2907 49.079C43.8413 47.9217 45.0485 45.9783 46.9421 45.9644L61.7162 45.8444C61.633 45.8365 61.5489 45.8323 61.4638 45.8323H61.443L45.1843 45.9641C43.2899 45.9788 42.0835 47.9214 41.5329 49.0787C41.5251 49.0952 41.5167 49.1115 41.5078 49.1273L38.6221 54.3292L40.3875 54.3156L43.2656 49.1276Z" fill="#8FC908"/>
<path d="M39.8373 70.5121L39.8213 68.1129L40.8361 68.1052V68.0916L38.0635 68.1129L38.0794 70.5121C38.0801 70.5172 38.0825 70.522 38.0862 70.5256C38.0899 70.5292 38.0948 70.5315 38.1 70.532L39.8406 70.5191C39.8395 70.5167 39.8373 70.5145 39.8373 70.5121Z" fill="#8FC908"/>
<path d="M38.3329 66.2944C38.1653 66.2254 38.0218 66.1085 37.9202 65.9584C37.8186 65.8083 37.7634 65.6316 37.7616 65.4504C37.7612 65.404 37.7572 65.3577 37.7496 65.3119L36.6442 58.6992C36.6442 58.651 36.6467 58.603 36.6495 58.5553C36.7187 57.4016 37.487 56.1762 38.7792 56.0924C38.8133 56.0966 38.8475 56.0988 38.8818 56.0991H38.8885L69.6683 55.8606C69.6004 55.8542 69.5312 55.8496 69.4589 55.8496C69.4513 55.8496 69.4443 55.8496 69.4355 55.8496C69.4302 55.8496 69.4251 55.8496 69.42 55.8488L37.131 56.0991H37.1243C37.09 56.0988 37.0558 56.0966 37.0217 56.0924C35.7294 56.1762 34.9611 57.4016 34.892 58.5553C34.8892 58.603 34.8875 58.651 34.8867 58.6992L35.9921 65.3119C35.9997 65.3577 36.0037 65.404 36.0041 65.4504C36.0059 65.6316 36.0611 65.8083 36.1627 65.9584C36.2643 66.1085 36.4078 66.2254 36.5754 66.2944C36.6877 66.3423 36.8088 66.3659 36.9309 66.3637L38.5317 66.3514C38.4635 66.34 38.3968 66.3209 38.3329 66.2944Z" fill="#8FC908"/>
<path d="M11.3199 59.1277L28.7679 71.0275C28.9139 71.1271 29.0864 71.1803 29.2631 71.1803C29.4398 71.1803 29.6123 71.1271 29.7583 71.0275L35.7845 66.9176C35.8799 66.8526 35.9615 66.7694 36.0247 66.6728C36.0879 66.5762 36.1315 66.4681 36.1529 66.3547C36.1743 66.2413 36.1732 66.1248 36.1496 66.0118C36.126 65.8988 36.0804 65.7916 36.0154 65.6962C35.9503 65.6009 35.8672 65.5193 35.7706 65.456C35.674 65.3928 35.5659 65.3493 35.4525 65.3278C35.3391 65.3064 35.2226 65.3075 35.1096 65.3311C34.9966 65.3547 34.8893 65.4003 34.794 65.4654L29.2632 69.2376L12.3103 57.6753C7.12954 54.1431 3.22266 46.7537 3.22266 40.4869V17.323L29.2657 4.56815L55.3037 17.357V40.4869C55.2929 41.9225 55.1094 43.3516 54.7572 44.7434C54.7288 44.8557 54.7229 44.9726 54.7398 45.0872C54.7568 45.2018 54.7962 45.312 54.8559 45.4113C54.9156 45.5107 54.9943 45.5972 55.0875 45.666C55.1808 45.7348 55.2867 45.7844 55.3992 45.8121C55.5118 45.8398 55.6286 45.845 55.7432 45.8274C55.8577 45.8097 55.9676 45.7696 56.0666 45.7093C56.1655 45.649 56.2516 45.5698 56.3198 45.4761C56.388 45.3824 56.437 45.2762 56.464 45.1635C56.8502 43.6343 57.0509 42.0641 57.0615 40.4869V16.8094C57.0615 16.6452 57.0155 16.4842 56.9287 16.3448C56.8418 16.2053 56.7176 16.093 56.5702 16.0206L29.6539 2.80038C29.5334 2.74121 29.401 2.71045 29.2668 2.71045C29.1326 2.71045 29.0001 2.74121 28.8797 2.80038L1.95718 15.9854C1.80947 16.0578 1.68503 16.1701 1.598 16.3097C1.51096 16.4492 1.46483 16.6104 1.46484 16.7748V40.4869C1.46484 47.2834 5.70176 55.2979 11.3199 59.1277Z" fill="#052328"/>
<path d="M47.7778 44.7518C47.7365 44.8602 47.717 44.9757 47.7206 45.0917C47.7241 45.2077 47.7506 45.3218 47.7985 45.4275C47.8464 45.5332 47.9147 45.6284 47.9996 45.7075C48.0844 45.7867 48.1841 45.8482 48.2929 45.8887C48.4017 45.9291 48.5174 45.9476 48.6333 45.943C48.7493 45.9385 48.8632 45.9111 48.9685 45.8623C49.0737 45.8135 49.1683 45.7444 49.2468 45.6589C49.3252 45.5734 49.3859 45.4732 49.4254 45.3641C50.0928 43.5682 50.4454 41.7752 50.4454 40.181V21.1845C50.4454 21.0202 50.3993 20.8592 50.3125 20.7198C50.2256 20.5804 50.1014 20.4681 49.954 20.3957L29.6502 10.4233C29.5297 10.3642 29.3974 10.3335 29.2632 10.3335C29.129 10.3335 28.9966 10.3642 28.8762 10.4233L8.57241 20.3668C8.42473 20.4391 8.3003 20.5514 8.21327 20.691C8.12624 20.8305 8.08009 20.9916 8.08008 21.1561V40.1807C8.08008 44.9502 11.2881 51.0179 15.2317 53.7063L28.7669 62.9379C28.9129 63.0375 29.0854 63.0907 29.2621 63.0907C29.4388 63.0907 29.6113 63.0375 29.7573 62.9379L34.5318 59.6817C34.7244 59.5504 34.8569 59.3479 34.9002 59.1189C34.9435 58.8898 34.894 58.6529 34.7626 58.4604C34.6313 58.2678 34.4288 58.1353 34.1998 58.092C33.9707 58.0487 33.7338 58.0981 33.5413 58.2295L29.2627 61.1482L16.2221 52.2544C12.7616 49.8951 9.83789 44.3662 9.83789 40.181V21.7042L29.2617 12.1911L48.6872 21.732V40.1807C48.6876 41.5692 48.3729 43.1498 47.7778 44.7518Z" fill="#052328"/>
<path d="M35.5588 31.9344L27.1875 39.6019L23.02 35.083C22.8614 34.9139 22.6425 34.8143 22.4108 34.8059C22.1792 34.7975 21.9536 34.8809 21.7831 35.038C21.6127 35.1952 21.5113 35.4133 21.5009 35.6448C21.4905 35.8764 21.572 36.1027 21.7277 36.2745L26.4893 41.4379C26.647 41.6089 26.866 41.7104 27.0984 41.7202C27.3308 41.73 27.5577 41.6473 27.7292 41.4902L36.7462 33.2311C36.8321 33.1534 36.9018 33.0594 36.9513 32.9546C37.0008 32.8498 37.029 32.7363 37.0345 32.6205C37.0399 32.5048 37.0224 32.3891 36.9829 32.2801C36.9435 32.1712 36.8829 32.0711 36.8046 31.9856C36.7263 31.9002 36.6319 31.8311 36.5268 31.7822C36.4217 31.7334 36.308 31.7059 36.1922 31.7012C36.0764 31.6965 35.9608 31.7147 35.8521 31.7548C35.7434 31.795 35.6437 31.8562 35.5588 31.935V31.9344Z" fill="#052328"/>
<path d="M39.5796 59.2168H39.5591C38.8345 59.224 38.1422 59.5176 37.6333 60.0334C37.1244 60.5493 36.8402 61.2455 36.8428 61.9701C36.8454 62.6948 37.1345 63.3889 37.6471 63.9011C38.1597 64.4133 38.8541 64.7019 39.5788 64.704H39.5996C39.9598 64.7026 40.3163 64.6304 40.6487 64.4913C40.9811 64.3522 41.2828 64.149 41.5366 63.8934C41.7904 63.6377 41.9914 63.3345 42.1281 63.0011C42.2647 62.6678 42.3344 62.3108 42.3331 61.9505C42.3318 61.5902 42.2595 61.2337 42.1205 60.9014C41.9814 60.569 41.7782 60.2673 41.5225 60.0135C41.2668 59.7596 40.9637 59.5586 40.6303 59.422C40.2969 59.2853 39.9399 59.2156 39.5796 59.2169V59.2168ZM39.5867 62.946H39.5796C39.3202 62.9439 39.072 62.8396 38.8889 62.6558C38.7058 62.4719 38.6026 62.2232 38.6017 61.9638C38.6007 61.7043 38.7021 61.4549 38.8839 61.2697C39.0656 61.0845 39.313 60.9784 39.5725 60.9745H39.5799C39.8414 60.9735 40.0924 61.0765 40.278 61.2606C40.4635 61.4448 40.5683 61.6951 40.5692 61.9566C40.5702 62.218 40.4672 62.4691 40.2831 62.6546C40.0989 62.8401 39.8485 62.9449 39.5871 62.9458L39.5867 62.946Z" fill="#052328"/>
<path d="M67.1311 59.0016H67.1107C66.3831 59.0042 65.6863 59.2957 65.1736 59.812C64.661 60.3284 64.3744 61.0272 64.377 61.7548C64.3796 62.4825 64.6711 63.1793 65.1874 63.6919C65.7037 64.2046 66.4026 64.4912 67.1302 64.4886H67.151C67.8784 64.4824 68.5736 64.188 69.0842 63.6699C69.5948 63.1518 69.879 62.4523 69.8745 61.7249C69.8682 61.0011 69.5765 60.309 69.0628 59.7991C68.5491 59.2891 67.8549 59.0025 67.1311 59.0016ZM67.1381 62.7308H67.1307C66.8692 62.7317 66.6181 62.6288 66.4326 62.4446C66.2471 62.2604 66.1424 62.01 66.1414 61.7486C66.1405 61.4872 66.2435 61.2361 66.4277 61.0506C66.6119 60.8651 66.8622 60.7603 67.1236 60.7594H67.1309C67.3924 60.7584 67.6435 60.8614 67.829 61.0456C68.0145 61.2297 68.1193 61.4801 68.1202 61.7415C68.1212 62.0029 68.0182 62.254 67.8341 62.4395C67.6499 62.6251 67.3995 62.7298 67.1381 62.7308Z" fill="#052328"/>
<path d="M69.9804 54.1295L66.6405 48.0809C65.5762 46.2059 64.0268 44.057 61.4288 44.0747L45.17 44.2065C43.0631 44.2221 41.2128 45.6749 39.9569 48.2986L36.5899 54.3695C34.7099 54.6519 33.2636 56.3157 33.1357 58.4504C33.1292 58.5601 33.1262 58.6701 33.1271 58.7781C33.1276 58.8243 33.1316 58.8704 33.1391 58.9161L34.2464 65.5398C34.265 66.126 34.4768 66.6895 34.8489 67.1428C35.221 67.5961 35.7326 67.9136 36.3039 68.046L36.3205 70.5241C36.3238 70.9936 36.5126 71.4428 36.8458 71.7736C37.179 72.1044 37.6295 72.2901 38.0991 72.2901H38.1127L40.8442 72.2699C41.3158 72.2664 41.7666 72.0758 42.0977 71.7399C42.4287 71.4041 42.6128 70.9505 42.6095 70.4789L42.5935 68.0782L64.2353 67.9102L64.2512 70.3061C64.2546 70.7755 64.4434 71.2245 64.7765 71.5552C65.1096 71.886 65.5599 72.0717 66.0293 72.0718H66.0427L68.7742 72.0517C69.2456 72.0477 69.6962 71.8569 70.0271 71.5211C70.3581 71.1854 70.5424 70.7321 70.5397 70.2607L70.523 67.7704C71.0789 67.6178 71.5709 67.29 71.9258 66.8356C72.2807 66.3812 72.4797 65.8245 72.4932 65.2481L73.5247 58.6099C73.532 58.5631 73.5355 58.5159 73.5351 58.4685C73.5339 57.3539 73.1291 56.2775 72.3956 55.4382C71.7749 54.7248 70.917 54.2599 69.9804 54.1295ZM41.5079 49.1277C41.5169 49.1119 41.5252 49.0956 41.533 49.079C42.0836 47.9218 43.2908 45.9784 45.1844 45.9645L61.4431 45.8327H61.4639C62.7814 45.8327 63.8739 46.7663 65.1073 48.9399L67.9576 54.1027L65.3187 54.1231C65.1333 53.0535 64.5762 52.0838 63.7457 51.3847C62.9152 50.6857 61.8646 50.3023 60.7791 50.3022H60.7442C59.6521 50.3101 58.5983 50.7057 57.7707 51.4184C56.9431 52.1311 56.3956 53.1146 56.2258 54.1935L38.6228 54.3299L41.5079 49.1277ZM63.519 54.1374L58.0243 54.1799C58.1838 53.5755 58.5379 53.0405 59.0318 52.6574C59.5257 52.2743 60.1321 52.0644 60.7571 52.0603H60.7784C61.3988 52.0614 62.002 52.2647 62.4966 52.6394C62.9911 53.0141 63.35 53.5398 63.519 54.1369V54.1374ZM40.8517 70.4911C40.8512 70.4964 40.8489 70.5013 40.8452 70.5051C40.8415 70.5088 40.8366 70.5112 40.8313 70.5118L38.0997 70.532C38.0945 70.5315 38.0896 70.5292 38.0859 70.5256C38.0822 70.522 38.0798 70.5172 38.0792 70.512L38.0632 68.1129L40.8358 68.0915L40.8517 70.4911ZM68.7613 70.2939L66.0298 70.314C66.0247 70.3135 66.0198 70.3113 66.0161 70.3077C66.0123 70.3041 66.0099 70.2994 66.0092 70.2942L65.9932 67.8969L68.7659 67.8753L68.782 70.2728C68.782 70.2784 68.7798 70.2837 68.776 70.2876C68.7721 70.2915 68.7669 70.2938 68.7613 70.2939ZM70.7464 65.0409C70.7391 65.0877 70.7356 65.135 70.7359 65.1824C70.7364 65.4261 70.6406 65.6601 70.4695 65.8336C70.2985 66.0072 70.0659 66.1062 69.8222 66.1093L36.9303 66.3638C36.8082 66.366 36.6871 66.3424 36.5748 66.2945C36.4072 66.2254 36.2636 66.1086 36.162 65.9585C36.0604 65.8084 36.0053 65.6317 36.0035 65.4504C36.0031 65.404 35.9991 65.3578 35.9915 65.312L34.8861 58.6993C34.8861 58.6511 34.8886 58.603 34.8914 58.5554C34.9605 57.4017 35.7288 56.1762 37.0211 56.0924C37.0551 56.0966 37.0894 56.0989 37.1236 56.0992H37.1304L69.4189 55.849C69.424 55.849 69.4292 55.8498 69.4344 55.8498H69.4579C69.7665 55.8506 70.0714 55.9183 70.3513 56.0483C70.6312 56.1783 70.8796 56.3676 71.0793 56.6029C71.5136 57.1083 71.7596 57.7482 71.7758 58.4143L70.7464 65.0409Z" fill="#052328"/>
<path d="M47.8713 59.4491H47.8647C47.7493 59.4499 47.6351 59.4735 47.5288 59.5185C47.4225 59.5634 47.3261 59.6289 47.2451 59.7111C47.1641 59.7933 47.1 59.8907 47.0566 59.9976C47.0133 60.1046 46.9914 60.219 46.9922 60.3344L47.0048 62.0527C47.0065 62.2847 47.0999 62.5066 47.2645 62.67C47.4291 62.8335 47.6517 62.9252 47.8837 62.9252H47.8903C48.0057 62.9243 48.1199 62.9008 48.2262 62.8558C48.3325 62.8109 48.4289 62.7454 48.5099 62.6632C48.5909 62.581 48.655 62.4836 48.6983 62.3767C48.7417 62.2697 48.7636 62.1552 48.7628 62.0398L48.7502 60.3223C48.7487 60.0902 48.6554 59.8681 48.4907 59.7045C48.3261 59.5409 48.1034 59.4491 47.8713 59.4491Z" fill="#052328"/>
<path d="M58.8347 59.3318H58.8277C58.7123 59.3326 58.5981 59.3562 58.4918 59.4011C58.3855 59.4461 58.289 59.5115 58.208 59.5937C58.127 59.6759 58.0629 59.7733 58.0195 59.8803C57.9762 59.9872 57.9543 60.1017 57.9551 60.2171L57.9677 61.9354C57.9694 62.1674 58.0627 62.3893 58.2274 62.5527C58.392 62.7162 58.6146 62.8079 58.8466 62.8079H58.8532C58.9686 62.807 59.0827 62.7835 59.1891 62.7385C59.2954 62.6936 59.3918 62.6281 59.4728 62.5459C59.5538 62.4637 59.6178 62.3663 59.6612 62.2593C59.7046 62.1524 59.7265 62.0379 59.7257 61.9225L59.7131 60.2042C59.7114 59.9724 59.6181 59.7506 59.4536 59.5871C59.2891 59.4237 59.0666 59.3319 58.8347 59.3318Z" fill="#052328"/>
<path d="M51.5256 59.4022H51.5188C51.2857 59.404 51.0629 59.4982 50.8993 59.6642C50.7357 59.8303 50.6448 60.0545 50.6465 60.2876L50.6593 62.0058C50.661 62.2378 50.7543 62.4597 50.9189 62.6232C51.0836 62.7866 51.3062 62.8783 51.5382 62.8783H51.5449C51.6603 62.8774 51.7744 62.8538 51.8807 62.8089C51.987 62.7639 52.0835 62.6984 52.1645 62.6162C52.2455 62.534 52.3095 62.4366 52.3528 62.3296C52.3962 62.2227 52.4181 62.1082 52.4172 61.9928L52.4045 60.2745C52.4027 60.0426 52.3094 59.8207 52.1447 59.6573C51.9801 59.4939 51.7575 59.4022 51.5256 59.4022Z" fill="#8FC908"/>
<path d="M55.1808 59.3555H55.1741C55.0587 59.3563 54.9446 59.3799 54.8383 59.4249C54.7319 59.4699 54.6355 59.5353 54.5545 59.6175C54.4735 59.6998 54.4095 59.7971 54.3662 59.9041C54.3228 60.0111 54.3009 60.1255 54.3018 60.241L54.3145 61.9592C54.3163 62.1912 54.4096 62.413 54.5743 62.5764C54.7389 62.7399 54.9615 62.8315 55.1934 62.8315H55.2002C55.4332 62.8298 55.6561 62.7355 55.8197 62.5695C55.9833 62.4035 56.0742 62.1793 56.0725 61.9462L56.0597 60.2279C56.058 59.9959 55.9647 59.774 55.8 59.6106C55.6354 59.4472 55.4128 59.3555 55.1808 59.3555Z" fill="#8FC908"/>
</svg>
