<svg width="18" height="18" viewBox="0 0 18 18" fill="none" xmlns="http://www.w3.org/2000/svg">
<path d="M15.0297 5.11477L10.7097 2.09227C9.53219 1.26727 7.72469 1.31227 6.59219 2.18977L2.83469 5.12227C2.08469 5.70727 1.49219 6.90727 1.49219 7.85227V13.0273C1.49219 14.9398 3.04469 16.4998 4.95719 16.4998H13.0422C14.9547 16.4998 16.5072 14.9473 16.5072 13.0348V7.94977C16.5072 6.93727 15.8547 5.69227 15.0297 5.11477ZM12.6597 10.0498C12.6597 10.3423 12.4272 10.5748 12.1347 10.5748C11.8422 10.5748 11.6097 10.3423 11.6097 10.0498V9.91477L9.56969 11.9548C9.45719 12.0673 9.30719 12.1198 9.14969 12.1048C8.99969 12.0898 8.85719 11.9998 8.77469 11.8723L8.00969 10.7323L6.22469 12.5173C6.11969 12.6223 5.99219 12.6673 5.85719 12.6673C5.72219 12.6673 5.58719 12.6148 5.48969 12.5173C5.28719 12.3148 5.28719 11.9848 5.48969 11.7748L7.72469 9.53977C7.83719 9.42727 7.98719 9.37477 8.14469 9.38977C8.30219 9.40477 8.44469 9.48727 8.52719 9.62227L9.29219 10.7623L10.8747 9.17977H10.7397C10.4472 9.17977 10.2147 8.94727 10.2147 8.65477C10.2147 8.36227 10.4472 8.12977 10.7397 8.12977H12.1347C12.2022 8.12977 12.2697 8.14477 12.3372 8.16727C12.4647 8.21977 12.5697 8.32477 12.6222 8.45227C12.6522 8.51977 12.6597 8.58727 12.6597 8.65477V10.0498Z" fill="white"/>
</svg>
