<svg width="18" height="18" viewBox="0 0 18 18" fill="none" xmlns="http://www.w3.org/2000/svg">
<path d="M6.03711 7.60461V8.47461H8.48211V6.03711H7.61211C6.74211 6.03711 6.03711 6.74211 6.03711 7.60461Z" fill="white"/>
<path d="M6.03711 10.3954C6.03711 11.2579 6.74211 11.9629 7.60461 11.9629H8.47461V9.52539H6.03711V10.3954Z" fill="white"/>
<path d="M9.52539 11.9629H10.3954C11.2579 11.9629 11.9629 11.2579 11.9629 10.3954V9.52539H9.52539V11.9629Z" fill="white"/>
<path d="M12.1425 1.5H5.8575C3.1275 1.5 1.5 3.1275 1.5 5.8575V12.135C1.5 14.8725 3.1275 16.5 5.8575 16.5H12.135C14.865 16.5 16.4925 14.8725 16.4925 12.1425V5.8575C16.5 3.1275 14.8725 1.5 12.1425 1.5ZM13.0125 10.395C13.0125 11.835 11.835 13.0125 10.395 13.0125H7.605C6.165 13.0125 4.9875 11.8425 4.9875 10.395V7.605C4.9875 6.165 6.165 4.9875 7.605 4.9875H10.395C11.835 4.9875 13.0125 6.1575 13.0125 7.605V10.395Z" fill="white"/>
<path d="M10.3954 6.03711H9.52539V8.48211H11.9704V7.61211C11.9629 6.74211 11.2579 6.03711 10.3954 6.03711Z" fill="white"/>
</svg>
