<svg width="32" height="32" viewBox="0 0 32 32" fill="none" xmlns="http://www.w3.org/2000/svg">
<path d="M29.3327 29.3333H2.66602C2.11935 29.3333 1.66602 28.88 1.66602 28.3333C1.66602 27.7866 2.11935 27.3333 2.66602 27.3333H29.3327C29.8794 27.3333 30.3327 27.7866 30.3327 28.3333C30.3327 28.88 29.8794 29.3333 29.3327 29.3333Z" fill="white"/>
<path d="M13 5.33335V29.3334H19V5.33335C19 3.86669 18.4 2.66669 16.6 2.66669H15.4C13.6 2.66669 13 3.86669 13 5.33335Z" fill="white"/>
<path opacity="0.4" d="M4 13.3334V29.3334H9.33333V13.3334C9.33333 11.8667 8.8 10.6667 7.2 10.6667H6.13333C4.53333 10.6667 4 11.8667 4 13.3334Z" fill="white"/>
<path opacity="0.4" d="M22.666 20V29.3333H27.9993V20C27.9993 18.5333 27.466 17.3333 25.866 17.3333H24.7993C23.1993 17.3333 22.666 18.5333 22.666 20Z" fill="white"/>
</svg>
