<svg width="32" height="32" viewBox="0 0 32 32" fill="none" xmlns="http://www.w3.org/2000/svg">
<path d="M27.9587 21.3333H24.0387C22.3454 21.3333 21.332 22.3466 21.332 24.04V27.96C21.332 29.6533 22.3454 30.6666 24.0387 30.6666H27.9587C29.652 30.6666 30.6654 29.6533 30.6654 27.96V24.04C30.6654 22.3466 29.652 21.3333 27.9587 21.3333ZM28.8387 24.6L25.6787 28.2933C25.5587 28.44 25.372 28.5333 25.1854 28.5333C25.172 28.5333 25.172 28.5333 25.1587 28.5333C24.972 28.5333 24.7987 28.4666 24.6654 28.3333L23.212 26.8933C22.9454 26.6266 22.9454 26.1866 23.212 25.92C23.4787 25.6533 23.9187 25.64 24.1854 25.92L25.1187 26.84L27.7854 23.72C28.0387 23.4266 28.4654 23.4 28.7587 23.64C29.052 23.88 29.0787 24.32 28.8387 24.6Z" fill="#E8FBFF"/>
<path opacity="0.4" d="M21.3327 27.96V24.04C21.3327 22.3467 22.346 21.3333 24.0393 21.3333H27.9593C28.4927 21.3333 28.946 21.44 29.3327 21.6267C29.3327 21.6133 29.3327 21.6 29.3327 21.5733V10.4133C29.3327 5.55999 26.4393 2.66666 21.586 2.66666H10.4127C5.55935 2.66666 2.66602 5.55999 2.66602 10.4133V21.5733C2.66602 26.44 5.55935 29.3333 10.4127 29.3333H21.5727C21.586 29.3333 21.5993 29.3333 21.626 29.3333C21.4393 28.9467 21.3327 28.4933 21.3327 27.96Z" fill="white"/>
<path d="M9.33203 19C8.78536 19 8.33203 18.5467 8.33203 18V14C8.33203 13.4533 8.78536 13 9.33203 13C9.8787 13 10.332 13.4533 10.332 14V18C10.332 18.5467 9.8787 19 9.33203 19Z" fill="#E8FBFF"/>
<path d="M16 19C15.4533 19 15 18.5467 15 18V14C15 13.4533 15.4533 13 16 13C16.5467 13 17 13.4533 17 14V18C17 18.5467 16.5467 19 16 19Z" fill="#E8FBFF"/>
<path d="M22.666 19C22.1193 19 21.666 18.5467 21.666 18V14C21.666 13.4533 22.1193 13 22.666 13C23.2127 13 23.666 13.4533 23.666 14V18C23.666 18.5467 23.2127 19 22.666 19Z" fill="#E8FBFF"/>
</svg>
