<svg width="30" height="24" viewBox="0 0 30 24" fill="none" xmlns="http://www.w3.org/2000/svg">
<g clip-path="url(#clip0_2163_1606)">
<path d="M17.5072 15.5364C16.7608 16.0569 15.8938 16.3321 15 16.3321C14.1062 16.3321 13.2393 16.0569 12.4929 15.5364L0.199746 6.96243C0.131543 6.91486 0.0650977 6.86527 0 6.81427V20.8636C0 22.4744 1.24951 23.7528 2.7617 23.7528H27.2382C28.778 23.7528 29.9999 22.4456 29.9999 20.8636V6.81421C29.9347 6.86533 29.8682 6.91505 29.7998 6.96267L17.5072 15.5364Z" fill="#2029BD"/>
<path d="M1.1748 5.43234L13.4679 14.0063C13.9333 14.3309 14.4666 14.4932 14.9999 14.4932C15.5333 14.4932 16.0667 14.3309 16.5321 14.0063L28.8252 5.43234C29.5608 4.91958 30 4.0614 30 3.13519C30 1.54261 28.7615 0.247009 27.2392 0.247009H2.76076C1.2385 0.247071 0 1.54267 0 3.13672C0 4.0614 0.439219 4.91958 1.1748 5.43234Z" fill="#2029BD"/>
</g>
<defs>
<clipPath id="clip0_2163_1606">
<rect width="30" height="24" fill="white"/>
</clipPath>
</defs>
</svg>
