<svg width="28" height="28" viewBox="0 0 28 28" fill="none" xmlns="http://www.w3.org/2000/svg">
<path d="M21.0466 15.8084C20.5566 16.2867 20.2766 16.9751 20.3466 17.7101C20.4516 18.9701 21.6066 19.8917 22.8666 19.8917H25.0833V21.2801C25.0833 23.6951 23.1116 25.6667 20.6966 25.6667H7.30329C4.88829 25.6667 2.91663 23.6951 2.91663 21.2801V13.4284C2.91663 11.0134 4.88829 9.04175 7.30329 9.04175H20.6966C23.1116 9.04175 25.0833 11.0134 25.0833 13.4284V15.1084H22.7266C22.0733 15.1084 21.4783 15.3651 21.0466 15.8084Z" fill="#FF5000"/>
<path d="M17.325 4.60823V9.04155H7.30329C4.88829 9.04155 2.91663 11.0132 2.91663 13.4282V9.14658C2.91663 7.75825 3.76829 6.52153 5.06329 6.03153L14.3266 2.53153C15.7733 1.99487 17.325 3.05657 17.325 4.60823Z" fill="#131217"/>
<path d="M26.32 16.2983V18.7018C26.32 19.3434 25.8067 19.8684 25.1534 19.8917H22.8667C21.6067 19.8917 20.4517 18.97 20.3467 17.71C20.2767 16.975 20.5567 16.2867 21.0467 15.8084C21.4784 15.365 22.0734 15.1084 22.7267 15.1084H25.1534C25.8067 15.1317 26.32 15.6567 26.32 16.2983Z" fill="#131217"/>
<path d="M16.3333 14.875H8.16663C7.68829 14.875 7.29163 14.4783 7.29163 14C7.29163 13.5217 7.68829 13.125 8.16663 13.125H16.3333C16.8116 13.125 17.2083 13.5217 17.2083 14C17.2083 14.4783 16.8116 14.875 16.3333 14.875Z" fill="#131217"/>
</svg>
