<svg width="36" height="36" viewBox="0 0 36 36" fill="none" xmlns="http://www.w3.org/2000/svg">
<path opacity="0.4" d="M27 4.5H9C5.685 4.5 3 7.17 3 10.455V25.545C3 28.83 5.685 31.5 9 31.5H27C30.315 31.5 33 28.83 33 25.545V10.455C33 7.17 30.315 4.5 27 4.5Z" fill="#1821BB"/>
<path d="M28.5 13.125H21C20.385 13.125 19.875 12.615 19.875 12C19.875 11.385 20.385 10.875 21 10.875H28.5C29.115 10.875 29.625 11.385 29.625 12C29.625 12.615 29.115 13.125 28.5 13.125Z" fill="#E8FBFF"/>
<path d="M28.5 19.125H22.5C21.885 19.125 21.375 18.615 21.375 18C21.375 17.385 21.885 16.875 22.5 16.875H28.5C29.115 16.875 29.625 17.385 29.625 18C29.625 18.615 29.115 19.125 28.5 19.125Z" fill="#E8FBFF"/>
<path d="M28.5 25.125H25.5C24.885 25.125 24.375 24.615 24.375 24C24.375 23.385 24.885 22.875 25.5 22.875H28.5C29.115 22.875 29.625 23.385 29.625 24C29.625 24.615 29.115 25.125 28.5 25.125Z" fill="#E8FBFF"/>
<path d="M12.7502 17.685C14.6638 17.685 16.2152 16.1337 16.2152 14.22C16.2152 12.3063 14.6638 10.755 12.7502 10.755C10.8365 10.755 9.28516 12.3063 9.28516 14.22C9.28516 16.1337 10.8365 17.685 12.7502 17.685Z" fill="#E8FBFF"/>
<path d="M13.9503 19.665C13.1553 19.59 12.3303 19.59 11.5353 19.665C9.01528 19.905 6.99028 21.9 6.75028 24.42C6.73528 24.63 6.79528 24.84 6.94528 24.99C7.09528 25.14 7.29028 25.245 7.50028 25.245H18.0003C18.2103 25.245 18.4203 25.155 18.5553 25.005C18.6903 24.855 18.7653 24.645 18.7503 24.435C18.4953 21.9 16.4853 19.905 13.9503 19.665Z" fill="#E8FBFF"/>
</svg>
