<svg width="28" height="28" viewBox="0 0 28 28" fill="none" xmlns="http://www.w3.org/2000/svg">
<path d="M18.4107 2.33331H9.59065C5.18065 2.33331 4.08398 3.51165 4.08398 8.21331V21.35C4.08398 24.4533 5.78732 25.1883 7.85232 22.9716L7.86398 22.96C8.82065 21.945 10.279 22.0266 11.1073 23.135L12.2857 24.71C13.2307 25.9583 14.759 25.9583 15.704 24.71L16.8823 23.135C17.7223 22.015 19.1807 21.9333 20.1373 22.96C22.214 25.1766 23.9057 24.4416 23.9057 21.3383V8.21331C23.9173 3.51165 22.8207 2.33331 18.4107 2.33331ZM9.07732 14C8.43565 14 7.91065 13.475 7.91065 12.8333C7.91065 12.1916 8.43565 11.6666 9.07732 11.6666C9.71899 11.6666 10.244 12.1916 10.244 12.8333C10.244 13.475 9.71899 14 9.07732 14ZM9.07732 9.33331C8.43565 9.33331 7.91065 8.80831 7.91065 8.16665C7.91065 7.52498 8.43565 6.99998 9.07732 6.99998C9.71899 6.99998 10.244 7.52498 10.244 8.16665C10.244 8.80831 9.71899 9.33331 9.07732 9.33331ZM18.9357 13.7083H12.519C12.0407 13.7083 11.644 13.3116 11.644 12.8333C11.644 12.355 12.0407 11.9583 12.519 11.9583H18.9357C19.414 11.9583 19.8107 12.355 19.8107 12.8333C19.8107 13.3116 19.414 13.7083 18.9357 13.7083ZM18.9357 9.04165H12.519C12.0407 9.04165 11.644 8.64498 11.644 8.16665C11.644 7.68831 12.0407 7.29165 12.519 7.29165H18.9357C19.414 7.29165 19.8107 7.68831 19.8107 8.16665C19.8107 8.64498 19.414 9.04165 18.9357 9.04165Z" fill="#2029BD"/>
</svg>
