<svg width="32" height="32" viewBox="0 0 32 32" fill="none" xmlns="http://www.w3.org/2000/svg">
<path opacity="0.4" d="M30.1663 10.0642V20.4767C29.7555 20.2784 29.3022 20.1367 28.7922 20.0517L28.353 19.9809L27.9847 19.2159C27.2055 17.6292 25.9305 16.7084 24.4997 16.7084C23.0688 16.7084 21.7939 17.6292 21.0147 19.2159L20.6322 19.9809L20.2072 20.0517C18.5213 20.335 17.303 21.27 16.8638 22.6017C16.4388 23.9475 16.878 25.4209 18.0822 26.6392L18.5213 27.0784L18.4788 27.2484C18.1955 28.5092 18.3089 29.4725 18.578 30.1667H10.0638C4.90717 30.1667 1.83301 27.0925 1.83301 21.9359V10.0642C1.83301 4.90754 4.90717 1.83337 10.0638 1.83337H21.9355C27.0922 1.83337 30.1663 4.90754 30.1663 10.0642Z" fill="#1821BB"/>
<path d="M26.0862 20.165L26.5395 21.0858C26.7662 21.5391 27.347 21.9641 27.8287 22.0491L28.4379 22.1483C30.2937 22.46 30.7187 23.82 29.4012 25.1516L28.8345 25.7183C28.452 26.1008 28.2537 26.8375 28.3671 27.3758L28.4379 27.7158C28.9479 29.9541 27.7579 30.8183 25.817 29.6425L25.4062 29.3875C24.9104 29.09 24.0887 29.09 23.5929 29.3875L23.1821 29.6425C21.2271 30.8183 20.0512 29.9541 20.5612 27.7158L20.632 27.3758C20.7454 26.8516 20.547 26.1008 20.1645 25.7183L19.5979 25.1516C18.2804 23.8058 18.7054 22.46 20.5612 22.1483L21.1704 22.0491C21.6662 21.9641 22.2329 21.5391 22.4595 21.0858L22.9129 20.165C23.7912 18.3941 25.2079 18.3941 26.0862 20.165Z" fill="#E8FBFF"/>
<path fill-rule="evenodd" clip-rule="evenodd" d="M21.8505 10.2161C22.3143 10.5756 22.3988 11.243 22.0393 11.7068L18.7605 15.9365C17.9177 17.0024 16.3639 17.1967 15.2799 16.3591L15.2725 16.3534L12.6848 14.3172C12.525 14.1957 12.302 14.2259 12.1806 14.3826C12.1805 14.3827 12.1807 14.3824 12.1806 14.3826L8.80958 18.7592C8.45151 19.2241 7.78437 19.3107 7.31948 18.9526C6.85459 18.5945 6.768 17.9274 7.12607 17.4625L10.4988 13.0837C11.3401 11.9948 12.9002 11.798 13.9867 12.6376L13.9941 12.6433L16.5817 14.6795C16.7433 14.8022 16.9709 14.7706 17.0914 14.6212L20.3598 10.4049C20.7193 9.94111 21.3867 9.85658 21.8505 10.2161Z" fill="#E8FBFF"/>
</svg>
