<svg width="34" height="34" viewBox="0 0 34 34" fill="none" xmlns="http://www.w3.org/2000/svg">
<path opacity="0.4" d="M30.5994 1.88885V20.1733C30.5994 23.0444 29.0883 24.5555 26.2172 24.5555H7.78163C4.91052 24.5555 3.39941 23.0444 3.39941 20.1733V1.88885H30.5994Z" fill="#202AC7"/>
<path d="M32.1104 3.02216H1.88822C1.26866 3.02216 0.754883 2.50838 0.754883 1.88883C0.754883 1.26927 1.26866 0.755493 1.88822 0.755493H32.1104C32.73 0.755493 33.2438 1.26927 33.2438 1.88883C33.2438 2.50838 32.73 3.02216 32.1104 3.02216Z" fill="#E8FBFF"/>
<path d="M24.0564 32.6248C23.86 33.0177 23.4519 33.2444 23.0439 33.2444C22.8777 33.2444 22.6964 33.1991 22.5453 33.1235L16.9995 30.3581L11.4537 33.1235C11.3026 33.1991 11.1213 33.2444 10.955 33.2444C10.547 33.2444 10.139 33.0177 9.94258 32.6248C9.65547 32.0506 9.88218 31.3706 10.4564 31.0986L15.8662 28.3937V24.5555H18.1328V28.3937L23.5426 31.0986C24.1168 31.3706 24.3435 32.0506 24.0564 32.6248Z" fill="#E8FBFF"/>
<path d="M10.1992 16.6221C9.88186 16.6221 9.54944 16.4862 9.32277 16.2142C8.91477 15.7306 8.99029 15.0204 9.47384 14.6124L14.2339 10.6382C14.6721 10.2755 15.2312 10.1244 15.7601 10.2151C16.3041 10.3057 16.7725 10.6381 17.0597 11.1217L18.6463 13.7661L23.0738 10.0791C23.5574 9.67106 24.2676 9.74658 24.6756 10.2301C25.0836 10.7137 25.0081 11.4239 24.5245 11.8319L19.7645 15.8061C19.3263 16.1688 18.7672 16.3199 18.2383 16.2292C17.6943 16.1386 17.2258 15.8062 16.9387 15.3226L15.3521 12.6782L10.9245 16.3652C10.713 16.5315 10.4561 16.6221 10.1992 16.6221Z" fill="#E8FBFF"/>
</svg>
