<svg width="36" height="36" viewBox="0 0 36 36" fill="none" xmlns="http://www.w3.org/2000/svg">
<path opacity="0.4" d="M24.285 3H11.715C6.255 3 3 6.255 3 11.715V24.27C3 29.745 6.255 33 11.715 33H24.27C29.73 33 32.985 29.745 32.985 24.285V11.715C33 6.255 29.745 3 24.285 3Z" fill="#1821BB"/>
<path d="M10.3203 28.35C9.70531 28.35 9.19531 27.84 9.19531 27.225V24.12C9.19531 23.505 9.70531 22.995 10.3203 22.995C10.9353 22.995 11.4453 23.505 11.4453 24.12V27.225C11.4453 27.855 10.9353 28.35 10.3203 28.35Z" fill="#E8FBFF"/>
<path d="M18 28.35C17.385 28.35 16.875 27.84 16.875 27.225V21C16.875 20.385 17.385 19.875 18 19.875C18.615 19.875 19.125 20.385 19.125 21V27.225C19.125 27.855 18.615 28.35 18 28.35Z" fill="#E8FBFF"/>
<path d="M25.6797 28.35C25.0647 28.35 24.5547 27.84 24.5547 27.225V17.895C24.5547 17.28 25.0647 16.77 25.6797 16.77C26.2947 16.77 26.8047 17.28 26.8047 17.895V27.225C26.8047 27.855 26.3097 28.35 25.6797 28.35Z" fill="#E8FBFF"/>
<path d="M26.8055 8.73002C26.8055 8.65502 26.7755 8.56502 26.7605 8.49002C26.7455 8.43002 26.7305 8.35502 26.7155 8.29502C26.6855 8.23502 26.6405 8.19002 26.6105 8.13002C26.5655 8.07002 26.5205 7.99502 26.4605 7.95002C26.4455 7.93502 26.4455 7.92002 26.4305 7.92002C26.3855 7.89002 26.3405 7.87502 26.2955 7.84502C26.2355 7.80002 26.1605 7.75502 26.0855 7.72502C26.0105 7.69502 25.9355 7.69502 25.8605 7.68002C25.8005 7.66502 25.7555 7.65002 25.6955 7.65002H21.3005C20.6855 7.65002 20.1755 8.16002 20.1755 8.77502C20.1755 9.39002 20.6855 9.90002 21.3005 9.90002H23.1755C19.6055 13.65 15.1055 16.29 10.0505 17.565C9.45046 17.715 9.07546 18.33 9.22546 18.93C9.34546 19.44 9.81046 19.785 10.3205 19.785C10.4105 19.785 10.5005 19.77 10.5905 19.755C15.9455 18.42 20.7305 15.645 24.5555 11.715V13.17C24.5555 13.785 25.0655 14.295 25.6805 14.295C26.2955 14.295 26.8055 13.785 26.8055 13.17V8.77502C26.8055 8.76002 26.8055 8.74502 26.8055 8.73002Z" fill="#E8FBFF"/>
</svg>
