<svg width="28" height="28" viewBox="0 0 28 28" fill="none" xmlns="http://www.w3.org/2000/svg">
<path d="M3.2091 21.7583C2.73076 21.7583 2.3341 21.3617 2.3341 20.8833V14.2333C2.27576 11.0717 3.4541 8.085 5.64743 5.845C7.84076 3.61666 10.7808 2.39166 13.9424 2.39166C20.4058 2.39166 25.6674 7.65333 25.6674 14.1167V20.7667C25.6674 21.245 25.2708 21.6417 24.7924 21.6417C24.3141 21.6417 23.9174 21.245 23.9174 20.7667V14.1167C23.9174 8.62166 19.4491 4.14166 13.9424 4.14166C11.2474 4.14166 8.75076 5.18 6.89576 7.07C5.0291 8.97166 4.03743 11.5033 4.0841 14.21V20.8717C4.0841 21.3617 3.6991 21.7583 3.2091 21.7583Z" fill="#2029BD"/>
<path d="M6.93065 14.525H6.77898C4.32898 14.525 2.33398 16.52 2.33398 18.97V21.1634C2.33398 23.6134 4.32898 25.6084 6.77898 25.6084H6.93065C9.38065 25.6084 11.3757 23.6134 11.3757 21.1634V18.97C11.3757 16.52 9.38065 14.525 6.93065 14.525Z" fill="#2029BD"/>
<path d="M21.2217 14.525H21.07C18.62 14.525 16.625 16.52 16.625 18.97V21.1634C16.625 23.6134 18.62 25.6084 21.07 25.6084H21.2217C23.6717 25.6084 25.6667 23.6134 25.6667 21.1634V18.97C25.6667 16.52 23.6717 14.525 21.2217 14.525Z" fill="#2029BD"/>
</svg>
