<svg width="26" height="26" viewBox="0 0 26 26" fill="none" xmlns="http://www.w3.org/2000/svg">
<path d="M12.935 2.39419L10.3241 8.47169H7.7133C7.27997 8.47169 6.85747 8.50419 6.4458 8.59085L7.52913 5.99085L7.57247 5.89335L7.63747 5.72002C7.66997 5.64419 7.69163 5.57919 7.72413 5.52502C8.9808 2.61085 10.3891 1.70085 12.935 2.39419Z" fill="#FF5000"/>
<path d="M20.2907 8.76415L20.269 8.75331C19.619 8.56915 18.9582 8.47165 18.2865 8.47165H11.5049L13.9424 2.80581L13.9749 2.72998C14.1265 2.78415 14.289 2.85998 14.4515 2.91415L16.8457 3.92165C18.1782 4.47415 19.1099 5.04831 19.684 5.74165C19.7815 5.87165 19.8682 5.99081 19.9549 6.13165C20.0524 6.28331 20.1282 6.43498 20.1715 6.59748C20.2149 6.69498 20.2474 6.78165 20.269 6.87915C20.4315 7.43165 20.4424 8.05998 20.2907 8.76415Z" fill="#FF5000"/>
<path d="M13.5635 19.1316H13.8343C14.1593 19.1316 14.4301 18.8391 14.4301 18.4816C14.4301 18.0266 14.3001 17.9616 14.0185 17.8533L13.5635 17.6908V19.1316Z" fill="#FF5000"/>
<path d="M19.8143 10.3133C19.3268 10.1725 18.8176 10.0967 18.2868 10.0967H7.71342C6.97676 10.0967 6.28342 10.2375 5.63342 10.5192C3.74842 11.3317 2.42676 13.2058 2.42676 15.3833V17.4958C2.42676 17.7558 2.44842 18.005 2.48092 18.265C2.71926 21.71 4.56092 23.5517 8.00592 23.7792C8.25509 23.8117 8.50426 23.8333 8.77509 23.8333H17.2251C21.2334 23.8333 23.3459 21.9267 23.5518 18.135C23.5626 17.9292 23.5734 17.7125 23.5734 17.4958V15.3833C23.5734 12.9892 21.9809 10.9742 19.8143 10.3133ZM14.3868 16.7917C14.8851 16.965 15.5568 17.3333 15.5568 18.4817C15.5568 19.4675 14.7876 20.2583 13.8343 20.2583H13.5634V20.4967C13.5634 20.8108 13.3143 21.06 13.0001 21.06C12.6859 21.06 12.4368 20.8108 12.4368 20.4967V20.2583H12.3393C11.2993 20.2583 10.4434 19.3808 10.4434 18.2975C10.4434 17.9833 10.6926 17.7342 11.0068 17.7342C11.3209 17.7342 11.5701 17.9833 11.5701 18.2975C11.5701 18.7525 11.9168 19.1317 12.3393 19.1317H12.4368V17.3008L11.6134 17.0083C11.1151 16.835 10.4434 16.4667 10.4434 15.3183C10.4434 14.3325 11.2126 13.5417 12.1659 13.5417H12.4368V13.3033C12.4368 12.9892 12.6859 12.74 13.0001 12.74C13.3143 12.74 13.5634 12.9892 13.5634 13.3033V13.5417H13.6609C14.7009 13.5417 15.5568 14.4192 15.5568 15.5025C15.5568 15.8167 15.3076 16.0658 14.9934 16.0658C14.6793 16.0658 14.4301 15.8167 14.4301 15.5025C14.4301 15.0475 14.0834 14.6683 13.6609 14.6683H13.5634V16.4992L14.3868 16.7917Z" fill="#FF5000"/>
<path d="M11.5698 15.3183C11.5698 15.7733 11.6998 15.8383 11.9815 15.9467L12.4365 16.1092V14.6683H12.1657C11.8298 14.6683 11.5698 14.9608 11.5698 15.3183Z" fill="#FF5000"/>
</svg>
