<svg width="25" height="25" viewBox="0 0 25 25" fill="none" xmlns="http://www.w3.org/2000/svg">
<path d="M22.9168 3.38538H2.0835C1.65641 3.38538 1.30225 3.03121 1.30225 2.60413C1.30225 2.17704 1.65641 1.82288 2.0835 1.82288H22.9168C23.3439 1.82288 23.6981 2.17704 23.6981 2.60413C23.6981 3.03121 23.3439 3.38538 22.9168 3.38538Z" fill="#FF5000"/>
<path d="M3.82275 2.60413V15.0729C3.82275 16.0937 4.30192 17.0625 5.12484 17.677L10.5519 21.7395C11.7082 22.6041 13.3019 22.6041 14.4582 21.7395L19.8853 17.677C20.7082 17.0625 21.1873 16.0937 21.1873 15.0729V2.60413H3.82275ZM16.6665 14.3229H8.33317C7.90609 14.3229 7.55192 13.9687 7.55192 13.5416C7.55192 13.1145 7.90609 12.7604 8.33317 12.7604H16.6665C17.0936 12.7604 17.4478 13.1145 17.4478 13.5416C17.4478 13.9687 17.0936 14.3229 16.6665 14.3229ZM16.6665 9.11454H8.33317C7.90609 9.11454 7.55192 8.76038 7.55192 8.33329C7.55192 7.90621 7.90609 7.55204 8.33317 7.55204H16.6665C17.0936 7.55204 17.4478 7.90621 17.4478 8.33329C17.4478 8.76038 17.0936 9.11454 16.6665 9.11454Z" fill="#FF5000"/>
</svg>
