<svg width="26" height="26" viewBox="0 0 26 26" fill="none" xmlns="http://www.w3.org/2000/svg">
<path d="M19.4998 3.25H6.49984C4.10567 3.25 2.1665 5.17833 2.1665 7.55083V18.4492C2.1665 20.8217 4.10567 22.75 6.49984 22.75H19.4998C21.894 22.75 23.8332 20.8217 23.8332 18.4492V7.55083C23.8332 5.17833 21.894 3.25 19.4998 3.25ZM9.20817 7.7675C10.584 7.7675 11.7107 8.89417 11.7107 10.27C11.7107 11.6458 10.584 12.7725 9.20817 12.7725C7.83234 12.7725 6.70567 11.6458 6.70567 10.27C6.70567 8.89417 7.83234 7.7675 9.20817 7.7675ZM13.4007 18.0483C13.3032 18.1567 13.1515 18.2217 12.9998 18.2217H5.4165C5.26484 18.2217 5.11317 18.1567 5.01567 18.0483C4.91817 17.94 4.864 17.7883 4.87484 17.6367C5.059 15.8167 6.51067 14.3758 8.33067 14.2025C8.90484 14.1483 9.50067 14.1483 10.0748 14.2025C11.8948 14.3758 13.3573 15.8167 13.5307 17.6367C13.5523 17.7883 13.4982 17.94 13.4007 18.0483ZM20.5832 18.1458H18.4165C17.9723 18.1458 17.604 17.7775 17.604 17.3333C17.604 16.8892 17.9723 16.5208 18.4165 16.5208H20.5832C21.0273 16.5208 21.3957 16.8892 21.3957 17.3333C21.3957 17.7775 21.0273 18.1458 20.5832 18.1458ZM20.5832 13.8125H16.2498C15.8057 13.8125 15.4373 13.4442 15.4373 13C15.4373 12.5558 15.8057 12.1875 16.2498 12.1875H20.5832C21.0273 12.1875 21.3957 12.5558 21.3957 13C21.3957 13.4442 21.0273 13.8125 20.5832 13.8125ZM20.5832 9.47917H15.1665C14.7223 9.47917 14.354 9.11083 14.354 8.66667C14.354 8.2225 14.7223 7.85417 15.1665 7.85417H20.5832C21.0273 7.85417 21.3957 8.2225 21.3957 8.66667C21.3957 9.11083 21.0273 9.47917 20.5832 9.47917Z" fill="#FF5000"/>
</svg>
