<svg width="30" height="30" viewBox="0 0 30 30" fill="none" xmlns="http://www.w3.org/2000/svg">
<path d="M24.0881 18.4184C21.6848 20.81 18.2431 21.545 15.2214 20.6L9.72643 26.0834C9.32976 26.4917 8.5481 26.7367 7.9881 26.655L5.44476 26.305C4.60476 26.1884 3.8231 25.395 3.69476 24.555L3.34476 22.0117C3.2631 21.4517 3.53143 20.67 3.91643 20.2734L9.39976 14.79C8.46643 11.7567 9.18976 8.31502 11.5931 5.92335C15.0348 2.48169 20.6231 2.48169 24.0764 5.92335C27.5298 9.36502 27.5298 14.9767 24.0881 18.4184Z" stroke="#8FC908" stroke-width="2" stroke-miterlimit="10" stroke-linecap="round" stroke-linejoin="round"/>
<path d="M9.03809 21.405L11.7214 24.0883" stroke="#8FC908" stroke-width="2" stroke-miterlimit="10" stroke-linecap="round" stroke-linejoin="round"/>
<path d="M17.917 13.8333C18.8835 13.8333 19.667 13.0498 19.667 12.0833C19.667 11.1168 18.8835 10.3333 17.917 10.3333C16.9505 10.3333 16.167 11.1168 16.167 12.0833C16.167 13.0498 16.9505 13.8333 17.917 13.8333Z" stroke="#8FC908" stroke-width="2" stroke-linecap="round" stroke-linejoin="round"/>
</svg>
