<svg width="26" height="26" viewBox="0 0 26 26" fill="none" xmlns="http://www.w3.org/2000/svg">
<path d="M23.833 6.50002V9.12169C23.833 10.8334 22.7497 11.9167 21.038 11.9167H17.333V4.34419C17.333 3.14169 18.3188 2.16669 19.5213 2.16669C20.7022 2.17752 21.7855 2.65419 22.5655 3.43419C23.3455 4.22502 23.833 5.30835 23.833 6.50002Z" stroke="#8FC908" stroke-width="2" stroke-miterlimit="10" stroke-linecap="round" stroke-linejoin="round"/>
<path d="M2.16699 7.58335V22.75C2.16699 23.6492 3.18533 24.1584 3.90033 23.6167L5.75283 22.23C6.18616 21.905 6.79283 21.9484 7.18283 22.3384L8.98116 24.1475C9.40366 24.57 10.097 24.57 10.5195 24.1475L12.3395 22.3275C12.7187 21.9484 13.3253 21.905 13.7478 22.23L15.6003 23.6167C16.3153 24.1475 17.3337 23.6384 17.3337 22.75V4.33335C17.3337 3.14169 18.3087 2.16669 19.5003 2.16669H7.58366H6.50033C3.25033 2.16669 2.16699 4.10585 2.16699 6.50002V7.58335Z" stroke="#8FC908" stroke-width="2" stroke-miterlimit="10" stroke-linecap="round" stroke-linejoin="round"/>
<path d="M9.75 14.0942H13" stroke="#8FC908" stroke-width="2" stroke-linecap="round" stroke-linejoin="round"/>
<path d="M9.75 9.7608H13" stroke="#8FC908" stroke-width="2" stroke-linecap="round" stroke-linejoin="round"/>
<path d="M6.49512 14.0833H6.50485" stroke="#8FC908" stroke-width="2" stroke-linecap="round" stroke-linejoin="round"/>
<path d="M6.49512 9.75H6.50485" stroke="#8FC908" stroke-width="2" stroke-linecap="round" stroke-linejoin="round"/>
</svg>
