<svg width="32" height="32" viewBox="0 0 32 32" fill="none" xmlns="http://www.w3.org/2000/svg">
<path d="M28.8935 9.26664C28.0402 6.37331 25.6269 3.95997 22.7335 3.10664C20.5335 2.46664 19.0135 2.51997 17.9602 3.30664C16.6935 4.25331 16.5469 5.95997 16.5469 7.17331V10.4933C16.5469 13.7733 18.0402 15.44 20.9735 15.44H24.8002C26.0002 15.44 27.7202 15.2933 28.6669 14.0266C29.4802 12.9866 29.5469 11.4666 28.8935 9.26664Z" fill="white"/>
<path opacity="0.4" d="M25.2132 17.8133C24.8665 17.4133 24.3599 17.1866 23.8399 17.1866H19.0665C16.7199 17.1866 14.8132 15.28 14.8132 12.9333V8.15996C14.8132 7.63996 14.5865 7.13329 14.1865 6.78662C13.7999 6.43996 13.2665 6.27996 12.7599 6.34662C9.62653 6.74662 6.74653 8.46662 4.86653 11.0533C2.9732 13.6533 2.27986 16.8266 2.87986 20C3.74653 24.5866 7.4132 28.2533 12.0132 29.12C12.7465 29.2666 13.4799 29.3333 14.2132 29.3333C16.6265 29.3333 18.9599 28.5866 20.9465 27.1333C23.5332 25.2533 25.2532 22.3733 25.6532 19.24C25.7199 18.72 25.5599 18.2 25.2132 17.8133Z" fill="white"/>
</svg>
