<svg width="20" height="20" viewBox="0 0 20 20" fill="none" xmlns="http://www.w3.org/2000/svg">
<path d="M15.3913 14.0248L15.7163 16.6582C15.7997 17.3498 15.058 17.8332 14.4663 17.4748L11.583 15.7582C11.383 15.6415 11.333 15.3915 11.4413 15.1915C11.858 14.4248 12.083 13.5582 12.083 12.6915C12.083 9.6415 9.46633 7.15817 6.24967 7.15817C5.59133 7.15817 4.94967 7.25817 4.34967 7.45817C4.04133 7.55817 3.74133 7.27484 3.81633 6.95817C4.57467 3.92484 7.49133 1.6665 10.9747 1.6665C15.0413 1.6665 18.333 4.7415 18.333 8.53317C18.333 10.7832 17.1747 12.7748 15.3913 14.0248Z" fill="#8DB7BE"/>
<path d="M10.8337 12.6915C10.8337 13.6832 10.467 14.5999 9.85033 15.3249C9.02533 16.3249 7.71699 16.9665 6.25033 16.9665L4.07533 18.2582C3.70866 18.4832 3.24199 18.1749 3.29199 17.7499L3.50033 16.1082C2.38366 15.3332 1.66699 14.0915 1.66699 12.6915C1.66699 11.2249 2.45033 9.9332 3.65033 9.16654C4.39199 8.6832 5.28366 8.4082 6.25033 8.4082C8.78366 8.4082 10.8337 10.3249 10.8337 12.6915Z" fill="#8DB7BE"/>
</svg>
