<svg width="19" height="19" viewBox="0 0 19 19" fill="none" xmlns="http://www.w3.org/2000/svg">
<path d="M16.3239 6.68957C15.4926 3.03207 12.3022 1.38541 9.49971 1.38541C9.49971 1.38541 9.49971 1.38541 9.49179 1.38541C6.69721 1.38541 3.49888 3.02416 2.66763 6.68166C1.74138 10.7667 4.24304 14.2262 6.50721 16.4033C7.34638 17.2108 8.42304 17.6146 9.49971 17.6146C10.5764 17.6146 11.653 17.2108 12.4843 16.4033C14.7485 14.2262 17.2501 10.7746 16.3239 6.68957ZM9.49971 10.6558C8.12221 10.6558 7.00596 9.53957 7.00596 8.16207C7.00596 6.78457 8.12221 5.66832 9.49971 5.66832C10.8772 5.66832 11.9935 6.78457 11.9935 8.16207C11.9935 9.53957 10.8772 10.6558 9.49971 10.6558Z" fill="#8FC908"/>
</svg>
