<svg width="51" height="51" viewBox="0 0 51 51" fill="none" xmlns="http://www.w3.org/2000/svg">
<path d="M15.1281 37.8794V26.6324C15.1281 26.5841 15.0887 26.5447 15.0404 26.5447H14.8101C13.9137 26.5447 13.1804 25.882 13.1804 25.072V23.6871C13.1804 23.6387 13.2198 23.5993 13.2681 23.5993H19.1344C19.1827 23.5993 19.2221 23.6387 19.2221 23.6871V25.072C19.2221 25.882 18.4888 26.5447 17.5924 26.5447H17.3622C17.3139 26.5447 17.2745 26.5841 17.2745 26.6324V37.8794C17.2745 37.9278 17.3139 37.9673 17.3622 37.9673H17.5924C18.4887 37.9673 19.2221 38.63 19.2221 39.4399V40.8249C19.2221 40.8732 19.1827 40.9126 19.1344 40.9126H17.2745H15.1281H13.2682C13.2199 40.9126 13.1805 40.8732 13.1805 40.8249V39.4399C13.1805 38.63 13.9138 37.9673 14.8102 37.9673H15.0405C15.0886 37.9672 15.1281 37.9278 15.1281 37.8794ZM33.6371 37.9672H33.4068C32.5104 37.9672 31.7772 38.6299 31.7772 39.4398V40.8248C31.7772 40.8731 31.8165 40.9125 31.8649 40.9125H33.7247H35.8712H37.7311C37.7794 40.9125 37.8188 40.8731 37.8188 40.8248V39.4398C37.8188 38.6299 37.0855 37.9672 36.1892 37.9672H35.959C35.9106 37.9672 35.8712 37.9277 35.8712 37.8793V26.6324C35.8712 26.5841 35.9106 26.5447 35.959 26.5447H36.1892C37.0855 26.5447 37.8188 25.882 37.8188 25.072V23.6871C37.8188 23.6387 37.7794 23.5993 37.7311 23.5993H31.8649C31.8165 23.5993 31.7772 23.6387 31.7772 23.6871V25.072C31.7772 25.882 32.5104 26.5447 33.4068 26.5447H33.6371C33.6855 26.5447 33.7248 26.5841 33.7248 26.6324V37.8794C33.7248 37.9278 33.6855 37.9672 33.6371 37.9672ZM24.3387 37.9672H24.1084C23.212 37.9672 22.4787 38.6299 22.4787 39.4398V40.8248C22.4787 40.8731 22.5182 40.9125 22.5665 40.9125H24.4263H26.5727H28.4326C28.4809 40.9125 28.5203 40.8731 28.5203 40.8248V39.4398C28.5203 38.6299 27.787 37.9672 26.8906 37.9672H26.6604C26.6121 37.9672 26.5727 37.9277 26.5727 37.8793V26.6324C26.5727 26.5841 26.6121 26.5447 26.6604 26.5447H26.8906C27.7869 26.5447 28.5203 25.882 28.5203 25.072V23.6871C28.5203 23.6387 28.4809 23.5993 28.4326 23.5993H22.5664C22.518 23.5993 22.4786 23.6387 22.4786 23.6871V25.072C22.4786 25.882 23.2119 26.5447 24.1083 26.5447H24.3386C24.3869 26.5447 24.4264 26.5841 24.4264 26.6324V37.8794C24.4265 37.9278 24.3871 37.9672 24.3387 37.9672ZM41.8422 18.0715C41.83 18.0336 41.8044 17.9985 41.7671 17.9714L34.5482 12.7077L25.8488 6.36461C25.7439 6.28801 25.6221 6.24976 25.4997 6.24976C25.3773 6.24976 25.2556 6.28811 25.1505 6.36461L9.2322 17.9714C9.19497 17.9985 9.16936 18.0336 9.15702 18.0715C9.14478 18.1093 9.14539 18.1538 9.16039 18.1999C9.17477 18.2441 9.20007 18.2794 9.23189 18.3026C9.2632 18.3253 9.30492 18.3382 9.35307 18.3382H11.1843H11.1903H39.8089H39.8149H41.6461C41.6941 18.3382 41.7359 18.3253 41.7672 18.3026C41.7991 18.2795 41.8244 18.2442 41.8387 18.1999C41.8538 18.1538 41.8545 18.1093 41.8422 18.0715ZM38.3383 42.511H12.661C11.8522 42.511 11.1904 43.1727 11.1904 43.9816V44.6623C11.1904 44.7107 11.2298 44.7501 11.2781 44.7501H39.7212C39.7696 44.7501 39.8089 44.7107 39.8089 44.6623V43.9816C39.8089 43.1727 39.1472 42.511 38.3383 42.511ZM39.7212 19.7618H11.2781C11.2298 19.7618 11.1904 19.8012 11.1904 19.8495V20.5303C11.1904 21.3391 11.8522 22.0009 12.661 22.0009H38.3382C39.1471 22.0009 39.8089 21.3391 39.8089 20.5303V19.8495C39.8089 19.8012 39.7696 19.7618 39.7212 19.7618Z" fill="#1955FF"/>
</svg>
