<svg width="50" height="49" viewBox="0 0 50 49" fill="none" xmlns="http://www.w3.org/2000/svg">
<path fill-rule="evenodd" clip-rule="evenodd" d="M9.80685 13.412C9.80784 13.4272 9.80833 13.4425 9.80833 13.458V14.1198V14.8272V26.6897V27.3665V27.9161C9.80833 27.9589 9.80439 28.0007 9.7969 28.0415C9.7705 28.1851 9.69977 28.314 9.59939 28.4139C9.47054 28.5421 9.29342 28.6216 9.09906 28.6216H5.67109C5.47683 28.6216 5.29961 28.5421 5.17076 28.4139C5.0419 28.2857 4.96191 28.1094 4.96191 27.9161V13.458C4.96191 13.2647 5.0419 13.0885 5.17076 12.9603C5.29961 12.8321 5.47683 12.7525 5.67109 12.7525H9.09915C9.29342 12.7525 9.47064 12.8321 9.59949 12.9603C9.718 13.0782 9.79523 13.2368 9.80685 13.412ZM21.6931 19.9176C22.3255 19.9162 22.9836 20.1376 23.5192 20.4896C24.7562 21.3029 26.1161 21.9792 27.5234 22.0639C28.6927 22.1342 29.9274 21.7903 31.2022 20.761C31.2231 20.7441 31.2341 20.7208 31.2336 20.694C31.2331 20.6673 31.2213 20.6444 31.1999 20.6282L23.972 15.1943L23.4154 14.7758L22.8588 14.3574L21.7359 13.5132C21.7353 13.5128 21.7348 13.5124 21.7342 13.512C21.4628 13.3182 21.1585 13.1906 20.8588 13.1595C20.607 13.1333 20.3554 13.1775 20.1305 13.3127L15.8741 15.8705C15.5095 16.0895 15.1201 16.1882 14.7208 16.2C14.3502 16.2108 13.9843 16.146 13.6318 16.0347L11.275 15.2904C11.2484 15.282 11.2219 15.2864 11.1993 15.3028C11.1767 15.3191 11.1646 15.343 11.1646 15.3708V24.2558V26.4521V26.7725C11.1646 26.8162 11.1978 26.8525 11.2417 26.8565C11.2902 26.8609 11.339 26.8652 11.3877 26.8694C11.6913 26.8953 11.9971 26.9153 12.2913 26.9254C12.7169 26.9401 13.118 26.9341 13.4523 26.8956C13.8383 26.8511 14.1354 26.7632 14.2788 26.6133L20.0401 20.593C20.4926 20.12 21.0807 19.919 21.6931 19.9176ZM38.0513 14.9026C38.0256 14.8869 37.9958 14.8855 37.9688 14.899C36.1719 15.7948 33.4905 17.0106 31.8189 15.7087L28.0886 12.8034C27.9292 12.6792 27.7408 12.6434 27.5509 12.6638C27.2553 12.6955 26.9537 12.8482 26.7125 13.0379L25.1552 14.2633C25.1339 14.28 25.1227 14.3034 25.123 14.3303C25.1233 14.3573 25.135 14.3804 25.1567 14.3967L32.7501 20.1053L32.7496 20.1059C32.7748 20.1249 32.7989 20.1456 32.8216 20.1685C33.085 20.4319 33.0838 20.8578 32.819 21.1198C30.9926 22.9264 29.1763 23.5122 27.4438 23.408C25.7474 23.3059 24.1773 22.5361 22.7721 21.6124C22.4439 21.3966 22.054 21.2609 21.693 21.2617C21.4344 21.2622 21.1935 21.3394 21.02 21.5207L15.2587 27.541C15.1804 27.6228 15.0865 27.6958 14.9794 27.7608C14.9574 27.7742 14.9437 27.7945 14.9397 27.82C14.9358 27.8455 14.9427 27.8689 14.9597 27.8883C15.2121 28.1757 15.4165 28.5068 15.5638 28.873C15.6095 28.9866 15.6699 29.0992 15.7445 29.2079C15.8173 29.3139 15.9032 29.4148 16.0015 29.5078C16.1001 29.6011 16.2056 29.6812 16.3153 29.7481C16.4318 29.819 16.5485 29.8742 16.663 29.9135C17.1438 30.0785 17.5699 30.3365 17.9221 30.6697C18.2759 31.0041 18.556 31.4136 18.7435 31.8798C18.7892 31.9934 18.8496 32.106 18.9243 32.2146C18.9971 32.3207 19.0829 32.4215 19.1812 32.5144C19.4309 32.7506 19.7239 32.884 20.0085 33.0134C20.7168 33.3357 21.3896 33.6419 21.8785 34.9036C21.9159 35 21.9717 35.0964 22.0433 35.192C22.1253 35.3013 22.2233 35.4031 22.3343 35.4973C22.6296 35.7481 22.9668 35.8662 23.2995 35.887C23.5594 35.9031 23.8174 35.8626 24.0531 35.7806C24.0811 35.7708 24.1005 35.7495 24.1075 35.7209C24.1145 35.6923 24.107 35.6644 24.0866 35.643L22.7839 34.2759C22.7478 34.238 22.7092 34.194 22.6681 34.1442C22.2792 33.6729 22.1044 33.103 22.1372 32.5464C22.1704 31.9842 22.4116 31.4379 22.8541 31.0206C22.8907 30.986 22.9341 30.9483 22.9841 30.9074L22.9858 30.9061C23.496 30.4903 24.139 30.3072 24.7653 30.347C24.8112 30.35 24.8512 30.3157 24.8551 30.2701C24.9016 29.7294 25.1412 29.2073 25.5676 28.805C25.6038 28.7709 25.6465 28.7337 25.6957 28.6935C25.6962 28.6931 25.6966 28.6928 25.697 28.6924L25.6972 28.6922C25.6975 28.6919 25.6978 28.6917 25.6981 28.6914C26.2084 28.2749 26.8521 28.0916 27.4788 28.1314C27.5247 28.1343 27.5647 28.1001 27.5687 28.0544C27.6151 27.5138 27.8546 26.9915 28.2812 26.5892C28.3179 26.5547 28.3612 26.5169 28.4112 26.476L28.4155 26.4726C28.9251 26.0583 29.5671 25.8759 30.1922 25.9156C30.2382 25.9185 30.2782 25.8842 30.282 25.8385C30.3279 25.2987 30.5674 24.7765 30.9947 24.3735C31.0313 24.339 31.0747 24.3012 31.1248 24.2603C31.6369 23.8422 32.2833 23.6588 32.9122 23.7003C33.5428 23.7418 34.1624 24.0069 34.6183 24.4854L36.5163 26.4772C36.5325 26.4943 36.5527 26.5031 36.5764 26.5035C36.6 26.5039 36.6205 26.4957 36.6373 26.4793C37.0184 26.1055 37.5062 25.7729 38.0468 25.4819C38.0749 25.4668 38.0913 25.4395 38.0913 25.4077V14.9744C38.0915 14.9443 38.077 14.9185 38.0513 14.9026ZM44.0853 12.9603C43.9565 12.8321 43.7793 12.7525 43.585 12.7525H40.1569C39.9743 12.7525 39.8068 12.8228 39.6804 12.9376C39.6724 12.945 39.6644 12.9525 39.6566 12.9603C39.5277 13.0885 39.4478 13.2648 39.4478 13.458V13.6346V14.3108V24.8519V25.5749V26.3044V27.9163C39.4478 28.1096 39.5277 28.2859 39.6566 28.4141C39.7854 28.5423 39.9627 28.6218 40.1569 28.6218H43.585C43.7793 28.6218 43.9565 28.5423 44.0853 28.4141C44.2142 28.2859 44.2942 28.1096 44.2942 27.9163V13.458C44.2942 13.2648 44.2142 13.0885 44.0853 12.9603ZM36.1892 28.0927C36.1771 28.078 36.1597 28.0587 36.1369 28.0349L35.807 27.6887L33.6384 25.4128C33.4246 25.1886 33.1301 25.0641 32.8277 25.0441C32.5398 25.025 32.2504 25.0985 32.0217 25.2684C32.0192 25.2702 32.0171 25.272 32.0148 25.2742C31.9959 25.2917 31.9762 25.3079 31.9558 25.3228C31.9531 25.3247 31.9509 25.3266 31.9484 25.3289L31.9274 25.3484C31.743 25.5224 31.6426 25.7468 31.6291 25.9756C31.6155 26.2067 31.6891 26.4448 31.8526 26.643C31.8648 26.6578 31.8823 26.6771 31.9049 26.7009L34.4035 29.323C34.4568 29.379 34.5151 29.4287 34.5774 29.4722C34.7647 29.6029 34.9872 29.6769 35.2142 29.6918C35.2488 29.6941 35.2834 29.695 35.3179 29.6947C35.5707 29.6918 35.8189 29.6169 36.0201 29.4675C36.0225 29.4656 36.0247 29.4639 36.027 29.4617C36.0459 29.4443 36.0656 29.4281 36.0859 29.4132C36.0886 29.4112 36.0908 29.4094 36.0934 29.407L36.1145 29.3875C36.2989 29.2136 36.3993 28.989 36.4127 28.7603L36.4132 28.754C36.4132 28.7534 36.4133 28.7527 36.4133 28.752C36.4217 28.5734 36.3788 28.3916 36.2833 28.2277C36.2562 28.181 36.2248 28.1359 36.1892 28.0927ZM33.4756 30.3084C33.4634 30.2937 33.446 30.2744 33.4233 30.2506L33.402 30.2282L30.9247 27.6284C30.7111 27.4041 30.4164 27.2795 30.114 27.2596C29.8263 27.2406 29.5371 27.314 29.3085 27.4838C29.3059 27.4856 29.3038 27.4874 29.3016 27.4896C29.2828 27.507 29.2629 27.5233 29.2421 27.5385C29.2393 27.5405 29.237 27.5424 29.2345 27.5446L29.2137 27.5638C29.0291 27.7379 28.9287 27.9614 28.9153 28.1885C28.9016 28.4212 28.9752 28.6604 29.1389 28.8587C29.151 28.8733 29.1685 28.8927 29.1911 28.9165L31.4822 31.3208L31.6898 31.5386C31.7885 31.6422 31.9045 31.7246 32.0305 31.7851C32.1773 31.8556 32.3378 31.8966 32.5004 31.9073C32.7881 31.9263 33.0773 31.8529 33.3059 31.6833C33.3085 31.6814 33.3106 31.6796 33.3129 31.6775C33.3317 31.6601 33.3516 31.6438 33.3723 31.6286C33.3751 31.6265 33.3773 31.6247 33.3798 31.6224L33.4007 31.6031C33.5853 31.4291 33.6857 31.2055 33.6991 30.9785C33.7018 30.9314 33.7011 30.8841 33.6967 30.8368C33.6794 30.6507 33.6062 30.4666 33.4756 30.3084ZM30.7523 32.5127C30.7412 32.4999 30.727 32.4844 30.7098 32.4663L30.2738 32.0087L28.2112 29.8442C27.9975 29.62 27.7029 29.4953 27.4005 29.4754C27.0962 29.4553 26.7903 29.5385 26.5562 29.7297C26.5417 29.7416 26.523 29.7583 26.5002 29.7798C26.3156 29.9539 26.2153 30.1773 26.2019 30.4044L26.2017 30.407C26.1883 30.6382 26.2619 30.8762 26.4255 31.0745C26.4376 31.0892 26.4549 31.1084 26.4778 31.1323L28.402 33.1516L28.8756 33.6487L28.9764 33.7544C29.1152 33.9001 29.2882 34.0037 29.4752 34.0639C29.5761 34.0963 29.6811 34.1162 29.7871 34.1232C30.0914 34.1433 30.3973 34.0601 30.6316 33.8689C30.6459 33.857 30.6648 33.8402 30.6874 33.8188C30.8718 33.6449 30.9722 33.4204 30.9857 33.1916C30.9864 33.1796 30.9869 33.1677 30.9871 33.1556C30.9914 32.9358 30.9172 32.7121 30.7622 32.5241C30.7591 32.5206 30.7559 32.5168 30.7523 32.5127ZM28.0484 34.7399C28.0363 34.7252 28.0189 34.7059 27.9961 34.682L27.7246 34.3971L27.251 33.9L25.4975 32.0599C25.2838 31.8357 24.9892 31.7111 24.6868 31.6911C24.3826 31.671 24.0766 31.7542 23.8424 31.9454C23.8279 31.9573 23.8092 31.974 23.7866 31.9954C23.602 32.1694 23.5017 32.393 23.4883 32.62C23.4746 32.8529 23.5482 33.0919 23.7119 33.2903C23.724 33.305 23.7414 33.3243 23.7641 33.3481L25.3753 35.039L25.8515 35.5388L26.2627 35.9703C26.2848 35.9934 26.3076 36.0155 26.3313 36.0364C26.5373 36.2191 26.8023 36.3211 27.0735 36.339C27.3777 36.359 27.6836 36.2758 27.9178 36.0846C27.9323 36.0728 27.9511 36.056 27.9738 36.0347C28.1582 35.8607 28.2585 35.6363 28.272 35.4075C28.2818 35.2414 28.2466 35.0717 28.1654 34.9158C28.1334 34.8546 28.0945 34.7957 28.0484 34.7399Z" fill="#1955FF"/>
</svg>
