<svg width="47" height="47" viewBox="0 0 47 47" fill="none" xmlns="http://www.w3.org/2000/svg">
<path fill-rule="evenodd" clip-rule="evenodd" d="M23.4998 31.2838C27.1656 31.2838 30.4843 29.798 32.8865 27.3958C35.2887 24.9936 36.7746 21.6749 36.7746 18.0091C36.7746 14.3432 35.2888 11.0246 32.8865 8.6224C30.4843 6.22014 27.1655 4.73438 23.4998 4.73438C19.834 4.73438 16.5153 6.22023 14.113 8.6224C11.7109 11.0246 10.225 14.3433 10.225 18.0091C10.225 21.675 11.7109 24.9936 14.113 27.3959C16.5153 29.798 19.834 31.2838 23.4998 31.2838ZM16.8681 14.445C16.9296 13.6618 17.2254 12.9699 17.7628 12.3723C18.267 11.8115 18.9838 11.3443 19.9195 10.9733L19.9248 10.9714L19.9246 10.9708C20.4502 10.768 21.0079 10.6115 21.5997 10.5045C21.9783 10.4359 22.3706 10.388 22.7771 10.3615C22.8197 10.3587 22.8527 10.3235 22.8527 10.2808V8.82789C22.8527 8.4705 23.1424 8.18079 23.4998 8.18079C23.8572 8.18079 24.1469 8.4705 24.1469 8.82789V10.2786C24.1469 10.3217 24.1806 10.3572 24.2237 10.3593C25.0411 10.3999 25.8466 10.4963 26.6395 10.6521C27.6857 10.8577 28.7179 11.167 29.7346 11.5888C30.0641 11.7255 30.2202 12.1036 30.0835 12.433C29.9467 12.7624 29.5686 12.9186 29.2392 12.7818C28.3067 12.3949 27.357 12.1106 26.3919 11.921C25.4527 11.7363 24.5061 11.641 23.5528 11.6277C23.5504 11.6277 23.5484 11.6277 23.5459 11.6279C23.5307 11.629 23.5154 11.6295 23.4998 11.6295C23.4809 11.6295 23.4621 11.6286 23.4436 11.627C23.4408 11.6268 23.4386 11.6267 23.4358 11.6267C22.8698 11.6317 22.3341 11.6815 21.8271 11.7733C21.3207 11.8649 20.8421 11.9994 20.3896 12.1739L20.3894 12.1734C19.6494 12.4675 19.0957 12.8224 18.7233 13.2366C18.3952 13.6014 18.2094 14.021 18.1619 14.4936C18.1613 14.4991 18.1613 14.5039 18.1619 14.5093C18.2049 14.9641 18.3874 15.3731 18.713 15.735C19.0818 16.1448 19.6292 16.5022 20.3597 16.8056C20.3611 16.8061 20.3623 16.8066 20.3638 16.8071L20.3837 16.8141C20.3843 16.8143 20.3848 16.8145 20.3854 16.8148C20.8624 16.9954 21.3526 17.1339 21.8574 17.2258C22.3691 17.319 22.9003 17.3666 23.4526 17.3644H23.4551C24.0914 17.3665 24.7024 17.421 25.2884 17.5265C25.8848 17.6337 26.4495 17.7905 26.9833 17.9952L26.9827 17.997L27.0028 18.005C27.0034 18.0052 27.0038 18.0054 27.0043 18.0057C27.9513 18.4054 28.6771 18.8843 29.1817 19.4423C29.7201 20.0376 30.0065 20.7123 30.041 21.4666C30.041 21.4676 30.0411 21.4684 30.0412 21.4694C30.0435 21.4984 30.044 21.5279 30.0424 21.5579C29.9973 22.3634 29.7031 23.067 29.1593 23.668C28.6559 24.2246 27.9442 24.6799 27.0239 25.0335C27.0224 25.034 27.0211 25.0346 27.0197 25.0353C27.0103 25.0395 27.0007 25.0435 26.991 25.0474C26.4605 25.2575 25.8973 25.4144 25.3027 25.5201C24.9561 25.5817 24.5958 25.6254 24.2222 25.6515C24.1798 25.6545 24.147 25.6896 24.147 25.7322V27.1904C24.147 27.5478 23.8573 27.8375 23.4999 27.8375C23.1425 27.8375 22.8528 27.5478 22.8528 27.1904V25.7344C22.8528 25.6914 22.8193 25.656 22.7765 25.6536C21.7968 25.5983 20.8987 25.4787 20.0703 25.3041C19.0505 25.0892 18.1298 24.7899 17.2871 24.4243C16.9605 24.2833 16.81 23.9042 16.951 23.5775C17.092 23.2509 17.4711 23.1003 17.7977 23.2413C18.5579 23.5711 19.3961 23.8428 20.3332 24.0403C21.2699 24.2377 22.2994 24.3598 23.441 24.3908C23.444 24.3909 23.4466 24.3908 23.4495 24.3906C23.4661 24.3893 23.4829 24.3886 23.4999 24.3886C23.5147 24.3886 23.5295 24.3892 23.5441 24.3902C23.5465 24.3903 23.5486 24.3903 23.5509 24.3903C24.078 24.3812 24.588 24.3336 25.0802 24.2461C25.5857 24.1563 26.0647 24.0229 26.5158 23.8442C26.5303 23.8385 26.5449 23.8333 26.5596 23.8287C26.5612 23.8282 26.5626 23.8277 26.5643 23.8271C27.2941 23.5466 27.8405 23.2054 28.2039 22.8036C28.5354 22.4372 28.7178 22.0082 28.7515 21.5169C28.7518 21.5135 28.7518 21.5105 28.7516 21.5069C28.727 21.0668 28.552 20.6667 28.2264 20.3068C27.8532 19.8942 27.2858 19.526 26.524 19.2023L26.5235 19.2036C26.051 19.0224 25.5636 18.8859 25.0611 18.7955C24.5485 18.7032 24.0138 18.6555 23.4563 18.6537C22.8241 18.6561 22.216 18.6016 21.6301 18.4949C21.0372 18.387 20.4712 18.228 19.9297 18.0229C19.9099 18.0154 19.8907 18.0071 19.8722 17.9981C19.8706 17.9973 19.8693 17.9966 19.8676 17.996C18.9499 17.6148 18.2466 17.1487 17.7525 16.5996C17.2138 16.0009 16.9212 15.3131 16.8681 14.5386C16.866 14.507 16.8662 14.4758 16.8686 14.445H16.8681ZM10.5686 36.1579C10.188 35.7773 9.95166 35.2528 9.95166 34.6764C9.95166 34.1 10.188 33.5755 10.5686 33.1949C10.9492 32.8143 11.4737 32.578 12.05 32.578H23.4998H34.9495C35.5259 32.578 36.0503 32.8143 36.4309 33.1949C36.8115 33.5755 37.0478 34.1 37.0478 34.6765C37.0478 35.2529 36.8115 35.7773 36.4309 36.1579C36.0503 36.5385 35.5258 36.7748 34.9495 36.7748H12.0501C11.4737 36.7747 10.9493 36.5385 10.5686 36.1579ZM36.431 38.6859C36.8116 39.0665 37.0479 39.591 37.0479 40.1674C37.0479 40.7437 36.8116 41.2682 36.431 41.6488C36.0504 42.0294 35.5259 42.2658 34.9496 42.2658H12.0502C11.4738 42.2658 10.9494 42.0294 10.5688 41.6488C10.1882 41.2682 9.95185 40.7437 9.95185 40.1673C9.95185 39.5909 10.1882 39.0665 10.5688 38.6859C10.9494 38.3053 11.4739 38.0689 12.0502 38.0689H34.9496C35.5259 38.0689 36.0504 38.3053 36.431 38.6859Z" fill="#1955FF"/>
</svg>
