<svg width="49" height="49" viewBox="0 0 49 49" fill="none" xmlns="http://www.w3.org/2000/svg">
<path fill-rule="evenodd" clip-rule="evenodd" d="M7.81306 29.905V42.2457C7.81306 42.2587 7.81061 42.2699 7.80503 42.2817L6.74878 44.52C6.61109 44.8118 6.38638 44.8118 6.24869 44.52L5.19244 42.2817C5.18686 42.2699 5.18441 42.2587 5.18441 42.2457V29.905C5.18441 29.8586 5.22224 29.8208 5.26869 29.8208H7.72878C7.77514 29.8208 7.81306 29.8586 7.81306 29.905ZM44.994 23.4701C44.994 24.5064 44.5738 25.4447 43.8947 26.1239C43.2156 26.803 42.2772 27.2232 41.241 27.2232C40.2047 27.2232 39.2664 26.803 38.5872 26.1239C37.9081 25.4448 37.488 24.5064 37.488 23.4702C37.488 23.448 37.4881 23.4391 37.4882 23.4374C37.4883 23.4355 37.4883 23.4338 37.4884 23.4318C37.4901 23.2908 37.5352 23.1602 37.6109 23.0527C37.6142 23.048 37.6165 23.0438 37.6189 23.0386L40.1512 17.3595C40.1632 17.3326 40.1609 17.3039 40.1449 17.2792C40.129 17.2545 40.1037 17.2408 40.0742 17.2408H31.5827C31.5533 17.2408 31.528 17.2545 31.512 17.2792C31.496 17.3039 31.4938 17.3325 31.5057 17.3595L34.0438 23.0516C34.046 23.0563 34.0482 23.0602 34.051 23.0644C34.1139 23.1575 34.1542 23.2673 34.1637 23.386C34.1638 23.3872 34.1639 23.3881 34.164 23.3893C34.1672 23.4159 34.1689 23.4428 34.1689 23.4703C34.1689 24.5066 33.7488 25.4449 33.0696 26.1241C32.3905 26.8032 31.4521 27.2234 30.4159 27.2234C29.3796 27.2234 28.4413 26.8032 27.7621 26.1241C27.083 25.445 26.6629 24.5066 26.6629 23.4704C26.6629 23.4482 26.663 23.4393 26.6631 23.4376C26.6632 23.4357 26.6633 23.434 26.6634 23.432C26.665 23.291 26.7101 23.1604 26.7858 23.0529C26.7891 23.0482 26.7915 23.044 26.7938 23.0388L29.802 16.2923C29.9135 16.0424 30.1589 15.8941 30.4161 15.8939V15.8918H35.0698C35.1163 15.8918 35.1541 15.854 35.1541 15.8075V9.96037L23.8357 17.4439C23.5549 17.6296 23.4026 17.9217 23.4026 18.2583V22.4633C23.4026 22.6942 23.4664 22.8925 23.6011 23.08C24.5441 24.3939 25.1249 26.1863 25.1249 28.1624C25.1249 29.5959 24.8192 30.933 24.2915 32.0606C24.1874 32.2831 24.1822 32.5016 24.2183 32.7446L25.9161 44.1845C25.9371 44.3257 25.9176 44.4566 25.8286 44.5682C25.7396 44.6798 25.6167 44.7389 25.474 44.7389H13.9886C13.8459 44.7389 13.7231 44.6798 13.6341 44.5682C13.5451 44.4567 13.5256 44.3257 13.5466 44.1845L15.2444 32.7446C15.2805 32.5016 15.2754 32.2832 15.1713 32.0606C14.6436 30.933 14.3379 29.5959 14.3379 28.1624C14.3379 26.1863 14.9187 24.3939 15.8618 23.08C15.9965 22.8925 16.0603 22.6942 16.0603 22.4633V18.4466C16.0603 18.3032 15.9864 18.1802 15.8597 18.1129C15.7331 18.0456 15.5899 18.0531 15.4711 18.1333L7.17332 23.7286V26.4932H8.47378C8.75847 26.4932 8.99141 26.7261 8.99141 27.0109V28.2045C8.99141 28.4893 8.75847 28.7223 8.47378 28.7223H4.52359C4.2389 28.7223 4.00586 28.4893 4.00586 28.2045V27.0109C4.00586 26.7261 4.23881 26.4932 4.52359 26.4932H5.82405V24.2169C5.40746 24.1713 5.01242 23.951 4.76115 23.5785C4.30819 22.9068 4.48724 21.9865 5.15893 21.5336L15.6774 14.4408C15.9379 14.2651 16.2078 14.1826 16.5221 14.1826H22.9408C23.2552 14.1826 23.5231 14.0974 23.7856 13.9244L34.2864 7.00146C34.9628 6.55556 35.8783 6.72745 36.3313 7.39924C36.5978 7.79457 36.6454 8.27762 36.5029 8.6996V15.8069C36.5029 15.8533 36.5408 15.8911 36.5872 15.8911H41.241V15.8932C41.3327 15.8931 41.4259 15.9119 41.5151 15.9517C41.6727 16.0221 41.7899 16.1455 41.8549 16.2917L44.8689 23.0511C44.871 23.0558 44.8731 23.0597 44.8761 23.064C44.939 23.1571 44.9793 23.2668 44.9888 23.3855C44.9889 23.3867 44.989 23.3876 44.9891 23.3888C44.9923 23.4156 44.994 23.4426 44.994 23.4701ZM30.4926 18.3897C30.4788 18.3587 30.4497 18.3398 30.4157 18.3398C30.3817 18.3398 30.3526 18.3587 30.3387 18.3897L28.4404 22.6469C28.4284 22.6737 28.4307 22.7024 28.4467 22.7271C28.4626 22.7518 28.4879 22.7655 28.5174 22.7655H32.3138C32.3432 22.7655 32.3685 22.7518 32.3846 22.7271C32.4006 22.7024 32.4028 22.6738 32.3909 22.6469L30.4926 18.3897ZM43.2161 22.6469L41.3179 18.3897C41.3041 18.3587 41.275 18.3398 41.2409 18.3398C41.2069 18.3398 41.1778 18.3587 41.1639 18.3897L39.2657 22.6469C39.2537 22.6737 39.256 22.7024 39.2719 22.7271C39.2879 22.7518 39.3132 22.7655 39.3426 22.7655H43.139C43.1684 22.7655 43.1937 22.7518 43.2097 22.7271C43.2259 22.7024 43.2281 22.6738 43.2161 22.6469ZM9.9526 9.92117C10.3957 9.8756 10.83 9.69215 11.2565 9.38443C11.6277 9.11659 11.9974 8.74909 12.3657 8.29271C12.3666 8.29153 12.3675 8.29045 12.3686 8.28928L12.373 8.28438C12.9499 7.62356 13.492 7.30653 14.001 7.31261C14.5088 7.31868 15.0513 7.64316 15.6261 8.26595C15.6273 8.26723 15.6283 8.2683 15.6293 8.26958C15.753 8.4202 15.9407 8.51624 16.1508 8.51624H16.2146H21.5664H23.1778C23.2193 8.51624 23.2539 8.48694 23.2609 8.44608C23.2943 8.24959 23.312 8.04771 23.312 7.84161C23.312 5.86417 21.7089 4.26099 19.7314 4.26099C18.0953 4.26099 16.7159 5.35839 16.2882 6.8571C16.2801 6.88572 16.2595 6.9065 16.231 6.91492C16.2025 6.92335 16.1739 6.91698 16.1516 6.89738C15.4624 6.29223 14.7512 5.97726 14.017 5.96854C13.0981 5.95756 12.2121 6.42414 11.3612 7.39885C11.3468 7.41512 11.3336 7.43197 11.3212 7.44912C11.3202 7.45049 11.3194 7.45157 11.3183 7.45285C11.0278 7.8126 10.745 8.09582 10.4713 8.29329C10.2366 8.46264 10.0175 8.56152 9.81569 8.5823C9.44604 8.62012 9.17703 8.95048 9.21485 9.32014C9.25258 9.68999 9.58294 9.9589 9.9526 9.92117ZM22.7177 9.57612H16.7452C16.7138 9.57612 16.687 9.59189 16.6717 9.61914C16.6564 9.64648 16.6569 9.67755 16.6732 9.7043C17.3019 10.7345 18.4364 11.4221 19.7314 11.4221C21.0266 11.4221 22.1609 10.7344 22.7897 9.7043C22.806 9.67755 22.8066 9.64648 22.7913 9.61914C22.7759 9.59179 22.749 9.57612 22.7177 9.57612Z" fill="#1955FF"/>
</svg>
