<svg width="52" height="53" viewBox="0 0 52 53" fill="none" xmlns="http://www.w3.org/2000/svg">
<path fill-rule="evenodd" clip-rule="evenodd" d="M11.828 23.0463L15.2577 16.9917C15.6845 16.2381 15.8225 15.8636 16.8442 15.8636H22.8473C22.8731 15.8636 22.8953 15.8735 22.9128 15.8927C22.9303 15.9119 22.9384 15.9351 22.9365 15.9613C22.9312 16.0362 22.9285 16.1118 22.9285 16.1881C22.9285 17.9173 24.3038 19.319 26.0004 19.319C27.6968 19.319 29.0721 17.9173 29.0721 16.1881C29.0721 16.1118 29.0694 16.0362 29.0641 15.9613C29.0622 15.9351 29.0704 15.9119 29.0878 15.8927C29.1054 15.8735 29.1276 15.8636 29.1533 15.8636H34.3743C35.4431 15.8636 36.0678 15.8 36.6637 16.852L40.1726 23.0464C40.5299 23.6773 40.3159 24.4915 39.6969 24.8557C39.0779 25.2199 38.279 25.0018 37.9217 24.3709L35.1087 19.405C35.0906 19.3731 35.0576 19.356 35.0217 19.3599C34.9857 19.3639 34.9571 19.3876 34.9459 19.4227L34.22 21.7289C34.2129 21.7514 34.2142 21.7731 34.2239 21.7946L37.1996 28.4419C37.2435 28.5399 37.2062 28.6473 37.1416 28.7327C37.077 28.818 36.986 28.8635 36.8803 28.8635H34.6793C34.63 28.8635 34.5898 28.9044 34.5898 28.9546V34.3978C34.5898 34.4247 34.5797 34.4479 34.5601 34.4658C34.5404 34.4837 34.5168 34.4914 34.4906 34.4885C33.7927 34.4099 33.0954 34.3818 32.404 34.4223C32.3785 34.4238 32.356 34.4154 32.3374 34.3976C32.3189 34.3798 32.3093 34.3573 32.3093 34.3314V28.7473C32.3093 28.3443 31.9888 28.0176 31.5934 28.0176C31.198 28.0176 30.8775 28.3443 30.8775 28.7473V34.5604C30.8775 34.6035 30.8491 34.6397 30.8079 34.6494C30.1839 34.7946 29.5978 35.0022 29.0467 35.2656C29.0183 35.2792 28.9874 35.2772 28.9607 35.2599C28.9341 35.2427 28.9192 35.2151 28.9192 35.183C28.9216 32.7174 28.9248 30.2519 28.9275 27.7863C28.9291 26.225 29.5314 24.8887 30.6924 23.8702L31.8219 22.8796C32.4942 22.2899 32.5713 21.2386 31.9928 20.5534C31.4142 19.8682 30.3828 19.7894 29.7106 20.3792C29.458 20.6009 29.2121 20.8351 28.9659 21.0644C28.6251 21.3817 28.2836 21.6981 27.9368 22.0086C27.5419 22.362 27.1346 22.718 26.7112 23.0357C26.5964 23.1219 26.1707 23.4311 26.0135 23.4568C26.0035 23.4584 25.9948 23.4585 25.9848 23.4568C25.829 23.4307 25.4036 23.1218 25.2889 23.0357C24.8656 22.718 24.4584 22.362 24.0634 22.0086C23.7165 21.6982 23.3749 21.3818 23.0342 21.0644C22.788 20.8352 22.5422 20.6009 22.2896 20.3792C21.6173 19.7894 20.5859 19.8682 20.0074 20.5534C19.4288 21.2386 19.506 22.2898 20.1783 22.8796L21.3077 23.8702C22.4687 24.8886 23.071 26.225 23.0727 27.7863C23.0754 30.2519 23.0785 32.7174 23.0809 35.183C23.0809 35.2151 23.066 35.2428 23.0395 35.26C23.0129 35.2773 22.9821 35.2793 22.9535 35.2657C22.4024 35.0024 21.8164 34.7948 21.1924 34.6495C21.1512 34.6398 21.1228 34.6036 21.1228 34.5605V28.7474C21.1228 28.3444 20.8022 28.0177 20.4068 28.0177C20.0114 28.0177 19.6909 28.3444 19.6909 28.7474V34.3315C19.6909 34.3576 19.6814 34.3799 19.6629 34.3977C19.6443 34.4156 19.6219 34.4239 19.5964 34.4224C18.7732 34.3743 17.9414 34.4236 17.1103 34.539C17.0837 34.5427 17.0595 34.5353 17.0393 34.5174C17.0191 34.4995 17.0086 34.476 17.0086 34.4487V19.6264C17.0086 19.5856 16.9835 19.5511 16.9453 19.5392C16.907 19.5273 16.8672 19.5417 16.8449 19.5755L16.4916 20.1116C16.4904 20.1134 16.4894 20.115 16.4883 20.1169L14.0788 24.3708C13.7214 25.0017 12.9226 25.2198 12.3036 24.8556C11.6847 24.4913 11.4705 23.6771 11.828 23.0463ZM30.0357 23.0919L31.1651 22.1012C31.4139 21.8829 31.4437 21.4764 31.2296 21.223C31.0155 20.9694 30.6167 20.9389 30.368 21.1572C30.1221 21.3729 29.8851 21.5992 29.6456 21.8222C29.2999 22.144 28.9535 22.465 28.6016 22.7798C28.1825 23.1548 27.7582 23.5249 27.3088 23.8622C26.9591 24.1247 26.4871 24.4614 26.0496 24.4836L26.0037 24.4859C26.0006 24.486 25.9979 24.486 25.9948 24.4859L25.9489 24.4836C25.5124 24.4611 25.0412 24.1241 24.6921 23.8622C24.2427 23.5249 23.8184 23.1548 23.3992 22.7798C23.0474 22.465 22.7009 22.144 22.3553 21.8222C22.1158 21.5992 21.8788 21.3729 21.6329 21.1572C21.3841 20.9389 20.9853 20.9693 20.7713 21.223C20.5571 21.4765 20.587 21.8831 20.8357 22.1012L21.9652 23.0919C23.3482 24.3049 24.0784 25.9253 24.0804 27.7849C24.0835 30.4793 24.0869 33.1737 24.0893 35.8682C24.0893 35.8994 24.1034 35.9264 24.1289 35.9437C24.7842 36.3918 25.3839 36.9268 25.9349 37.5336C25.9524 37.5529 25.9747 37.5629 26.0006 37.5629C26.0265 37.5629 26.0487 37.553 26.0663 37.5336C26.6173 36.9268 27.217 36.3918 27.8723 35.9437C27.8978 35.9264 27.9119 35.8994 27.9119 35.8682C27.9143 33.1737 27.9178 30.4793 27.9207 27.7849C27.9225 25.9253 28.6526 24.3049 30.0357 23.0919ZM26.0003 18.2736C27.1303 18.2736 28.0465 17.3399 28.0465 16.1881C28.0465 15.0363 27.1303 14.1025 26.0003 14.1025C24.8702 14.1025 23.9541 15.0363 23.9541 16.1881C23.9541 17.3399 24.8702 18.2736 26.0003 18.2736ZM20.7431 12.6195C22.2111 12.6195 23.401 11.4068 23.401 9.91046C23.401 8.41416 22.2111 7.20142 20.7431 7.20142C19.275 7.20142 18.0851 8.41416 18.0851 9.91046C18.0851 11.4068 19.275 12.6195 20.7431 12.6195ZM30.4753 12.6195C31.9434 12.6195 33.1332 11.4068 33.1332 9.91046C33.1332 8.41416 31.9434 7.20142 30.4753 7.20142C29.0072 7.20142 27.8174 8.41416 27.8174 9.91046C27.8174 11.4068 29.0072 12.6195 30.4753 12.6195ZM46.9369 38.9354C46.9171 38.9061 46.8869 38.8891 46.8503 38.886C39.6415 38.2911 31.7082 31.5855 26.0728 39.5434C26.0555 39.568 26.03 39.5819 26.0003 39.5819C25.9704 39.5819 25.9452 39.5681 25.9278 39.5434C20.2923 31.5855 12.359 38.2911 5.15025 38.886C5.11364 38.8891 5.08348 38.9061 5.06352 38.9354C5.04365 38.9645 5.0396 38.9975 5.05187 39.0303L6.39347 42.614C6.41125 42.6616 6.45961 42.6909 6.51286 42.6861C12.9724 42.0975 19.4028 38.0973 25.9327 45.767C25.9501 45.7878 25.9733 45.7989 26.0003 45.7989C26.0273 45.7989 26.0502 45.7878 26.0679 45.767C32.5977 38.0974 39.0281 42.0975 45.4877 42.6861C45.5409 42.6909 45.5892 42.6617 45.6071 42.614L46.9487 39.0303C46.9608 38.9975 46.9568 38.9645 46.9369 38.9354Z" fill="#1955FF"/>
</svg>
