<svg width="45" height="45" viewBox="0 0 45 45" fill="none" xmlns="http://www.w3.org/2000/svg">
<path d="M41.7065 40.4443C41.7065 40.7864 41.4291 41.0638 41.0869 41.0638H3.91351C3.57133 41.0638 3.29395 40.7864 3.29395 40.4443C3.29395 40.1021 3.57133 39.8247 3.91351 39.8247H41.087C41.4291 39.8247 41.7065 40.1021 41.7065 40.4443ZM24.4865 11.1469C24.5013 11.1615 24.509 11.1791 24.5096 11.1999C24.5324 12.0421 25.2229 12.7198 26.0697 12.7198C26.9309 12.7198 27.6348 12.0189 27.6348 11.1569V5.49961C27.6348 4.63777 26.931 3.93604 26.0697 3.93604C25.2085 3.93604 24.509 4.63777 24.509 5.49961V9.46411C24.509 9.50173 24.5053 9.53799 24.498 9.57292C24.4966 9.57975 24.4961 9.5857 24.4965 9.59263C24.5137 9.94156 24.3691 11.0312 24.4865 11.1469ZM30.1922 12.7198C30.9178 12.7198 31.508 12.1289 31.508 11.4025V6.07507C31.508 5.34868 30.9178 4.75774 30.1922 4.75774C29.4665 4.75774 28.872 5.34859 28.872 6.07507V11.1569C28.872 11.2399 28.8675 11.3212 28.8632 11.4025H28.872C28.872 12.1289 29.4665 12.7198 30.1922 12.7198ZM20.2192 8.84437H23.19C23.2326 8.84437 23.2675 8.80954 23.2675 8.76697V5.49961C23.2675 4.63777 22.568 3.93604 21.7068 3.93604C20.8456 3.93604 20.1418 4.63777 20.1418 5.49961V8.76697C20.1418 8.80954 20.1765 8.84437 20.2192 8.84437ZM15.8519 8.84437H18.8271C18.8698 8.84437 18.9046 8.80954 18.9046 8.76697V5.49961C18.9046 4.63777 18.2007 3.93604 17.3395 3.93604C16.4783 3.93604 15.7745 4.63777 15.7745 5.49961V8.76697C15.7744 8.80954 15.8093 8.84437 15.8519 8.84437ZM15.7089 21.3711C17.558 22.9664 18.4718 25.0994 18.3625 27.5381L17.846 38.5765C17.845 38.5985 17.8523 38.6177 17.8674 38.6336C17.8825 38.6494 17.9014 38.6575 17.9234 38.6575H28.7586C28.7808 38.6575 28.7999 38.6492 28.8152 38.633C28.8304 38.6168 28.8374 38.5972 28.8359 38.5751L28.0544 26.5824C27.967 25.2053 28.2031 23.9855 28.8019 22.7433L30.7124 18.7952C31.2501 17.6816 31.4905 16.6345 31.4905 15.3984V13.7366C31.4905 13.7087 31.477 13.6847 31.4531 13.6703C31.4293 13.6559 31.4018 13.6551 31.3771 13.6681C30.321 14.222 29.0198 13.9679 28.2463 13.0578C28.2314 13.0403 28.2119 13.0311 28.1888 13.0305C28.1659 13.0301 28.146 13.0385 28.1304 13.0554C26.9142 14.3712 24.803 14.226 23.7809 12.7675C23.7664 12.7469 23.7451 12.7352 23.7199 12.7344C23.6948 12.7336 23.6727 12.7438 23.657 12.7635C22.8652 13.7544 21.6788 14.2942 20.0016 14.5253C19.97 14.5296 19.9455 14.5513 19.9373 14.5822C19.9292 14.6131 19.9398 14.6441 19.9651 14.6635C21.1778 15.5907 22.075 16.6682 22.6333 17.8835C22.7776 18.1941 22.6421 18.5627 22.3316 18.7059C22.0252 18.8482 21.6556 18.7181 21.5098 18.4033C20.806 16.8854 19.4682 15.5998 17.5229 14.5829C16.9545 14.2859 17.1634 13.4151 17.8114 13.4151C20.2111 13.4151 21.7483 13.0225 22.5634 12.1388C23.0127 11.6507 23.2483 11.0004 23.2702 10.163C23.2707 10.1414 23.2633 10.1225 23.2482 10.1069C23.2331 10.0914 23.2145 10.0835 23.1928 10.0835H15.4026C14.3491 10.0835 13.4922 10.9401 13.4922 11.9925V16.5083C13.4925 18.436 14.2575 20.1172 15.7089 21.3711Z" fill="#1955FF"/>
</svg>
