<svg width="49" height="49" viewBox="0 0 49 49" fill="none" xmlns="http://www.w3.org/2000/svg">
<path fill-rule="evenodd" clip-rule="evenodd" d="M41.3833 35.0792H41.2947H40.62H39.945H31.7429H31.0698H30.3967H30.0023C29.9653 35.0792 29.9337 35.1021 29.9223 35.1372C29.91 35.1746 29.9032 35.2194 29.9032 35.2694V36.555C29.9032 36.6015 29.8653 36.6393 29.8189 36.6393H27.0021C26.9666 36.6393 26.9363 36.6186 26.9235 36.5855C26.8207 36.321 26.6638 36.0831 26.4664 35.8859C26.1004 35.5198 25.595 35.2927 25.0383 35.2927H23.9611C23.4046 35.2927 22.899 35.5198 22.5331 35.8859C22.3358 36.0831 22.1788 36.321 22.076 36.5855C22.0632 36.6186 22.0329 36.6393 21.9974 36.6393H19.1806C19.1341 36.6393 19.0963 36.6015 19.0963 36.555V35.2694C19.0963 35.2194 19.0893 35.1746 19.0772 35.1372C19.0656 35.1021 19.0342 35.0792 18.9971 35.0792H18.6028H17.9296H17.2565H9.05434H8.37931H7.70468H7.61609C7.57905 35.0792 7.54749 35.1021 7.53593 35.1372C7.52368 35.1746 7.51682 35.2194 7.51682 35.2694V39.3584C7.51682 39.4085 7.52368 39.4533 7.53593 39.4906C7.54749 39.5258 7.57895 39.5486 7.61599 39.5486H18.997C19.0341 39.5486 19.0656 39.5258 19.0771 39.4906C19.0893 39.4533 19.0962 39.4085 19.0962 39.3584V38.0728C19.0962 38.0264 19.134 37.9885 19.1805 37.9885H21.9973C22.0328 37.9885 22.0631 38.0092 22.0759 38.0423C22.1787 38.3069 22.3356 38.5447 22.5329 38.742C22.8988 39.108 23.4044 39.3352 23.9609 39.3352H25.0381C25.5947 39.3352 26.1002 39.108 26.4662 38.742C26.6635 38.5447 26.8205 38.3069 26.9232 38.0423C26.936 38.0093 26.9663 37.9885 27.0018 37.9885H29.8186C29.865 37.9885 29.9029 38.0264 29.9029 38.0728V39.3584C29.9029 39.4085 29.9098 39.4533 29.922 39.4906C29.9335 39.5258 29.965 39.5486 30.002 39.5486H41.383C41.42 39.5486 41.4516 39.5258 41.463 39.4906C41.4753 39.4533 41.4822 39.4085 41.4822 39.3584V35.2694C41.4822 35.2194 41.4753 35.1746 41.463 35.1372C41.4519 35.1021 41.4204 35.0792 41.3833 35.0792ZM25.5125 37.7879C25.3904 37.91 25.2225 37.9859 25.0383 37.9859H23.9611C23.777 37.9859 23.6091 37.9101 23.487 37.7879C23.3649 37.6658 23.289 37.498 23.289 37.3139C23.289 37.1299 23.3649 36.9619 23.487 36.8399C23.6091 36.7178 23.777 36.6419 23.9611 36.6419H25.0383C25.2225 36.6419 25.3904 36.7178 25.5125 36.8399C25.6346 36.962 25.7104 37.1299 25.7104 37.3139C25.7103 37.498 25.6346 37.6658 25.5125 37.7879ZM8.22046 25.8154C7.93096 25.6276 7.64921 25.4252 7.3753 25.2093C5.71558 23.9014 5.00586 22.4844 4.93902 21.0578C4.87033 19.5919 5.45891 18.078 6.3905 16.637C6.63531 16.2583 6.91853 15.8676 7.23173 15.4701L11.2866 10.3245C11.3598 10.2316 11.4306 10.1487 11.4987 10.0763C11.8308 9.72319 12.1765 9.507 12.5184 9.46074C12.8398 9.41723 13.1926 9.52777 13.5665 9.82246C13.6346 9.87607 13.6991 9.93154 13.7598 9.98867L18.2208 14.184C18.5745 14.5167 18.6922 14.939 18.6475 15.3461C18.617 15.6223 18.5156 15.8939 18.3632 16.1319C18.2116 16.3688 18.0128 16.5683 17.7872 16.7018C17.5113 16.865 17.1897 16.9258 16.868 16.8209C16.8563 16.8171 16.847 16.8117 16.8379 16.8036L15.2044 15.34C15.1231 15.267 15.0412 15.2023 14.9592 15.1456C14.465 14.8035 13.8934 14.6752 13.3404 14.7478C12.7935 14.8196 12.2699 15.0882 11.8644 15.5409C11.7901 15.6238 11.7214 15.7102 11.6591 15.8L11.657 15.8029C11.2541 16.3849 11.0966 17.0961 11.1673 17.7729C11.2388 18.457 11.5438 19.1153 12.0651 19.5825L15.358 22.5332C15.6345 22.7806 16.0593 22.757 16.3067 22.4804C16.5541 22.2039 16.5306 21.7791 16.254 21.5318L12.9611 18.5811C12.6991 18.3463 12.5443 18.0017 12.5061 17.636C12.4688 17.2788 12.543 16.9096 12.737 16.6076C12.7385 16.6052 12.7399 16.6033 12.7416 16.6011C12.7583 16.5798 12.7739 16.5573 12.788 16.534C12.7894 16.5316 12.7908 16.5297 12.7924 16.5275C12.8169 16.4944 12.8414 16.4642 12.8659 16.437C13.0488 16.2327 13.2787 16.1124 13.5144 16.0814C13.7439 16.0513 13.9841 16.1066 14.1951 16.2526C14.2361 16.2811 14.2741 16.3107 14.3085 16.3416L16.068 17.9183C16.0887 17.9369 16.1101 17.9538 16.1324 17.9693C16.1357 17.9717 16.1386 17.9739 16.1416 17.9767C16.7535 18.5459 17.3199 19.0529 17.8862 19.5598C18.4255 20.0426 18.9648 20.5253 19.6856 21.1978C19.6873 21.1995 19.6888 21.2009 19.6904 21.2027C21.0754 22.7231 20.1463 24.5093 19.1148 26.4912C18.2161 28.2179 17.2513 30.0725 17.3781 32.1902C17.3783 32.1932 17.3783 32.1958 17.3782 32.1988L17.317 33.6499C17.3151 33.6951 17.278 33.7306 17.2328 33.7306H9.34373C9.31776 33.7306 9.29542 33.7202 9.27886 33.7002C9.26229 33.6802 9.25612 33.6563 9.26092 33.6308C9.36794 33.0626 9.49602 32.5155 9.61794 31.9946C10.2313 29.3752 10.7098 27.3319 8.22134 25.8147L8.22046 25.8154ZM44.0604 21.0578C43.9936 22.4843 43.2839 23.9013 41.6242 25.2093C41.3501 25.4252 41.0685 25.6276 40.779 25.8154L40.7781 25.8139C38.2897 27.3311 38.7681 29.3744 39.3815 31.9938C39.5035 32.5148 39.6316 33.0618 39.7385 33.63C39.7433 33.6555 39.7372 33.6794 39.7206 33.6994C39.704 33.7194 39.6817 33.7299 39.6557 33.7299H31.7669C31.7217 33.7299 31.6846 33.6943 31.6827 33.6491L31.6215 32.198C31.6214 32.195 31.6214 32.1924 31.6216 32.1894C31.7485 30.0718 30.7836 28.2173 29.8849 26.4904C28.8535 24.5085 27.9243 22.7222 29.3094 21.2019C29.311 21.2002 29.3124 21.1987 29.3142 21.197C30.035 20.5246 30.5744 20.0418 31.1136 19.5591C31.6799 19.0522 32.2462 18.5451 32.8581 17.976C32.8612 17.9731 32.8639 17.9709 32.8674 17.9685C32.8895 17.953 32.911 17.9361 32.9316 17.9176L34.6911 16.3408C34.7255 16.31 34.7636 16.2803 34.8045 16.2518C35.0155 16.1058 35.2557 16.0506 35.4852 16.0806C35.7209 16.1116 35.9508 16.232 36.1338 16.4362C36.1582 16.4634 36.1827 16.4936 36.2072 16.5267C36.2088 16.5289 36.2101 16.5309 36.2116 16.5332C36.2257 16.5565 36.2412 16.5791 36.2581 16.6004C36.2597 16.6026 36.2612 16.6046 36.2627 16.6069C36.4566 16.9089 36.5309 17.2781 36.4937 17.6353C36.4554 18.0012 36.3007 18.3456 36.0386 18.5804L32.7457 21.5311C32.4692 21.7786 32.4457 22.2033 32.693 22.4797C32.9405 22.7563 33.3652 22.7799 33.6418 22.5325L36.9347 19.5818C37.4559 19.1147 37.761 18.4565 37.8324 17.7722C37.9031 17.0955 37.7455 16.3842 37.3427 15.8022L37.3407 15.7993C37.2783 15.7095 37.2096 15.623 37.1354 15.5402C36.7298 15.0876 36.2062 14.8189 35.6594 14.7472C35.1064 14.6746 34.5347 14.8029 34.0405 15.1449C33.9586 15.2017 33.8767 15.2664 33.7953 15.3393L32.1619 16.8029C32.1527 16.8111 32.1434 16.8165 32.1318 16.8202C31.81 16.9251 31.4884 16.8643 31.2125 16.7011C30.9868 16.5675 30.7882 16.3681 30.6366 16.1312C30.4842 15.8933 30.3828 15.6217 30.3523 15.3454C30.3074 14.9385 30.4252 14.516 30.779 14.1833L35.2399 9.98798C35.3006 9.93085 35.3652 9.87548 35.4333 9.82178C35.8072 9.52719 36.1599 9.41655 36.4813 9.46006C36.8231 9.50631 37.169 9.7226 37.5011 10.0756C37.5692 10.148 37.64 10.2308 37.7132 10.3238L41.768 15.4694C42.0812 15.8668 42.3643 16.2575 42.6092 16.6363C43.5405 18.078 44.1291 19.5919 44.0604 21.0578Z" fill="#1955FF"/>
</svg>
