<svg width="49" height="49" viewBox="0 0 49 49" fill="none" xmlns="http://www.w3.org/2000/svg">
<path fill-rule="evenodd" clip-rule="evenodd" d="M32.3277 4.3308C32.804 2.55278 34.6318 1.49762 36.4097 1.974C38.1877 2.45047 39.2428 4.27798 38.7665 6.05599C38.2901 7.834 36.4625 8.88917 34.6845 8.41269C32.9064 7.93651 31.8513 6.10881 32.3277 4.3308ZM39.4369 12.9078L29.6004 10.272L29.5901 10.3105C29.57 10.2937 29.5497 10.277 29.5294 10.2606C29.5197 10.2527 29.5101 10.2478 29.498 10.2446C27.2303 9.63515 26.5504 9.09291 24.6562 10.6239L17.0724 16.7532C17.0721 16.7535 17.0717 16.7537 17.0714 16.754C16.8771 16.7213 16.6777 16.7035 16.474 16.7035C15.1232 16.7035 13.9471 17.4508 13.3364 18.5546C13.3141 18.5948 13.3282 18.6456 13.368 18.6685L14.7177 19.4478C14.7382 19.4596 14.7602 19.4623 14.783 19.4558C14.8059 19.4494 14.8231 19.4353 14.8343 19.4145C15.0625 18.9867 15.4535 18.6595 15.9243 18.5138C15.9115 18.8004 16.0058 19.0781 16.2519 19.3243C16.8224 19.8948 17.5921 20.162 18.3104 20.0066C18.3244 20.0982 18.3316 20.192 18.3316 20.2876C18.3316 20.6488 18.2284 20.9857 18.0501 21.271C18.0374 21.2911 18.034 21.313 18.0398 21.3361C18.0455 21.3591 18.0589 21.3768 18.0794 21.3887L19.4292 22.168C19.4689 22.1909 19.5199 22.1779 19.5436 22.1386C19.8701 21.5983 20.0581 20.9649 20.0581 20.2876C20.0581 19.8626 19.9837 19.4552 19.848 19.0771L25.1043 15.1537C26.6625 13.9907 28.4258 14.6562 28.0569 16.0329L27.4127 18.4372L20.5013 44.2307C20.1722 45.459 20.9078 46.733 22.1361 47.062C23.3639 47.391 24.6376 46.6559 24.9671 45.4284C24.9672 45.4279 24.9674 45.4276 24.9675 45.4271L29.794 28.5082C29.847 28.3222 29.9964 28.1928 30.1881 28.1669C30.3798 28.1411 30.5585 28.2259 30.6587 28.3915L34.7261 35.1067C34.7264 35.1073 34.7267 35.1077 34.7271 35.1083C34.9325 35.4651 34.8094 35.9237 34.4529 36.1295L30.3482 38.4994C27.293 40.2633 30.1288 43.2752 32.3614 41.9863L37.055 39.2765C39.2929 37.9845 40.0644 35.1054 38.7723 32.8673L35.1864 26.6564C34.8213 26.0239 34.7324 25.3494 34.9214 24.6439L36.5771 18.4648C37.0617 16.6564 39.4865 17.2121 38.9923 19.0568L37.4641 24.76C36.7774 27.3231 39.7628 28.0238 40.4497 25.4605L42.2966 18.5677C42.9361 16.1801 41.8243 13.5475 39.4369 12.9078ZM20.8007 23.7492L11.531 18.3973C10.8731 18.0175 10.0241 18.2449 9.6443 18.9028L6.70939 23.9862C6.32955 24.644 6.557 25.493 7.21488 25.8729L16.4846 31.2247C17.1425 31.6046 17.9914 31.377 18.3713 30.7192L21.3062 25.6358C21.686 24.978 21.4586 24.1291 20.8007 23.7492Z" fill="#1955FF"/>
</svg>
