<svg width="49" height="49" viewBox="0 0 49 49" fill="none" xmlns="http://www.w3.org/2000/svg">
<path fill-rule="evenodd" clip-rule="evenodd" d="M10.8639 27.0619C10.8986 27.1459 10.9178 27.2377 10.9178 27.3335V27.7366V41.8938V42.2968C10.9178 42.3927 10.8986 42.4844 10.8639 42.5684C10.8272 42.6572 10.7731 42.7373 10.7059 42.8046C10.5751 42.9353 10.3953 43.0165 10.1981 43.0165H5.99706C5.79988 43.0165 5.62005 42.9354 5.48932 42.8046C5.35859 42.6738 5.27734 42.494 5.27734 42.2968V27.3335C5.27734 27.1363 5.35859 26.9565 5.48932 26.8258C5.62005 26.695 5.79988 26.6138 5.99706 26.6138H10.1982C10.3954 26.6138 10.5752 26.695 10.706 26.8258C10.7731 26.8929 10.8272 26.9732 10.8639 27.0619ZM25.862 37.3188C25.845 37.33 25.8276 37.3402 25.81 37.3496C25.8082 37.3505 25.8069 37.3514 25.8052 37.3523C24.9556 37.8806 23.4555 38.1842 21.78 37.9971C21.7737 37.9964 21.7683 37.9963 21.7621 37.997C21.7398 37.9992 21.7199 38.0027 21.7021 38.0073C21.6458 38.0218 21.6063 38.0644 21.5794 38.1213C21.531 38.2237 21.508 38.3588 21.5023 38.5055C21.5009 38.5426 21.5006 38.5804 21.5012 38.6186C21.5036 38.7579 21.519 38.898 21.542 39.0287C21.5453 39.0479 21.5539 39.0634 21.5683 39.0765C22.0389 39.504 22.4619 39.77 22.8594 39.938C23.4732 40.1974 24.0263 40.2233 24.5996 40.25C25.2894 40.2822 26.0033 40.3156 26.8602 40.632C26.8884 40.6425 26.9178 40.6379 26.9414 40.6193L29.8914 38.3014C29.8938 38.2995 29.8956 38.2979 29.8978 38.2959C30.4937 37.7224 30.7726 37.104 30.7629 36.445C30.7524 35.7299 30.4144 34.9284 29.7824 34.0494C29.7812 34.0477 29.78 34.0461 29.7785 34.0444L24.8558 28.184C24.8545 28.1825 24.8533 28.1812 24.852 28.1798C23.3717 26.6419 21.9488 27.188 20.5259 27.7343C19.8153 28.0072 19.1047 28.2801 18.3551 28.3754C18.1754 28.3983 17.9934 28.4109 17.8086 28.4109H17.6805H17.0059H12.3513C12.3048 28.4109 12.267 28.4487 12.267 28.4952V41.1345C12.267 41.1809 12.3048 41.2187 12.3513 41.2187H14.6233V41.2201C14.6598 41.2202 14.6968 41.2231 14.734 41.2293C17.0601 41.6213 17.9249 42.1013 19.0699 42.7367C19.5691 43.0137 20.1266 43.3231 20.9311 43.6782C22.1706 44.2255 24.0839 44.1625 25.4765 43.6913C25.8645 43.56 26.2018 43.4 26.4583 43.2168C26.5078 43.1814 26.5542 43.1451 26.5975 43.1081C26.7843 42.948 26.8997 42.7823 26.9132 42.621C26.9137 42.6148 26.9141 42.6086 26.9144 42.6024C26.9202 42.4376 26.8314 42.2357 26.623 41.9942C26.6141 41.9839 26.6043 41.9768 26.5918 41.9715C25.8343 41.6542 25.1759 41.6235 24.5416 41.5939C24.3602 41.5855 24.1805 41.577 24.0006 41.564C23.4141 41.5216 22.8268 41.4298 22.1801 41.1259C21.6803 40.891 21.145 40.5293 20.5474 39.9654C19.9363 39.3888 19.3752 38.695 18.951 37.9955C18.5299 37.301 18.2397 36.5896 18.1594 35.9608C18.1348 35.7664 18.196 35.5809 18.3133 35.4422C18.4183 35.3184 18.568 35.2318 18.7418 35.2099C18.8116 35.201 18.8803 35.2033 18.9461 35.2152C19.2272 35.2661 19.4551 35.4939 19.4928 35.7922C19.5485 36.2288 19.7715 36.7583 20.0999 37.2998C20.1434 37.3714 20.1886 37.4431 20.2355 37.5146C20.2524 37.5405 20.2799 37.5543 20.3108 37.5526C20.3418 37.5508 20.3675 37.5338 20.3813 37.5062C20.4422 37.3849 20.5153 37.2724 20.6022 37.1714C20.7893 36.9541 21.0402 36.7899 21.3698 36.7052C21.483 36.6761 21.6038 36.6579 21.7323 36.6518C21.7339 36.6517 21.7353 36.6516 21.7368 36.6515C21.7841 36.6467 21.8325 36.6469 21.8815 36.6525C23.2709 36.8156 24.4582 36.6052 25.0829 36.2196C25.0851 36.2182 25.087 36.2168 25.089 36.2153C25.1003 36.2069 25.112 36.1987 25.124 36.1908C25.262 36.1002 25.3477 36.0189 25.3698 35.9536C25.3735 35.9424 25.3615 35.9156 25.3309 35.8715C25.0888 35.5227 24.3687 35.1409 22.9958 34.7876C22.6364 34.6959 22.4193 34.3301 22.5109 33.9707C22.6026 33.6112 22.9684 33.394 23.3279 33.4858C25.0491 33.9287 26.0262 34.5142 26.4377 35.1073C26.7303 35.5291 26.7862 35.9619 26.6453 36.3805C26.5227 36.7449 26.2511 37.0634 25.862 37.3188ZM43.1958 20.126C43.0187 19.9041 42.807 19.7364 42.5765 19.6385C42.36 19.5465 42.1231 19.5156 41.8808 19.5595C41.193 19.6842 40.4346 20.3791 39.8243 21.9024L37.6124 27.4226C37.5135 27.6697 37.3482 27.8662 37.1454 27.9908C36.9065 28.1374 36.6283 28.1818 36.3434 28.0987C36.0837 28.0229 35.8718 27.8537 35.7303 27.627C35.6095 27.4337 35.5395 27.1966 35.5395 26.9465V9.70193C35.5395 9.34855 35.4117 9.03103 35.2056 8.80425C35.0147 8.59414 34.7561 8.4637 34.4761 8.4637H33.1106C32.8306 8.4637 32.5721 8.59414 32.3812 8.80425C32.1751 9.03103 32.0472 9.34855 32.0472 9.70193V22.103C32.0472 22.4755 31.7452 22.7776 31.3726 22.7776C31 22.7776 30.698 22.4755 30.698 22.103V9.70193V6.71999C30.698 6.16149 30.5074 5.72843 30.1978 5.43472C29.8525 5.1073 29.3467 4.93286 28.7769 4.93286C28.207 4.93286 27.7012 5.1073 27.356 5.43472C27.0463 5.72843 26.8558 6.16149 26.8558 6.71999V10.4291V21.0421C26.8558 21.4147 26.5537 21.7167 26.1811 21.7167C25.8085 21.7167 25.5065 21.4147 25.5065 21.0421V10.4291C25.5065 10.0757 25.3786 9.75819 25.1725 9.53141C24.9816 9.3213 24.7231 9.19086 24.4431 9.19086H23.6689C23.3889 9.19086 23.1304 9.3213 22.9395 9.53141C22.7334 9.75819 22.6055 10.0757 22.6055 10.4291V16.2277V22.6801C22.6055 23.0527 22.3035 23.3547 21.9309 23.3547C21.5583 23.3547 21.2562 23.0527 21.2562 22.6801V16.2277C21.2562 16.2263 21.2562 16.2249 21.2562 16.2235C21.2562 16.2231 21.2562 16.2228 21.2562 16.2223C21.255 15.871 21.1273 15.5556 20.9223 15.33C20.7314 15.1199 20.4727 14.9894 20.1928 14.9894H19.4186C19.1387 14.9894 18.8801 15.1199 18.6892 15.33C18.4831 15.5567 18.3552 15.8743 18.3552 16.2277V26.9108C18.3552 26.9369 18.3658 26.9593 18.386 26.976C18.4062 26.9926 18.4303 26.9986 18.4559 26.9935C18.9778 26.8904 19.5122 26.6853 20.0464 26.4801C21.8944 25.7705 23.7425 25.0609 25.8468 27.2727C25.8567 27.2831 25.8662 27.2939 25.8753 27.3048L25.8758 27.3044L30.8307 33.2032C30.8408 33.2153 30.8504 33.2276 30.8596 33.2403C31.6622 34.3499 32.0921 35.4148 32.107 36.4295C32.1226 37.49 31.6929 38.4557 30.7727 39.3166C30.7585 39.3298 30.7439 39.3423 30.729 39.3541L30.7306 39.3561L28.008 41.4953C27.9751 41.5212 27.9661 41.5663 27.9866 41.6028C28.0682 41.7482 28.1306 41.8931 28.1749 42.0366C28.1856 42.0713 28.2155 42.0944 28.2518 42.096C29.6746 42.1587 31.1245 41.8874 32.505 41.3065C35.424 40.0782 38.0373 37.4713 39.4587 33.7091L43.4694 23.0932C43.9269 21.8824 43.7219 20.7853 43.1958 20.126Z" fill="#1955FF"/>
</svg>
