<svg width="49" height="49" viewBox="0 0 49 49" fill="none" xmlns="http://www.w3.org/2000/svg">
<path fill-rule="evenodd" clip-rule="evenodd" d="M43.8528 41.2747C43.121 42.0065 41.9234 42.0065 41.1915 41.2747L38.5945 38.6777C38.0913 38.1745 37.9341 37.451 38.1229 36.8102L35.55 34.2373C35.3676 34.3781 35.1798 34.5086 34.9875 34.6287C33.8668 35.3287 32.59 35.6787 31.313 35.6787C29.536 35.6787 27.7589 35.0007 26.4029 33.6449C25.9235 33.1655 25.5289 32.6333 25.219 32.0672C25.0986 31.8471 24.9909 31.6219 24.896 31.3926C24.8044 31.1711 24.7248 30.9459 24.6571 30.7179C24.4652 30.0718 24.3692 29.4034 24.3692 28.7348C24.3692 28.7295 24.3692 28.7242 24.3692 28.7189C24.3697 28.4937 24.3811 28.2686 24.4035 28.0443C24.4259 27.8182 24.4594 27.5931 24.504 27.3697C24.7632 26.0707 25.3962 24.8316 26.4029 23.8248C27.7588 22.469 29.5359 21.7911 31.313 21.7911C31.5047 21.7911 31.6964 21.7989 31.8875 21.8147C32.1134 21.8333 32.3385 21.863 32.5621 21.9037C32.789 21.945 33.0142 21.9976 33.2368 22.0616C33.8532 22.2387 34.4499 22.5027 35.0075 22.8537C35.2396 22.9998 35.465 23.161 35.6822 23.3372C35.8689 23.4887 36.0494 23.6511 36.2231 23.8249C36.2684 23.8703 36.313 23.916 36.3568 23.9622C37.6252 25.3011 38.2595 27.0187 38.2595 28.735H38.2568C38.2568 30.0119 37.9068 31.2888 37.2069 32.4094C37.0867 32.6018 36.9562 32.7895 36.8153 32.9719L39.3882 35.5448C40.0291 35.356 40.7525 35.5132 41.2557 36.0164L43.8528 38.6135C44.5847 39.3453 44.5847 40.5428 43.8528 41.2747ZM20.9387 26.9088C20.6557 26.6258 20.4796 26.2362 20.4778 25.8073C20.4778 25.805 20.4778 25.8026 20.4778 25.8003V14.3558C20.4778 14.3512 20.4778 14.3466 20.4778 14.342C20.4793 13.5044 20.6264 12.6993 20.895 11.9505C20.9776 11.72 21.0717 11.4949 21.1767 11.2759C21.2878 11.044 21.411 10.8188 21.5456 10.6013C21.8412 10.123 22.1914 9.68164 22.5873 9.28572C23.889 7.98408 25.6837 7.17627 27.6573 7.17627H30.3181C30.7498 7.17627 31.1422 7.35267 31.4266 7.63716C31.7111 7.92166 31.8875 8.31395 31.8875 8.74564V10.6013V11.2759V11.9505V20.3717C31.8875 20.3958 31.8785 20.4165 31.8611 20.433C31.8435 20.4496 31.8223 20.4573 31.7983 20.4559C31.6367 20.4464 31.4749 20.4417 31.313 20.4417C29.1908 20.4417 27.0684 21.2514 25.449 22.8708C24.1962 24.1237 23.4279 25.6777 23.1444 27.2999C23.1373 27.3407 23.1027 27.3697 23.0614 27.3697H22.0472C21.6154 27.3697 21.2232 27.1933 20.9387 26.9088ZM23.4136 16.1509C23.4136 16.5235 23.7156 16.8255 24.0882 16.8255H28.2771C28.6497 16.8255 28.9517 16.5235 28.9517 16.1509C28.9517 15.7783 28.6497 15.4763 28.2771 15.4763H24.0882C23.7156 15.4763 23.4136 15.7784 23.4136 16.1509ZM8.17955 26.9088C7.89506 26.6243 7.71866 26.232 7.71866 25.8003V11.9505V11.2759V10.6013V8.74574C7.71866 8.31405 7.89506 7.92166 8.17955 7.63726C8.46405 7.35277 8.85634 7.17637 9.28803 7.17637H11.9488C13.9225 7.17637 15.7172 7.98428 17.0189 9.28582C17.4147 9.68164 17.7649 10.1231 18.0606 10.6014C18.1952 10.8189 18.3183 11.0441 18.4295 11.276C18.5344 11.495 18.6286 11.7201 18.7112 11.9506C18.9797 12.6994 19.1268 13.5045 19.1284 14.3421V14.3558V25.8004V25.8074C19.1265 26.2364 18.9504 26.6259 18.6675 26.9089C18.383 27.1934 17.9907 27.3698 17.5589 27.3698H9.28803C8.85634 27.3697 8.46405 27.1933 8.17955 26.9088ZM10.6544 16.1509C10.6544 16.5235 10.9565 16.8255 11.3291 16.8255H15.518C15.8906 16.8255 16.1926 16.5235 16.1926 16.1509C16.1926 15.7783 15.8906 15.4763 15.518 15.4763H11.3291C10.9565 15.4763 10.6544 15.7784 10.6544 16.1509ZM10.6544 21.4619C10.6544 21.8345 10.9565 22.1366 11.3291 22.1366H15.518C15.8906 22.1366 16.1926 21.8345 16.1926 21.4619C16.1926 21.0893 15.8906 20.7873 15.518 20.7873H11.3291C10.9565 20.7873 10.6544 21.0893 10.6544 21.4619ZM23.0203 28.8025C23.0199 28.7564 22.9822 28.7189 22.936 28.7189H22.0471C21.243 28.7189 20.5131 28.3912 19.9846 27.8627C19.9439 27.8219 19.9044 27.78 19.8661 27.737C19.8495 27.7183 19.8279 27.7086 19.803 27.7086C19.778 27.7086 19.7566 27.7182 19.74 27.737C19.7018 27.78 19.6621 27.8219 19.6214 27.8627C19.0929 28.3912 18.3631 28.7189 17.5589 28.7189H9.28803C8.48394 28.7189 7.75404 28.3912 7.22552 27.8628C6.69701 27.3343 6.36939 26.6046 6.36939 25.8003V12.0348C6.36939 11.9884 6.33157 11.9505 6.28512 11.9505H5.77885C5.48906 11.9505 5.21368 12.1213 5.00327 12.3965C4.75347 12.7233 4.59863 13.1848 4.59863 13.7026V28.9659C4.59863 29.4837 4.75357 29.9452 5.00327 30.2719C5.21368 30.5472 5.48916 30.7179 5.77885 30.7179H23.1526C23.1791 30.7179 23.2021 30.7069 23.2186 30.6861C23.2352 30.6653 23.2408 30.6405 23.2348 30.6145C23.0967 30.0189 23.0252 29.411 23.0203 28.8025ZM33.301 20.6823C33.8435 20.8157 34.3751 21.0046 34.8869 21.2489C34.9138 21.2617 34.9431 21.2599 34.9681 21.2441C34.9934 21.2282 35.0075 21.2025 35.0075 21.1727V13.7025C35.0075 13.1847 34.8526 12.7233 34.6029 12.3964C34.3925 12.1212 34.1171 11.9504 33.8273 11.9504H33.3212C33.2747 11.9504 33.2368 11.9883 33.2368 12.0347V20.6003C33.2368 20.6397 33.2627 20.6729 33.301 20.6823Z" fill="#1955FF"/>
</svg>
