<svg width="49" height="49" viewBox="0 0 49 49" fill="none" xmlns="http://www.w3.org/2000/svg">
<path fill-rule="evenodd" clip-rule="evenodd" d="M43.1098 4.72657C38.9149 11.6463 32.2316 24.7945 25.4969 28.0341C24.9135 29.8943 24.4286 31.8027 24.0602 33.7162C23.9903 34.0815 23.6375 34.3209 23.2722 34.2511C22.9069 34.1813 22.6675 33.8285 22.7373 33.4632C23.1611 31.2623 23.7369 29.0661 24.4376 26.9368C21.4002 13.7807 33.9599 4.6323 43.0374 4.59839C43.0687 4.59839 43.0952 4.61407 43.1108 4.64121C43.1264 4.66846 43.126 4.69972 43.1098 4.72657ZM14.8673 38.988H32.6346C32.681 38.988 32.7189 38.9501 32.7189 38.9037V38.0154C32.7189 37.477 32.4981 36.9869 32.1424 36.6313C31.7868 36.2756 31.2967 36.0548 30.7583 36.0548H16.7436C16.2052 36.0548 15.7152 36.2756 15.3594 36.6313C15.0038 36.9869 14.783 37.477 14.783 38.0154V38.9037C14.783 38.9501 14.8208 38.988 14.8673 38.988ZM40.8775 40.3372H34.0681H33.3935H14.1084H13.4337H6.6244C6.41987 40.3372 6.23338 40.4214 6.09774 40.557C5.96211 40.6926 5.87793 40.8792 5.87793 41.0837V43.6551C5.87793 43.8596 5.96211 44.0461 6.09774 44.1817C6.23338 44.3173 6.41977 44.4015 6.6244 44.4015H40.8775C41.082 44.4015 41.2685 44.3173 41.4041 44.1817C41.5397 44.0461 41.6239 43.8596 41.6239 43.6551V41.0837C41.6239 40.8792 41.5397 40.6927 41.4041 40.557C41.2685 40.4214 41.082 40.3372 40.8775 40.3372Z" fill="#1955FF"/>
</svg>
