<svg width="49" height="49" viewBox="0 0 49 49" fill="none" xmlns="http://www.w3.org/2000/svg">
<path fill-rule="evenodd" clip-rule="evenodd" d="M8.21636 10.3745C8.21636 8.55999 9.68724 7.08911 11.5017 7.08911C13.3162 7.08911 14.7871 8.55999 14.7871 10.3745C14.7871 12.1889 13.3162 13.6599 11.5017 13.6599C9.68724 13.6599 8.21636 12.1889 8.21636 10.3745ZM37.498 13.6599C39.3124 13.6599 40.7833 12.189 40.7833 10.3745C40.7833 8.55999 39.3124 7.08911 37.498 7.08911C35.6835 7.08911 34.2125 8.55999 34.2125 10.3745C34.2126 12.1889 35.6835 13.6599 37.498 13.6599ZM14.3784 29.3054H13.714C13.0944 29.3054 12.5315 29.0525 12.124 28.6449C11.7164 28.2373 11.4635 27.6745 11.4635 27.0549C11.4635 26.4353 11.7165 25.8725 12.124 25.4649C12.5316 25.0573 13.0944 24.8044 13.714 24.8044H16.594C16.6404 24.8044 16.6783 24.7665 16.6783 24.7201V21.031C16.6783 18.5608 15.3477 16.9849 13.6446 16.2996C12.9726 16.0293 12.239 15.8941 11.5016 15.8941C10.7643 15.8941 10.0306 16.0294 9.35864 16.2996C7.80015 16.9266 6.55359 18.2996 6.35318 20.4211C6.34965 20.4586 6.37004 20.4925 6.40473 20.5069C6.64502 20.607 6.86151 20.7534 7.0429 20.9347C7.39982 21.2916 7.6213 21.7846 7.6213 22.3273V30.6217C7.6213 30.6955 7.62943 30.7596 7.64629 30.816C7.66344 30.8735 7.69176 30.9317 7.73155 30.9925L10.0231 34.4877C10.0392 34.5122 10.0643 34.5258 10.0936 34.5258H14.3784C14.4249 34.5258 14.4627 34.488 14.4627 34.4415V29.3899C14.4628 29.3433 14.4249 29.3054 14.3784 29.3054ZM14.3784 35.875H10.1339H9.68459V35.8743C9.61511 35.8742 9.54602 35.8634 9.48007 35.8424C9.33748 35.7971 9.209 35.7042 9.1207 35.5693L9.06719 35.4876L6.60386 31.7303C6.49322 31.5615 6.4109 31.387 6.35524 31.2007C6.34407 31.1633 6.33407 31.1258 6.32515 31.088C6.28958 30.9367 6.27223 30.7823 6.27223 30.6217V22.3273C6.27223 22.1571 6.20206 22.0018 6.08907 21.8888C5.97608 21.7758 5.82075 21.7056 5.65052 21.7056C5.48029 21.7056 5.32496 21.7758 5.21197 21.8888C5.09898 22.0018 5.02881 22.1571 5.02881 22.3273V31.3956C5.02881 31.4694 5.03694 31.5334 5.0538 31.5899C5.07095 31.6474 5.09927 31.7056 5.13906 31.7664L8.24938 36.5104L8.62306 37.0803C8.63913 37.1048 8.66431 37.1185 8.69362 37.1185H9.44969H9.59561H10.9416H12.0501H14.3787C14.4251 37.1185 14.463 37.0806 14.463 37.0342V36.5172V35.9594C14.4628 35.9128 14.4249 35.875 14.3784 35.875ZM9.90676 38.4675H8.71919C8.68823 38.4675 8.66167 38.4829 8.64618 38.5097L6.75557 41.7843C6.74008 41.8112 6.74008 41.8419 6.75557 41.8686C6.77105 41.8954 6.79761 41.9108 6.82858 41.9108H8.01614C8.04711 41.9108 8.07367 41.8955 8.08915 41.8686L9.97977 38.594C9.99525 38.5671 9.99525 38.5364 9.97977 38.5097C9.96428 38.4829 9.93763 38.4675 9.90676 38.4675ZM33.2897 29.3054H32.3213H31.6467H30.9721H18.0276H17.353H16.6784H15.8963C15.8499 29.3054 15.812 29.3432 15.812 29.3897V34.6724V35.4375V35.8424V36.517V37.1917V37.5558V38.3208V41.8265C15.812 41.8729 15.8499 41.9108 15.8963 41.9108H33.2897C33.3361 41.9108 33.3739 41.8729 33.3739 41.8265V38.3866V37.6655V37.1916V36.7672V36.5169V36.2259V35.8423V35.3276V34.6065V29.3897C33.3739 29.3433 33.3361 29.3054 33.2897 29.3054ZM35.4721 27.9563C35.7193 27.9563 35.9445 27.8546 36.1081 27.691C36.2718 27.5273 36.3734 27.3021 36.3734 27.0549C36.3734 26.8078 36.2718 26.5825 36.1081 26.4188C35.9445 26.2552 35.7193 26.1535 35.4721 26.1535H32.3213H31.6467H30.9721H18.0276H17.353H16.6784H13.714C13.4668 26.1535 13.2416 26.2552 13.0779 26.4188C12.9143 26.5825 12.8127 26.8077 12.8127 27.0548C12.8127 27.302 12.9143 27.5273 13.0779 27.691C13.2416 27.8546 13.4668 27.9563 13.714 27.9563H14.4628H15.1374H15.812H16.6784H17.353H18.0276H30.9722H31.6468H32.3214H33.374H34.0487H34.7233H35.4721ZM32.4056 24.8044H35.472C36.0916 24.8044 36.6544 25.0573 37.062 25.4649C37.4696 25.8725 37.7225 26.4353 37.7225 27.0548C37.7225 27.6745 37.4696 28.2373 37.062 28.6449C36.6544 29.0525 36.0916 29.3054 35.472 29.3054H34.8075C34.761 29.3054 34.7232 29.3432 34.7232 29.3897V34.4413C34.7232 34.4878 34.761 34.5256 34.8075 34.5256H38.9059C38.9352 34.5256 38.9604 34.512 38.9765 34.4875L41.268 30.9923C41.3078 30.9316 41.336 30.8734 41.3533 30.8158C41.3701 30.7593 41.3783 30.6952 41.3783 30.6215V22.3273C41.3783 21.7846 41.5999 21.2917 41.9567 20.9347C42.138 20.7534 42.3546 20.6069 42.5949 20.5069C42.6295 20.4925 42.6499 20.4585 42.6464 20.4211C42.446 18.2996 41.1994 16.9266 39.6409 16.2996C38.9691 16.0293 38.2353 15.8941 37.498 15.8941C36.7606 15.8941 36.027 16.0294 35.355 16.2996C33.6519 16.9849 32.3213 18.5608 32.3213 21.031V24.7201C32.3213 24.7665 32.3592 24.8044 32.4056 24.8044ZM43.7878 21.8887C43.6748 21.7757 43.5195 21.7055 43.3493 21.7055C43.179 21.7055 43.0237 21.7757 42.9107 21.8887C42.7977 22.0017 42.7275 22.157 42.7275 22.3272V30.6216C42.7275 30.7823 42.7102 30.9366 42.6746 31.0879C42.6657 31.1257 42.6557 31.1633 42.6445 31.2006C42.589 31.3869 42.5067 31.5614 42.3959 31.7302L39.9326 35.4875L39.8791 35.5692C39.7908 35.7041 39.6623 35.797 39.5197 35.8423C39.4537 35.8633 39.3847 35.8741 39.3152 35.8742V35.8748H38.8659H34.8077C34.7612 35.8748 34.7234 35.9127 34.7234 35.9591V36.5169V37.0339C34.7234 37.0803 34.7612 37.1182 34.8077 37.1182H36.9499H38.0583H39.4044H39.5503H40.3064C40.3357 37.1182 40.3608 37.1046 40.3769 37.0801L40.7506 36.5101L43.8609 31.7661C43.9007 31.7054 43.9289 31.6471 43.9462 31.5896C43.963 31.5332 43.9712 31.469 43.9712 31.3953V22.3273C43.971 22.157 43.9008 22.0017 43.7878 21.8887ZM40.3535 38.5097C40.338 38.4829 40.3115 38.4675 40.2805 38.4675H39.0929C39.062 38.4675 39.0354 38.4829 39.0199 38.5097C39.0044 38.5365 39.0044 38.5672 39.0199 38.594L40.9105 41.8686C40.926 41.8955 40.9526 41.9108 40.9835 41.9108H42.1711C42.2021 41.9108 42.2286 41.8955 42.2441 41.8686C42.2596 41.8418 42.2596 41.8111 42.2441 41.7843L40.3535 38.5097Z" fill="#1955FF"/>
</svg>
