<svg width="19" height="19" viewBox="0 0 19 19" fill="none" xmlns="http://www.w3.org/2000/svg">
<path d="M15.4372 6.33333C16.5302 6.33333 17.4163 5.44723 17.4163 4.35417C17.4163 3.2611 16.5302 2.375 15.4372 2.375C14.3441 2.375 13.458 3.2611 13.458 4.35417C13.458 5.44723 14.3441 6.33333 15.4372 6.33333Z" fill="#8FC908"/>
<path d="M15.4372 6.33333C16.5302 6.33333 17.4163 5.44723 17.4163 4.35417C17.4163 3.2611 16.5302 2.375 15.4372 2.375C14.3441 2.375 13.458 3.2611 13.458 4.35417C13.458 5.44723 14.3441 6.33333 15.4372 6.33333Z" fill="#F8F8F8"/>
<path d="M16.403 7.37043C15.8488 7.54459 15.2393 7.57626 14.6059 7.41793C13.5451 7.14084 12.6822 6.29376 12.3893 5.23293C12.2468 4.71834 12.2388 4.21168 12.3259 3.75251C12.4288 3.24584 12.0726 2.77084 11.5659 2.77084H5.54134C3.16634 2.77084 1.58301 3.95834 1.58301 6.72918V12.2708C1.58301 15.0417 3.16634 16.2292 5.54134 16.2292H13.458C15.833 16.2292 17.4163 15.0417 17.4163 12.2708V8.12251C17.4163 7.60001 16.9097 7.20418 16.403 7.37043ZM12.2863 8.82709L11.3522 9.57126C10.8297 9.99084 10.1647 10.1967 9.49967 10.1967C8.83467 10.1967 8.16176 9.99084 7.64717 9.57126L5.16926 7.59209C4.91592 7.38626 4.87634 7.00626 5.07426 6.75293C5.28009 6.49959 5.65217 6.45209 5.90551 6.65793L8.38342 8.63709C8.98509 9.12001 10.0063 9.12001 10.608 8.63709L11.5422 7.89293C11.7955 7.68709 12.1755 7.72668 12.3734 7.98793C12.5793 8.24126 12.5397 8.62126 12.2863 8.82709Z" fill="#8FC908"/>
</svg>
