<svg width="28" height="28" viewBox="0 0 28 28" fill="none" xmlns="http://www.w3.org/2000/svg">
<path d="M22.1667 10.4999C22.1667 12.1916 21.665 13.7433 20.8017 15.0383C19.5417 16.9049 17.5467 18.2233 15.225 18.5616C14.8284 18.6316 14.42 18.6666 14 18.6666C13.58 18.6666 13.1717 18.6316 12.775 18.5616C10.4534 18.2233 8.45837 16.9049 7.19837 15.0383C6.33504 13.7433 5.83337 12.1916 5.83337 10.4999C5.83337 5.98492 9.48504 2.33325 14 2.33325C18.515 2.33325 22.1667 5.98492 22.1667 10.4999Z" fill="#FF5000"/>
<path d="M24.7917 21.5484L22.8667 22.0034C22.435 22.1084 22.0967 22.4351 22.0033 22.8667L21.595 24.5817C21.3733 25.5151 20.1833 25.7951 19.565 25.0601L14 18.6667L8.43501 25.0717C7.81668 25.8067 6.62668 25.5267 6.40501 24.5934L5.99668 22.8784C5.89168 22.4467 5.55334 22.1084 5.13334 22.0151L3.20834 21.5601C2.32168 21.3501 2.00668 20.2417 2.64834 19.6L7.19834 15.05C8.45834 16.9167 10.4533 18.2351 12.775 18.5734C13.1717 18.6434 13.58 18.6784 14 18.6784C14.42 18.6784 14.8283 18.6434 15.225 18.5734C17.5467 18.2351 19.5417 16.9167 20.8017 15.05L25.3517 19.6C25.9933 20.23 25.6783 21.3384 24.7917 21.5484Z" fill="#131217"/>
<path d="M14.6767 6.97675L15.365 8.35341C15.4583 8.54007 15.7033 8.72675 15.925 8.76175L17.1733 8.97174C17.9667 9.10007 18.1533 9.68341 17.5817 10.2551L16.6133 11.2234C16.45 11.3867 16.3567 11.7017 16.415 11.9351L16.695 13.1367C16.9167 14.0817 16.415 14.4551 15.575 13.9534L14.4083 13.2651C14.1983 13.1367 13.8483 13.1367 13.6383 13.2651L12.4717 13.9534C11.6317 14.4434 11.13 14.0817 11.3517 13.1367L11.6317 11.9351C11.6783 11.7134 11.5967 11.3867 11.4333 11.2234L10.465 10.2551C9.89334 9.68341 10.08 9.11174 10.8733 8.97174L12.1217 8.76175C12.3317 8.72675 12.5767 8.54007 12.67 8.35341L13.3583 6.97675C13.6967 6.23008 14.3033 6.23008 14.6767 6.97675Z" fill="#131217"/>
</svg>
