<svg width="28" height="28" viewBox="0 0 28 28" fill="none" xmlns="http://www.w3.org/2000/svg">
<path d="M25.6667 9.94V4.64333C25.6667 2.99833 24.92 2.33333 23.065 2.33333H18.3517C16.4967 2.33333 15.75 2.99833 15.75 4.64333V9.92833C15.75 11.585 16.4967 12.2383 18.3517 12.2383H23.065C24.92 12.25 25.6667 11.585 25.6667 9.94Z" stroke="white" stroke-width="1.5" stroke-linecap="round" stroke-linejoin="round"/>
<path d="M25.6667 23.065V18.3517C25.6667 16.4967 24.92 15.75 23.065 15.75H18.3517C16.4967 15.75 15.75 16.4967 15.75 18.3517V23.065C15.75 24.92 16.4967 25.6667 18.3517 25.6667H23.065C24.92 25.6667 25.6667 24.92 25.6667 23.065Z" stroke="white" stroke-width="1.5" stroke-linecap="round" stroke-linejoin="round"/>
<path d="M12.2499 9.94V4.64333C12.2499 2.99833 11.5033 2.33333 9.64825 2.33333H4.93492C3.07992 2.33333 2.33325 2.99833 2.33325 4.64333V9.92833C2.33325 11.585 3.07992 12.2383 4.93492 12.2383H9.64825C11.5033 12.25 12.2499 11.585 12.2499 9.94Z" stroke="white" stroke-width="1.5" stroke-linecap="round" stroke-linejoin="round"/>
<path d="M12.2499 23.065V18.3517C12.2499 16.4967 11.5033 15.75 9.64825 15.75H4.93492C3.07992 15.75 2.33325 16.4967 2.33325 18.3517V23.065C2.33325 24.92 3.07992 25.6667 4.93492 25.6667H9.64825C11.5033 25.6667 12.2499 24.92 12.2499 23.065Z" stroke="white" stroke-width="1.5" stroke-linecap="round" stroke-linejoin="round"/>
</svg>
