<svg width="13" height="13" viewBox="0 0 13 13" fill="none" xmlns="http://www.w3.org/2000/svg">
<path d="M0.292893 11.2919C-0.0976311 11.6824 -0.0976311 12.3156 0.292893 12.7061C0.683418 13.0967 1.31658 13.0967 1.70711 12.7061L0.292893 11.2919ZM13 0.999022C13 0.446738 12.5523 -0.000977711 12 -0.000977964L3 -0.000977163C2.44772 -0.0009775 2 0.446738 2 0.999023C2 1.55131 2.44772 1.99902 3 1.99902L11 1.99902L11 9.99902C11 10.5513 11.4477 10.999 12 10.999C12.5523 10.999 13 10.5513 13 9.99902L13 0.999022ZM1.70711 12.7061L12.7071 1.70613L11.2929 0.291916L0.292893 11.2919L1.70711 12.7061Z" fill="#121212"/>
</svg>
