<svg width="22" height="22" viewBox="0 0 22 22" fill="none" xmlns="http://www.w3.org/2000/svg">
<path d="M0.585786 18.5858C-0.195262 19.3668 -0.195262 20.6332 0.585786 21.4142C1.36684 22.1953 2.63316 22.1953 3.41421 21.4142L0.585786 18.5858ZM22 2C22 0.89543 21.1046 -7.48422e-07 20 9.4515e-08L2 -3.26954e-07C0.895431 -3.26954e-07 5.74219e-07 0.89543 5.74219e-07 2C5.74219e-07 3.10457 0.895431 4 2 4L18 4L18 20C18 21.1046 18.8954 22 20 22C21.1046 22 22 21.1046 22 20L22 2ZM3.41421 21.4142L21.4142 3.41421L18.5858 0.585786L0.585786 18.5858L3.41421 21.4142Z" fill="white"/>
</svg>
