<svg width="26" height="26" viewBox="0 0 26 26" fill="none" xmlns="http://www.w3.org/2000/svg">
<g clip-path="url(#clip0_2204_1317)">
<path d="M13 26C20.1678 26 26 20.1684 26 13C26 11.7627 25.8273 10.5435 25.4853 9.37575C25.3168 8.80155 24.7172 8.47174 24.1415 8.64022C23.5667 8.80817 23.238 9.40987 23.4059 9.98407C23.6892 10.9542 23.8333 11.9693 23.8333 13C23.8333 18.9734 18.9734 23.8333 13 23.8333C7.02659 23.8333 2.16667 18.9734 2.16667 13C2.16667 7.02659 7.02659 2.16667 13 2.16667C15.1709 2.16667 17.2595 2.80143 19.0401 4.00193C19.5357 4.33651 20.2096 4.20506 20.5437 3.70941C20.878 3.21324 20.7476 2.53986 20.2514 2.20555C18.1117 0.762777 15.6044 0 13 0C5.83217 0 0 5.83165 0 13C0 20.1684 5.83217 26 13 26Z" fill="white"/>
<path d="M24.1512 2.48418L13.0005 13.6344L9.43307 10.0675C9.00989 9.6446 8.32435 9.6446 7.90117 10.0675C7.47826 10.4907 7.47826 11.1762 7.90117 11.5994L12.2345 15.9327C12.4464 16.1446 12.723 16.2501 13.0005 16.2501C13.2779 16.2501 13.5546 16.1446 13.7664 15.9327L25.6831 4.01608C26.106 3.5929 26.106 2.90735 25.6831 2.48418C25.2599 2.06126 24.5743 2.06126 24.1512 2.48418Z" fill="white"/>
</g>
<defs>
<clipPath id="clip0_2204_1317">
<rect width="26" height="26" fill="white"/>
</clipPath>
</defs>
</svg>
