<svg width="28" height="28" viewBox="0 0 28 28" fill="none" xmlns="http://www.w3.org/2000/svg">
<path d="M15.3766 13.8365C14.91 13.8365 14.49 13.5799 14.2917 13.1599L12.6 9.78824L12.11 10.6982C11.8417 11.1999 11.305 11.5149 10.7333 11.5149H9.88165C9.40332 11.5149 9.00665 11.1182 9.00665 10.6399C9.00665 10.1615 9.40332 9.76488 9.88165 9.76488H10.6283L11.55 8.06152C11.7716 7.66485 12.215 7.39653 12.635 7.41987C13.09 7.41987 13.4983 7.68821 13.7083 8.08488L15.3766 11.4215L15.7733 10.6165C16.0416 10.0799 16.5667 9.7532 17.1733 9.7532H18.1183C18.5967 9.7532 18.9933 10.1499 18.9933 10.6282C18.9933 11.1065 18.5967 11.5032 18.1183 11.5032H17.29L16.4616 13.1482C16.2516 13.5799 15.8433 13.8365 15.3766 13.8365Z" fill="#FF5000"/>
<path d="M3.20837 21.7583C2.73003 21.7583 2.33337 21.3616 2.33337 20.8833V14.2333C2.27503 11.0716 3.45336 8.08496 5.64669 5.84496C7.84003 3.61663 10.78 2.3916 13.9417 2.3916C20.405 2.3916 25.6667 7.65325 25.6667 14.1166V20.7666C25.6667 21.2449 25.27 21.6416 24.7917 21.6416C24.3134 21.6416 23.9167 21.2449 23.9167 20.7666V14.1166C23.9167 8.62159 19.4484 4.1416 13.9417 4.1416C11.2467 4.1416 8.75004 5.17995 6.89504 7.06995C5.02837 8.97161 4.0367 11.5033 4.08337 14.2099V20.8716C4.08337 21.3616 3.69837 21.7583 3.20837 21.7583Z" fill="#FF5000"/>
<path d="M6.93004 14.5249H6.77837C4.32837 14.5249 2.33337 16.5199 2.33337 18.9699V21.1632C2.33337 23.6132 4.32837 25.6082 6.77837 25.6082H6.93004C9.38004 25.6082 11.375 23.6132 11.375 21.1632V18.9699C11.375 16.5199 9.38004 14.5249 6.93004 14.5249Z" fill="#131217"/>
<path d="M21.2217 14.5249H21.0701C18.6201 14.5249 16.6251 16.5199 16.6251 18.9699V21.1632C16.6251 23.6132 18.6201 25.6082 21.0701 25.6082H21.2217C23.6717 25.6082 25.6667 23.6132 25.6667 21.1632V18.9699C25.6667 16.5199 23.6717 14.5249 21.2217 14.5249Z" fill="#131217"/>
</svg>
