<svg width="20" height="20" viewBox="0 0 20 20" fill="none" xmlns="http://www.w3.org/2000/svg">
<path d="M16.7875 10.7543L10.4936 17.0489C10.3959 17.1465 10.263 17.2018 10.1248 17.2018H3.3839C2.91942 17.2018 2.68657 16.6401 3.01525 16.312C4.94015 14.3853 9.3243 9.99933 9.3243 9.99933C9.3243 9.99933 4.93953 5.61456 3.01525 3.68784C2.68642 3.35977 2.91942 2.7981 3.3839 2.7981H10.1248C10.2632 2.7981 10.3959 2.85333 10.4936 2.95099L13.35 5.80743L16.7875 9.24432C17.2041 9.6615 17.2041 10.3372 16.7875 10.7543Z" fill="white"/>
<path d="M12.8454 10.7543L6.55147 17.0489C6.45382 17.1465 6.32107 17.2018 6.18282 17.2018H3.3839C2.91942 17.2018 2.68657 16.6401 3.01525 16.312C4.94015 14.3853 9.3243 9.99933 9.3243 9.99933C9.3243 9.99933 4.93953 5.61456 3.01525 3.68784C2.68642 3.35977 2.91942 2.7981 3.3839 2.7981H6.18282C6.32107 2.7981 6.45397 2.85333 6.55163 2.95099L12.8456 9.24417C13.2621 9.6615 13.2621 10.3372 12.8454 10.7543Z" fill="#191B1E"/>
<path d="M12.8454 10.7543L6.55148 17.0489C6.45383 17.1465 6.32108 17.2018 6.18283 17.2018H4.54297C4.68121 17.2018 4.81396 17.1465 4.91162 17.0489L11.3876 10.5724C11.8042 10.1551 11.8042 9.84338 11.3876 9.42621L4.91162 2.95099C4.81396 2.85333 4.68121 2.7981 4.54297 2.7981H6.18283C6.32108 2.7981 6.45383 2.85333 6.55148 2.95099L12.8454 9.24432C13.2621 9.6615 13.2621 10.3372 12.8454 10.7543Z" fill="white"/>
<mask id="path-4-inside-1_1947_3141" fill="white">
<path d="M16.9956 9.03711L13.5583 5.60022L10.7018 2.74377C10.5501 2.5921 10.3402 2.50513 10.1258 2.50513H3.38493C3.04908 2.50513 2.76069 2.698 2.63221 3.00836C2.50404 3.31842 2.57179 3.65823 2.80891 3.8949C4.47257 5.5607 8.01811 9.10638 8.91105 9.99933C8.02024 10.8906 4.48386 14.4285 2.80921 16.1047C2.57179 16.3418 2.50404 16.6816 2.63221 16.9915C2.76069 17.3019 3.04908 17.4948 3.38493 17.4948H10.1258C10.3402 17.4948 10.5501 17.4078 10.7018 17.2561L16.9958 10.9615C16.9958 10.9615 16.9958 10.9615 16.9958 10.9614C17.5256 10.4308 17.5256 9.56781 16.9956 9.03711ZM16.5812 10.5474L16.5813 10.5473L10.2874 16.8418C10.2448 16.8844 10.1859 16.9088 10.1258 16.9088H3.38493C3.24317 16.9088 3.18732 16.8006 3.17374 16.7675C3.16001 16.7346 3.12324 16.6192 3.22349 16.5191C5.14838 14.5924 9.53254 10.2064 9.53254 10.2064C9.64698 10.0919 9.64698 9.90656 9.53254 9.79211C9.48859 9.74832 5.1258 5.38538 3.22318 3.48047C3.12324 3.38068 3.16001 3.26532 3.17374 3.23221C3.18732 3.1991 3.24317 3.09106 3.38493 3.09106H10.1258C10.1859 3.09106 10.2448 3.11548 10.2874 3.15805L13.144 6.01465L16.5812 9.45123C16.883 9.75351 16.883 10.2451 16.5812 10.5474Z"/>
</mask>
<path d="M16.9956 9.03711L13.5583 5.60022L10.7018 2.74377C10.5501 2.5921 10.3402 2.50513 10.1258 2.50513H3.38493C3.04908 2.50513 2.76069 2.698 2.63221 3.00836C2.50404 3.31842 2.57179 3.65823 2.80891 3.8949C4.47257 5.5607 8.01811 9.10638 8.91105 9.99933C8.02024 10.8906 4.48386 14.4285 2.80921 16.1047C2.57179 16.3418 2.50404 16.6816 2.63221 16.9915C2.76069 17.3019 3.04908 17.4948 3.38493 17.4948H10.1258C10.3402 17.4948 10.5501 17.4078 10.7018 17.2561L16.9958 10.9615C16.9958 10.9615 16.9958 10.9615 16.9958 10.9614C17.5256 10.4308 17.5256 9.56781 16.9956 9.03711ZM16.5812 10.5474L16.5813 10.5473L10.2874 16.8418C10.2448 16.8844 10.1859 16.9088 10.1258 16.9088H3.38493C3.24317 16.9088 3.18732 16.8006 3.17374 16.7675C3.16001 16.7346 3.12324 16.6192 3.22349 16.5191C5.14838 14.5924 9.53254 10.2064 9.53254 10.2064C9.64698 10.0919 9.64698 9.90656 9.53254 9.79211C9.48859 9.74832 5.1258 5.38538 3.22318 3.48047C3.12324 3.38068 3.16001 3.26532 3.17374 3.23221C3.18732 3.1991 3.24317 3.09106 3.38493 3.09106H10.1258C10.1859 3.09106 10.2448 3.11548 10.2874 3.15805L13.144 6.01465L16.5812 9.45123C16.883 9.75351 16.883 10.2451 16.5812 10.5474Z" fill="white"/>
<path d="M13.5583 5.60022L12.8512 6.30733L12.8512 6.30737L13.5583 5.60022ZM10.7018 2.74377L9.99471 3.45088L9.99471 3.45088L10.7018 2.74377ZM2.63221 3.00836L1.70825 2.62588L1.70806 2.62633L2.63221 3.00836ZM2.80891 3.8949L3.51647 3.18824L3.51533 3.18711L2.80891 3.8949ZM8.91105 9.99933L9.61834 10.7063L10.3251 9.99915L9.61816 9.29222L8.91105 9.99933ZM2.80921 16.1047L3.51586 16.8122L3.51664 16.8115L2.80921 16.1047ZM2.63221 16.9915L1.70813 17.3737L1.70825 17.374L2.63221 16.9915ZM10.7018 17.2561L11.4089 17.9632L11.409 17.9632L10.7018 17.2561ZM16.9958 10.9615H17.9958V8.54717L16.2886 10.2545L16.9958 10.9615ZM16.9958 10.9614L16.2882 10.2548L15.9958 10.5476V10.9614H16.9958ZM16.5812 10.5474L15.8735 9.84085L17.2883 11.2545L16.5812 10.5474ZM16.5813 10.5473L17.2885 11.2543L15.8742 9.84017L16.5813 10.5473ZM10.2874 16.8418L10.9945 17.5489L10.9945 17.5489L10.2874 16.8418ZM3.17374 16.7675L4.09897 16.388L4.09682 16.3829L3.17374 16.7675ZM3.22349 16.5191L3.93006 17.2267L3.93093 17.2259L3.22349 16.5191ZM9.53254 10.2064L8.82543 9.49928L8.82529 9.49943L9.53254 10.2064ZM9.53254 9.79211L10.2396 9.08501L10.2384 9.08378L9.53254 9.79211ZM3.22318 3.48047L3.93072 2.77379L3.92975 2.77282L3.22318 3.48047ZM3.17374 3.23221L4.09746 3.61531L4.09895 3.61167L3.17374 3.23221ZM13.144 6.01465L12.4369 6.72176L12.4369 6.72182L13.144 6.01465ZM16.5812 9.45123L17.2888 8.74466L17.2882 8.74406L16.5812 9.45123ZM17.7027 8.32996L14.2653 4.89307L12.8512 6.30737L16.2886 9.74426L17.7027 8.32996ZM14.2654 4.89311L11.4089 2.03667L9.99471 3.45088L12.8512 6.30733L14.2654 4.89311ZM11.4089 2.03667C11.0698 1.69752 10.6055 1.50513 10.1258 1.50513V3.50513C10.0982 3.50513 10.0745 3.49966 10.0546 3.49143C10.0347 3.4832 10.0141 3.47029 9.99471 3.45088L11.4089 2.03667ZM10.1258 1.50513H3.38493V3.50513H10.1258V1.50513ZM3.38493 1.50513C2.64422 1.50513 1.99134 1.94203 1.70825 2.62588L3.55617 3.39085C3.54623 3.41487 3.52401 3.44667 3.48663 3.47166C3.44924 3.49666 3.41121 3.50513 3.38493 3.50513V1.50513ZM1.70806 2.62633C1.4256 3.30961 1.57853 4.07974 2.10248 4.60269L3.51533 3.18711C3.53441 3.20615 3.55546 3.2394 3.56428 3.28367C3.5731 3.32791 3.56635 3.36623 3.55636 3.39039L1.70806 2.62633ZM2.10135 4.60155C3.76529 6.26763 7.31109 9.81358 8.20394 10.7064L9.61816 9.29222C8.72512 8.39919 5.17985 4.85377 3.51647 3.18824L2.10135 4.60155ZM8.20376 9.2924C7.31304 10.1836 3.77653 13.7216 2.10178 15.3979L3.51664 16.8115C5.1912 15.1354 8.72744 11.5976 9.61834 10.7063L8.20376 9.2924ZM2.10256 15.3971C1.57893 15.9201 1.42535 16.69 1.70813 17.3737L3.55629 16.6093C3.56638 16.6337 3.57311 16.6722 3.56428 16.7165C3.55544 16.7608 3.53446 16.7937 3.51586 16.8122L2.10256 15.3971ZM1.70825 17.374C1.99134 18.0579 2.64422 18.4948 3.38493 18.4948V16.4948C3.41121 16.4948 3.44924 16.5032 3.48663 16.5282C3.52401 16.5532 3.54623 16.585 3.55617 16.609L1.70825 17.374ZM3.38493 18.4948H10.1258V16.4948H3.38493V18.4948ZM10.1258 18.4948C10.6055 18.4948 11.0698 18.3024 11.4089 17.9632L9.99471 16.549C10.0141 16.5296 10.0347 16.5167 10.0546 16.5084C10.0745 16.5002 10.0982 16.4948 10.1258 16.4948V18.4948ZM11.409 17.9632L17.7029 11.6686L16.2886 10.2545L9.99468 16.549L11.409 17.9632ZM16.9958 10.9615C15.9958 10.9615 16.9958 10.9615 17.9958 10.9615C17.9958 10.9615 17.9958 10.9615 17.9958 10.9615C17.9958 10.9615 17.9958 10.9615 17.9958 10.9615C17.9958 10.9615 17.9958 10.9615 17.9958 10.9615C17.9958 10.9615 17.9958 10.9615 17.9958 10.9615C17.9958 10.9615 17.9958 10.9615 17.9958 10.9615V10.9615C17.9958 10.9615 17.9958 10.9615 17.9958 10.9615C17.9958 10.9615 17.9958 10.9615 17.9958 10.9615V10.9615C17.9958 10.9615 17.9958 10.9615 17.9958 10.9615V10.9615C17.9958 10.9615 17.9958 10.9615 17.9958 10.9615C17.9958 10.9615 17.9958 10.9615 17.9958 10.9615V10.9615C17.9958 10.9615 17.9958 10.9615 17.9958 10.9615C17.9958 10.9615 17.9958 10.9615 17.9958 10.9615C17.9958 10.9615 17.9958 10.9615 17.9958 10.9615C17.9958 10.9615 17.9958 10.9615 17.9958 10.9615V10.9615C17.9958 10.9615 17.9958 10.9615 17.9958 10.9615C17.9958 10.9615 17.9958 10.9615 17.9958 10.9615C17.9958 10.9615 17.9958 10.9615 17.9958 10.9615C17.9958 10.9615 17.9958 10.9615 17.9958 10.9615C17.9958 10.9615 17.9958 10.9615 17.9958 10.9615C17.9958 10.9615 17.9958 10.9615 17.9958 10.9615V10.9615C17.9958 10.9615 17.9958 10.9615 17.9958 10.9615C17.9958 10.9615 17.9958 10.9615 17.9958 10.9615C17.9958 10.9615 17.9958 10.9615 17.9958 10.9615V10.9615C17.9958 10.9615 17.9958 10.9615 17.9958 10.9615C17.9958 10.9615 17.9958 10.9615 17.9958 10.9615C17.9958 10.9615 17.9958 10.9615 17.9958 10.9615C17.9958 10.9615 17.9958 10.9615 17.9958 10.9615C17.9958 10.9615 17.9958 10.9615 17.9958 10.9615C17.9958 10.9615 17.9958 10.9615 17.9958 10.9615C17.9958 10.9615 17.9958 10.9615 17.9958 10.9615C17.9958 10.9615 17.9958 10.9615 17.9958 10.9615V10.9615C17.9958 10.9615 17.9958 10.9615 17.9958 10.9615C17.9958 10.9615 17.9958 10.9615 17.9958 10.9615V10.9615C17.9958 10.9615 17.9958 10.9615 17.9958 10.9615C17.9958 10.9615 17.9958 10.9615 17.9958 10.9615C17.9958 10.9615 17.9958 10.9615 17.9958 10.9615C17.9958 10.9615 17.9958 10.9615 17.9958 10.9615C17.9958 10.9615 17.9958 10.9615 17.9958 10.9615V10.9615C17.9958 10.9615 17.9958 10.9615 17.9958 10.9615C17.9958 10.9615 17.9958 10.9615 17.9958 10.9615V10.9615C17.9958 10.9615 17.9958 10.9615 17.9958 10.9615C17.9958 10.9615 17.9958 10.9615 17.9958 10.9615V10.9615V10.9615C17.9958 10.9615 17.9958 10.9615 17.9958 10.9615C17.9958 10.9615 17.9958 10.9615 17.9958 10.9615C17.9958 10.9615 17.9958 10.9615 17.9958 10.9615C17.9958 10.9615 17.9958 10.9615 17.9958 10.9615C17.9958 10.9615 17.9958 10.9615 17.9958 10.9615C17.9958 10.9615 17.9958 10.9615 17.9958 10.9615C17.9958 10.9615 17.9958 10.9615 17.9958 10.9615C17.9958 10.9615 17.9958 10.9615 17.9958 10.9615C17.9958 10.9615 17.9958 10.9615 17.9958 10.9615C17.9958 10.9615 17.9958 10.9615 17.9958 10.9615C17.9958 10.9615 17.9958 10.9615 17.9958 10.9615C17.9958 10.9615 17.9958 10.9615 17.9958 10.9615C17.9958 10.9615 17.9958 10.9615 17.9958 10.9615C17.9958 10.9615 17.9958 10.9615 17.9958 10.9615C17.9958 10.9615 17.9958 10.9615 17.9958 10.9615V10.9615V10.9615C17.9958 10.9615 17.9958 10.9615 17.9958 10.9615C17.9958 10.9615 17.9958 10.9615 17.9958 10.9615C17.9958 10.9615 17.9958 10.9615 17.9958 10.9615V10.9615V10.9615C17.9958 10.9615 17.9958 10.9615 17.9958 10.9615C17.9958 10.9615 17.9958 10.9615 17.9958 10.9615V10.9615C17.9958 10.9615 17.9958 10.9615 17.9958 10.9615C17.9958 10.9615 17.9958 10.9615 17.9958 10.9615V10.9615C17.9958 10.9615 17.9958 10.9615 17.9958 10.9615C17.9958 10.9615 17.9958 10.9615 17.9958 10.9615V10.9615C17.9958 10.9615 17.9958 10.9615 17.9958 10.9615C17.9958 10.9615 17.9958 10.9615 17.9958 10.9615C17.9958 10.9615 17.9958 10.9615 17.9958 10.9615C17.9958 10.9615 17.9958 10.9615 17.9958 10.9615V10.9615C17.9958 10.9615 17.9958 10.9615 17.9958 10.9615V10.9615C17.9958 10.9615 17.9958 10.9615 17.9958 10.9615V10.9615C17.9958 10.9615 17.9958 10.9615 17.9958 10.9615V10.9615C17.9958 10.9615 17.9958 10.9615 17.9958 10.9615V10.9615C17.9958 10.9615 17.9958 10.9615 17.9958 10.9615V10.9615C17.9958 10.9615 17.9958 10.9615 17.9958 10.9615V10.9614C17.9958 10.9614 17.9958 10.9614 17.9958 10.9614C17.9958 10.9614 17.9958 10.9614 17.9958 10.9614V10.9614C17.9958 10.9614 17.9958 10.9614 17.9958 10.9614V10.9614C17.9958 10.9614 17.9958 10.9614 17.9958 10.9614C17.9958 10.9614 17.9958 10.9614 17.9958 10.9614V10.9614C17.9958 10.9614 17.9958 10.9614 17.9958 10.9614C17.9958 10.9614 17.9958 10.9614 17.9958 10.9614V10.9614C17.9958 10.9614 17.9958 10.9614 17.9958 10.9614C17.9958 10.9614 17.9958 10.9614 17.9958 10.9614V10.9614C17.9958 10.9614 17.9958 10.9614 17.9958 10.9614C17.9958 10.9614 17.9958 10.9614 17.9958 10.9614V10.9614C17.9958 10.9614 17.9958 10.9614 17.9958 10.9614C17.9958 10.9614 17.9958 10.9614 17.9958 10.9614V10.9614C17.9958 10.9614 17.9958 10.9614 17.9958 10.9614C17.9958 10.9614 17.9958 10.9614 17.9958 10.9614C17.9958 10.9614 17.9958 10.9614 17.9958 10.9614V10.9614C17.9958 10.9614 17.9958 10.9614 17.9958 10.9614C17.9958 10.9614 17.9958 10.9614 17.9958 10.9614C17.9958 10.9614 17.9958 10.9614 17.9958 10.9614V10.9614V10.9614C17.9958 10.9614 17.9958 10.9614 17.9958 10.9614C17.9958 10.9614 17.9958 10.9614 17.9958 10.9614C17.9958 10.9614 17.9958 10.9614 17.9958 10.9614V10.9614V10.9614C17.9958 10.9614 17.9958 10.9614 17.9958 10.9614C17.9958 10.9614 17.9958 10.9614 17.9958 10.9614C17.9958 10.9614 17.9958 10.9614 17.9958 10.9614C17.9958 10.9614 17.9958 10.9614 17.9958 10.9614V10.9614V10.9614C17.9958 10.9614 17.9958 10.9614 17.9958 10.9614C17.9958 10.9614 17.9958 10.9614 17.9958 10.9614C17.9958 10.9614 17.9958 10.9614 17.9958 10.9614C17.9958 10.9614 17.9958 10.9614 17.9958 10.9614C17.9958 10.9614 17.9958 10.9614 17.9958 10.9614V10.9614V10.9614V10.9614C17.9958 10.9614 17.9958 10.9614 17.9958 10.9614C17.9958 10.9614 17.9958 10.9614 17.9958 10.9614C17.9958 10.9614 17.9958 10.9614 17.9958 10.9614C17.9958 10.9614 17.9958 10.9614 17.9958 10.9614C17.9958 10.9614 17.9958 10.9614 17.9958 10.9614C17.9958 10.9614 17.9958 10.9614 17.9958 10.9614C17.9958 10.9614 17.9958 10.9614 17.9958 10.9614V10.9614V10.9614H15.9958V10.9614V10.9614C15.9958 10.9614 15.9958 10.9614 15.9958 10.9614C15.9958 10.9614 15.9958 10.9614 15.9958 10.9614C15.9958 10.9614 15.9958 10.9614 15.9958 10.9614C15.9958 10.9614 15.9958 10.9614 15.9958 10.9614C15.9958 10.9614 15.9958 10.9614 15.9958 10.9614C15.9958 10.9614 15.9958 10.9614 15.9958 10.9614C15.9958 10.9614 15.9958 10.9614 15.9958 10.9614V10.9614V10.9614V10.9614C15.9958 10.9614 15.9958 10.9614 15.9958 10.9614C15.9958 10.9614 15.9958 10.9614 15.9958 10.9614C15.9958 10.9614 15.9958 10.9614 15.9958 10.9614C15.9958 10.9614 15.9958 10.9614 15.9958 10.9614C15.9958 10.9614 15.9958 10.9614 15.9958 10.9614V10.9614V10.9614C15.9958 10.9614 15.9958 10.9614 15.9958 10.9614C15.9958 10.9614 15.9958 10.9614 15.9958 10.9614C15.9958 10.9614 15.9958 10.9614 15.9958 10.9614C15.9958 10.9614 15.9958 10.9614 15.9958 10.9614V10.9614V10.9614C15.9958 10.9614 15.9958 10.9614 15.9958 10.9614C15.9958 10.9614 15.9958 10.9614 15.9958 10.9614C15.9958 10.9614 15.9958 10.9614 15.9958 10.9614V10.9614V10.9614C15.9958 10.9614 15.9958 10.9614 15.9958 10.9614C15.9958 10.9614 15.9958 10.9614 15.9958 10.9614C15.9958 10.9614 15.9958 10.9614 15.9958 10.9614V10.9614C15.9958 10.9614 15.9958 10.9614 15.9958 10.9614C15.9958 10.9614 15.9958 10.9614 15.9958 10.9614C15.9958 10.9614 15.9958 10.9614 15.9958 10.9614V10.9614C15.9958 10.9614 15.9958 10.9614 15.9958 10.9614C15.9958 10.9614 15.9958 10.9614 15.9958 10.9614V10.9614C15.9958 10.9614 15.9958 10.9614 15.9958 10.9614C15.9958 10.9614 15.9958 10.9614 15.9958 10.9614V10.9614C15.9958 10.9614 15.9958 10.9614 15.9958 10.9614C15.9958 10.9614 15.9958 10.9614 15.9958 10.9614V10.9614C15.9958 10.9614 15.9958 10.9614 15.9958 10.9614C15.9958 10.9614 15.9958 10.9614 15.9958 10.9614V10.9614C15.9958 10.9614 15.9958 10.9614 15.9958 10.9614C15.9958 10.9614 15.9958 10.9614 15.9958 10.9614V10.9614C15.9958 10.9614 15.9958 10.9614 15.9958 10.9614V10.9614C15.9958 10.9614 15.9958 10.9614 15.9958 10.9614C15.9958 10.9614 15.9958 10.9614 15.9958 10.9614V10.9615C15.9958 10.9615 15.9958 10.9615 15.9958 10.9615V10.9615C15.9958 10.9615 15.9958 10.9615 15.9958 10.9615V10.9615C15.9958 10.9615 15.9958 10.9615 15.9958 10.9615V10.9615C15.9958 10.9615 15.9958 10.9615 15.9958 10.9615V10.9615C15.9958 10.9615 15.9958 10.9615 15.9958 10.9615V10.9615C15.9958 10.9615 15.9958 10.9615 15.9958 10.9615V10.9615C15.9958 10.9615 15.9958 10.9615 15.9958 10.9615C15.9958 10.9615 15.9958 10.9615 15.9958 10.9615C15.9958 10.9615 15.9958 10.9615 15.9958 10.9615C15.9958 10.9615 15.9958 10.9615 15.9958 10.9615V10.9615C15.9958 10.9615 15.9958 10.9615 15.9958 10.9615C15.9958 10.9615 15.9958 10.9615 15.9958 10.9615V10.9615C15.9958 10.9615 15.9958 10.9615 15.9958 10.9615C15.9958 10.9615 15.9958 10.9615 15.9958 10.9615V10.9615C15.9958 10.9615 15.9958 10.9615 15.9958 10.9615C15.9958 10.9615 15.9958 10.9615 15.9958 10.9615V10.9615V10.9615C15.9958 10.9615 15.9958 10.9615 15.9958 10.9615C15.9958 10.9615 15.9958 10.9615 15.9958 10.9615C15.9958 10.9615 15.9958 10.9615 15.9958 10.9615V10.9615V10.9615C15.9958 10.9615 15.9958 10.9615 15.9958 10.9615C15.9958 10.9615 15.9958 10.9615 15.9958 10.9615C15.9958 10.9615 15.9958 10.9615 15.9958 10.9615C15.9958 10.9615 15.9958 10.9615 15.9958 10.9615C15.9958 10.9615 15.9958 10.9615 15.9958 10.9615C15.9958 10.9615 15.9958 10.9615 15.9958 10.9615C15.9958 10.9615 15.9958 10.9615 15.9958 10.9615C15.9958 10.9615 15.9958 10.9615 15.9958 10.9615C15.9958 10.9615 15.9958 10.9615 15.9958 10.9615C15.9958 10.9615 15.9958 10.9615 15.9958 10.9615C15.9958 10.9615 15.9958 10.9615 15.9958 10.9615C15.9958 10.9615 15.9958 10.9615 15.9958 10.9615C15.9958 10.9615 15.9958 10.9615 15.9958 10.9615C15.9958 10.9615 15.9958 10.9615 15.9958 10.9615C15.9958 10.9615 15.9958 10.9615 15.9958 10.9615V10.9615V10.9615C15.9958 10.9615 15.9958 10.9615 15.9958 10.9615C15.9958 10.9615 15.9958 10.9615 15.9958 10.9615V10.9615C15.9958 10.9615 15.9958 10.9615 15.9958 10.9615C15.9958 10.9615 15.9958 10.9615 15.9958 10.9615V10.9615C15.9958 10.9615 15.9958 10.9615 15.9958 10.9615C15.9958 10.9615 15.9958 10.9615 15.9958 10.9615C15.9958 10.9615 15.9958 10.9615 15.9958 10.9615C15.9958 10.9615 15.9958 10.9615 15.9958 10.9615C15.9958 10.9615 15.9958 10.9615 15.9958 10.9615V10.9615C15.9958 10.9615 15.9958 10.9615 15.9958 10.9615C15.9958 10.9615 15.9958 10.9615 15.9958 10.9615V10.9615C15.9958 10.9615 15.9958 10.9615 15.9958 10.9615C15.9958 10.9615 15.9958 10.9615 15.9958 10.9615C15.9958 10.9615 15.9958 10.9615 15.9958 10.9615C15.9958 10.9615 15.9958 10.9615 15.9958 10.9615C15.9958 10.9615 15.9958 10.9615 15.9958 10.9615C15.9958 10.9615 15.9958 10.9615 15.9958 10.9615C15.9958 10.9615 15.9958 10.9615 15.9958 10.9615C15.9958 10.9615 15.9958 10.9615 15.9958 10.9615V10.9615C15.9958 10.9615 15.9958 10.9615 15.9958 10.9615C15.9958 10.9615 15.9958 10.9615 15.9958 10.9615C15.9958 10.9615 15.9958 10.9615 15.9958 10.9615V10.9615C15.9958 10.9615 15.9958 10.9615 15.9958 10.9615C15.9958 10.9615 15.9958 10.9615 15.9958 10.9615C15.9958 10.9615 15.9958 10.9615 15.9958 10.9615C15.9958 10.9615 15.9958 10.9615 15.9958 10.9615C15.9958 10.9615 15.9958 10.9615 15.9958 10.9615C15.9958 10.9615 15.9958 10.9615 15.9958 10.9615V10.9615C15.9958 10.9615 15.9958 10.9615 15.9958 10.9615C15.9958 10.9615 15.9958 10.9615 15.9958 10.9615C15.9958 10.9615 15.9958 10.9615 15.9958 10.9615C15.9958 10.9615 15.9958 10.9615 15.9958 10.9615V10.9615C15.9958 10.9615 15.9958 10.9615 15.9958 10.9615C15.9958 10.9615 15.9958 10.9615 15.9958 10.9615V10.9615C15.9958 10.9615 15.9958 10.9615 15.9958 10.9615V10.9615C15.9958 10.9615 15.9958 10.9615 15.9958 10.9615C15.9958 10.9615 15.9958 10.9615 15.9958 10.9615V10.9615C15.9958 10.9615 15.9958 10.9615 15.9958 10.9615C15.9958 10.9615 15.9958 10.9615 15.9958 10.9615C15.9958 10.9615 15.9958 10.9615 15.9958 10.9615C15.9958 10.9615 15.9958 10.9615 15.9958 10.9615C15.9958 10.9615 15.9958 10.9615 15.9958 10.9615C16.9958 10.9615 17.9958 10.9615 16.9958 10.9615ZM17.7034 11.668C18.6231 10.747 18.6229 9.25155 17.7032 8.33051L16.288 9.74371C16.4282 9.88407 16.428 10.1147 16.2882 10.2548L17.7034 11.668ZM17.2883 11.2545L17.2884 11.2544L15.8742 9.84017L15.8741 9.84032L17.2883 11.2545ZM15.8742 9.8402L9.58025 16.1348L10.9945 17.5489L17.2885 11.2543L15.8742 9.8402ZM9.58029 16.1347C9.72497 15.99 9.92031 15.9088 10.1258 15.9088V17.9088C10.4515 17.9088 10.7647 17.7788 10.9945 17.5489L9.58029 16.1347ZM10.1258 15.9088H3.38493V17.9088H10.1258V15.9088ZM3.38493 15.9088C3.59801 15.9088 3.78568 16 3.91396 16.1199C4.02223 16.221 4.07392 16.327 4.09895 16.3881L2.24854 17.147C2.30693 17.2894 2.61146 17.9088 3.38493 17.9088V15.9088ZM4.09682 16.3829C4.12191 16.4431 4.16055 16.5551 4.15524 16.7041C4.14895 16.8805 4.07995 17.0771 3.93006 17.2267L2.51692 15.8115C1.97036 16.3572 2.19113 17.0092 2.25067 17.1521L4.09682 16.3829ZM3.93093 17.2259C4.89329 16.2626 6.47048 14.6845 7.80714 13.3471C8.47545 12.6785 9.08362 12.07 9.52471 11.6288C9.74525 11.4081 9.92402 11.2293 10.0477 11.1056C10.1095 11.0437 10.1575 10.9957 10.1901 10.9631C10.2064 10.9468 10.2188 10.9343 10.2272 10.926C10.2313 10.9218 10.2345 10.9187 10.2366 10.9165C10.2377 10.9155 10.2385 10.9147 10.239 10.9141C10.2393 10.9139 10.2395 10.9137 10.2396 10.9135C10.2397 10.9135 10.2397 10.9134 10.2397 10.9134C10.2398 10.9134 10.2398 10.9133 9.53254 10.2064C8.82529 9.49943 8.82527 9.49945 8.82524 9.49948C8.8252 9.49952 8.82515 9.49957 8.82509 9.49963C8.82495 9.49977 8.82475 9.49997 8.82449 9.50023C8.82395 9.50076 8.82316 9.50156 8.8221 9.50262C8.81998 9.50473 8.81683 9.50789 8.81265 9.51207C8.80429 9.52043 8.79187 9.53286 8.77558 9.54916C8.743 9.58176 8.69496 9.62981 8.63314 9.69166C8.5095 9.81535 8.33072 9.99421 8.11017 10.2149C7.66908 10.6562 7.0609 11.2646 6.39256 11.9333C5.05592 13.2706 3.47858 14.8489 2.51605 15.8123L3.93093 17.2259ZM10.2396 10.9135C10.7446 10.4085 10.7446 9.58997 10.2396 9.08501L8.82543 10.4992C8.54935 10.2231 8.54935 9.77537 8.82543 9.49928L10.2396 10.9135ZM10.2384 9.08378C10.2385 9.08386 10.2382 9.0836 10.2374 9.08272C10.2366 9.08194 10.2355 9.08089 10.2342 9.07953C10.2315 9.07683 10.2277 9.07309 10.2229 9.0683C10.2134 9.05875 10.1998 9.04517 10.1824 9.02777C10.1476 8.99297 10.0975 8.94294 10.0339 8.87934C9.90675 8.75215 9.7253 8.5707 9.50285 8.34824C9.05795 7.90331 8.44904 7.29432 7.78205 6.62718C6.44802 5.29285 4.88183 3.72604 3.93071 2.77379L2.51565 4.18715C4.41799 6.09178 8.78171 10.4557 8.82666 10.5004L10.2384 9.08378ZM3.92975 2.77282C4.08046 2.9233 4.1491 3.12053 4.15523 3.29652C4.16041 3.44516 4.1218 3.55661 4.09745 3.61531L2.25004 2.84911C2.19211 2.98879 1.96952 3.64185 2.51662 4.18812L3.92975 2.77282ZM4.09895 3.61167C4.07376 3.6731 4.02192 3.77919 3.91351 3.88034C3.7851 4.00017 3.59756 4.09106 3.38493 4.09106V2.09106C2.61219 2.09106 2.30739 2.70925 2.24854 2.85274L4.09895 3.61167ZM3.38493 4.09106H10.1258V2.09106H3.38493V4.09106ZM10.1258 4.09106C9.92031 4.09106 9.72497 4.00984 9.58029 3.86516L10.9945 2.45094C10.7647 2.22111 10.4515 2.09106 10.1258 2.09106V4.09106ZM9.58029 3.86516L12.4369 6.72176L13.8511 5.30754L10.9945 2.45094L9.58029 3.86516ZM12.4369 6.72182L15.8741 10.1584L17.2882 8.74406L13.851 5.30748L12.4369 6.72182ZM15.8735 10.1578C15.7856 10.0697 15.7856 9.92898 15.8735 9.84085L17.2888 11.254C17.9805 10.5613 17.9805 9.43734 17.2888 8.74466L15.8735 10.1578Z" fill="#191B1E" mask="url(#path-4-inside-1_1947_3141)"/>
</svg>
