<svg width="40" height="40" viewBox="0 0 40 40" fill="none" xmlns="http://www.w3.org/2000/svg">
<path d="M17.9167 28.0996V31.483C17.9167 34.3497 15.25 36.6663 11.9667 36.6663C8.68336 36.6663 6 34.3497 6 31.483V28.0996C6 30.9663 8.6667 32.9996 11.9667 32.9996C15.25 32.9996 17.9167 30.9496 17.9167 28.0996Z" stroke="#FF5000" stroke-width="3" stroke-linecap="round" stroke-linejoin="round"/>
<path d="M17.9162 23.5164C17.9162 24.3497 17.6829 25.1163 17.2829 25.783C16.2995 27.3997 14.2828 28.4164 11.9495 28.4164C9.61617 28.4164 7.59948 27.383 6.61615 25.783C6.21615 25.1163 5.98291 24.3497 5.98291 23.5164C5.98291 22.083 6.64954 20.7997 7.71621 19.8664C8.79954 18.9164 10.2828 18.3497 11.9328 18.3497C13.5828 18.3497 15.0662 18.933 16.1495 19.8664C17.2495 20.783 17.9162 22.083 17.9162 23.5164Z" stroke="#FF5000" stroke-width="3" stroke-linecap="round" stroke-linejoin="round"/>
<path d="M17.9167 23.5163V28.0996C17.9167 30.9663 15.25 32.9997 11.9667 32.9997C8.68336 32.9997 6 30.9496 6 28.0996V23.5163C6 20.6496 8.6667 18.333 11.9667 18.333C13.6167 18.333 15.1001 18.9163 16.1834 19.8496C17.2501 20.783 17.9167 22.083 17.9167 23.5163Z" stroke="#FF5000" stroke-width="3" stroke-linecap="round" stroke-linejoin="round"/>
<path d="M36.6667 18.2829V21.7164C36.6667 22.633 35.9334 23.383 35 23.4163H31.7333C29.9333 23.4163 28.2834 22.0996 28.1334 20.2996C28.0334 19.2496 28.4333 18.2663 29.1333 17.583C29.75 16.9496 30.6 16.583 31.5333 16.583H35C35.9334 16.6163 36.6667 17.3663 36.6667 18.2829Z" stroke="#131217" stroke-width="3" stroke-linecap="round" stroke-linejoin="round"/>
<path d="M3.3335 17.4997V14.1663C3.3335 9.63301 6.06683 6.46634 10.3168 5.933C10.7502 5.86634 11.2002 5.83301 11.6668 5.83301H26.6668C27.1002 5.83301 27.5168 5.84965 27.9168 5.91632C32.2168 6.41632 35.0002 9.59967 35.0002 14.1663V16.583H31.5335C30.6001 16.583 29.7501 16.9497 29.1335 17.583C28.4335 18.2663 28.0335 19.2497 28.1335 20.2997C28.2835 22.0997 29.9335 23.4163 31.7335 23.4163H35.0002V25.833C35.0002 30.833 31.6668 34.1663 26.6668 34.1663H22.5002" stroke="#131217" stroke-width="3" stroke-linecap="round" stroke-linejoin="round"/>
</svg>
