<svg width="40" height="40" viewBox="0 0 40 40" fill="none" xmlns="http://www.w3.org/2000/svg">
<path d="M19.5668 29.5829H29.4335C29.2835 29.7163 29.1335 29.833 28.9835 29.9663L21.8668 35.2996C19.5168 37.0496 15.6835 37.0496 13.3168 35.2996L6.18351 29.9663C4.61684 28.7996 3.3335 26.2163 3.3335 24.2663V11.9163C3.3335 9.88293 4.88351 7.63293 6.78351 6.91627L15.0835 3.79961C16.4502 3.28294 18.7168 3.28294 20.0835 3.79961L28.3668 6.91627C29.9502 7.51627 31.3002 9.18294 31.7168 10.8829H19.5502C19.1835 10.8829 18.8502 10.8996 18.5335 10.8996C15.4502 11.083 14.6502 12.1996 14.6502 15.7163V24.7663C14.6668 28.5996 15.6502 29.5829 19.5668 29.5829Z" stroke="#FF5000" stroke-width="3" stroke-linecap="round" stroke-linejoin="round"/>
<path d="M14.6665 18.6996H36.6665" stroke="#131217" stroke-width="3" stroke-miterlimit="10" stroke-linecap="round" stroke-linejoin="round"/>
<path d="M36.6665 15.6996V24.9496C36.6332 28.6496 35.6165 29.5662 31.7665 29.5662H19.5665C15.6498 29.5662 14.6665 28.5829 14.6665 24.7329V15.6829C14.6665 12.1829 15.4665 11.0662 18.5498 10.8662C18.8665 10.8662 19.1998 10.8496 19.5665 10.8496H31.7665C35.6832 10.8663 36.6665 11.8329 36.6665 15.6996Z" stroke="#131217" stroke-width="3" stroke-linecap="round" stroke-linejoin="round"/>
<path d="M18.8667 25.433H21.0833" stroke="#FF5000" stroke-width="3" stroke-miterlimit="10" stroke-linecap="round" stroke-linejoin="round"/>
<path d="M24.5835 25.433H30.0335" stroke="#FF5000" stroke-width="3" stroke-miterlimit="10" stroke-linecap="round" stroke-linejoin="round"/>
</svg>
