<svg width="40" height="40" viewBox="0 0 40 40" fill="none" xmlns="http://www.w3.org/2000/svg">
<path d="M3.3335 18.3329V14.9996C3.3335 9.16626 6.66683 6.66626 11.6668 6.66626H28.3335C33.3335 6.66626 36.6668 9.16626 36.6668 14.9996V24.9996C36.6668 30.8329 33.3335 33.3329 28.3335 33.3329H20.0002" stroke="#292D32" stroke-width="3" stroke-miterlimit="10" stroke-linecap="round" stroke-linejoin="round"/>
<path d="M20.0002 24.1663C22.3013 24.1663 24.1668 22.3009 24.1668 19.9997C24.1668 17.6985 22.3013 15.833 20.0002 15.833C17.699 15.833 15.8335 17.6985 15.8335 19.9997C15.8335 22.3009 17.699 24.1663 20.0002 24.1663Z" stroke="#FF5000" stroke-width="3" stroke-miterlimit="10" stroke-linecap="round" stroke-linejoin="round"/>
<path d="M30.8335 15.833V24.1663" stroke="#FF5000" stroke-width="3" stroke-miterlimit="10" stroke-linecap="round" stroke-linejoin="round"/>
<path d="M3.3335 25.833H12.2335C13.3002 25.833 14.1668 26.6996 14.1668 27.7663V29.8997" stroke="#FF5000" stroke-width="3" stroke-miterlimit="10" stroke-linecap="round" stroke-linejoin="round"/>
<path d="M5.36678 23.7997L3.3335 25.833L5.36678 27.8663" stroke="#FF5000" stroke-width="3" stroke-miterlimit="10" stroke-linecap="round" stroke-linejoin="round"/>
<path d="M14.1668 34.6331H5.26678C4.20012 34.6331 3.3335 33.7664 3.3335 32.6997V30.5664" stroke="#FF5000" stroke-width="3" stroke-miterlimit="10" stroke-linecap="round" stroke-linejoin="round"/>
<path d="M12.1338 36.6663L14.1671 34.633L12.1338 32.5996" stroke="#FF5000" stroke-width="3" stroke-miterlimit="10" stroke-linecap="round" stroke-linejoin="round"/>
</svg>
