<svg width="39" height="39" viewBox="0 0 39 39" fill="none" xmlns="http://www.w3.org/2000/svg">
<path d="M14.625 35.7495H24.375C32.5 35.7495 35.75 32.4995 35.75 24.3745V14.6245C35.75 6.49951 32.5 3.24951 24.375 3.24951H14.625C6.5 3.24951 3.25 6.49951 3.25 14.6245V24.3745C3.25 32.4995 6.5 35.7495 14.625 35.7495Z" stroke="#131217" stroke-width="3" stroke-linecap="round" stroke-linejoin="round"/>
<path d="M25.3018 30.0614V23.7239" stroke="#FF5000" stroke-width="3" stroke-miterlimit="10" stroke-linecap="round" stroke-linejoin="round"/>
<path d="M25.3018 12.1058V8.93701" stroke="#FF5000" stroke-width="3" stroke-miterlimit="10" stroke-linecap="round" stroke-linejoin="round"/>
<path d="M25.3007 20.556C27.6341 20.556 29.5257 18.6644 29.5257 16.331C29.5257 13.9976 27.6341 12.106 25.3007 12.106C22.9673 12.106 21.0757 13.9976 21.0757 16.331C21.0757 18.6644 22.9673 20.556 25.3007 20.556Z" stroke="#FF5000" stroke-width="3" stroke-miterlimit="10" stroke-linecap="round" stroke-linejoin="round"/>
<path d="M13.6982 30.0618V26.8931" stroke="#FF5000" stroke-width="3" stroke-miterlimit="10" stroke-linecap="round" stroke-linejoin="round"/>
<path d="M13.6982 15.2745V8.93701" stroke="#FF5000" stroke-width="3" stroke-miterlimit="10" stroke-linecap="round" stroke-linejoin="round"/>
<path d="M13.6986 26.8926C16.032 26.8926 17.9236 25.001 17.9236 22.6676C17.9236 20.3342 16.032 18.4426 13.6986 18.4426C11.3652 18.4426 9.47363 20.3342 9.47363 22.6676C9.47363 25.001 11.3652 26.8926 13.6986 26.8926Z" stroke="#FF5000" stroke-width="3" stroke-miterlimit="10" stroke-linecap="round" stroke-linejoin="round"/>
</svg>
