<svg width="44" height="44" viewBox="0 0 44 44" fill="none" xmlns="http://www.w3.org/2000/svg">
<path d="M40.8833 20.0195V29.4612C40.8833 35.1078 37.6567 37.5278 32.8167 37.5278H16.7016C15.345 37.5278 14.1167 37.3445 13.0533 36.9412C10.8717 36.1345 9.38665 34.4662 8.85498 31.7895C9.58831 31.9545 10.3766 32.0278 11.2016 32.0278H27.3167C32.1567 32.0278 35.3833 29.6078 35.3833 23.9612V14.5195C35.3833 13.6578 35.31 12.8879 35.1633 12.1729C38.6467 12.9062 40.8833 15.3628 40.8833 20.0195Z" stroke="#131217" stroke-width="3" stroke-miterlimit="10" stroke-linecap="round" stroke-linejoin="round"/>
<path d="M19.2502 24.0895C21.9232 24.0895 24.0902 21.9225 24.0902 19.2495C24.0902 16.5764 21.9232 14.4094 19.2502 14.4094C16.5771 14.4094 14.4102 16.5764 14.4102 19.2495C14.4102 21.9225 16.5771 24.0895 19.2502 24.0895Z" stroke="#FF5000" stroke-width="3" stroke-miterlimit="10" stroke-linecap="round" stroke-linejoin="round"/>
<path d="M8.76318 15.2161V23.2828" stroke="#FF5000" stroke-width="3" stroke-miterlimit="10" stroke-linecap="round" stroke-linejoin="round"/>
<path d="M29.7368 15.2161V23.2828" stroke="#FF5000" stroke-width="3" stroke-miterlimit="10" stroke-linecap="round" stroke-linejoin="round"/>
<path d="M35.3831 14.5195V23.9612C35.3831 29.6079 32.1564 32.0278 27.3164 32.0278H11.2014C10.3764 32.0278 9.58809 31.9546 8.85476 31.7896C8.39642 31.7162 7.95644 31.5879 7.55311 31.4412C4.80311 30.4146 3.13477 28.0312 3.13477 23.9612V14.5195C3.13477 8.87281 6.36142 6.45288 11.2014 6.45288H27.3164C31.4231 6.45288 34.3748 8.19454 35.1631 12.1729C35.2914 12.9062 35.3831 13.6578 35.3831 14.5195Z" stroke="#131217" stroke-width="3" stroke-miterlimit="10" stroke-linecap="round" stroke-linejoin="round"/>
</svg>
