<svg width="43" height="44" viewBox="0 0 43 44" fill="none" xmlns="http://www.w3.org/2000/svg">
<path d="M7.63269 34.9233C7.63269 35.4019 7.25146 35.7831 6.77289 35.7831C6.29432 35.7831 5.91309 35.4019 5.91309 34.9233C5.91309 34.4447 6.29432 34.0635 6.77289 34.0635C7.24335 34.0635 7.63269 34.4447 7.63269 34.9233Z" fill="#131217"/>
<path d="M40.5409 24.6706C40.5409 25.1492 40.1597 25.5304 39.6811 25.5304C39.2106 25.5304 38.8213 25.1492 38.8213 24.6706C38.8213 24.192 39.2025 23.8108 39.6811 23.8108C40.1597 23.8189 40.5409 24.2001 40.5409 24.6706Z" fill="#131217"/>
<path d="M29.7359 18.222H28.4137C28.0001 18.222 27.6594 17.8814 27.6594 17.4677V16.6971C27.6594 16.2834 28.0001 15.9427 28.4137 15.9427H29.8738C30.2144 15.9427 30.4902 16.2185 30.4902 16.5592C30.4902 17.0297 30.8715 17.419 31.35 17.419C31.8205 17.419 32.2098 17.0378 32.2098 16.5592C32.2098 15.2938 31.1959 14.2556 29.9306 14.2312V13.4931C29.9306 13.0145 29.5493 12.6333 29.0707 12.6333C28.5922 12.6333 28.2109 13.0145 28.2109 13.4931V14.2393C26.9375 14.3448 25.9316 15.4074 25.9316 16.7052V17.4758C25.9316 18.8385 27.0429 19.9498 28.4056 19.9498H29.7278C30.1414 19.9498 30.4821 20.2904 30.4821 20.7041V21.4747C30.4821 21.8884 30.1414 22.2291 29.7278 22.2291H28.2677C27.927 22.2291 27.6513 21.9533 27.6513 21.6126C27.6513 21.134 27.27 20.7528 26.7915 20.7528C26.3129 20.7528 25.9316 21.134 25.9316 21.6126C25.9316 22.878 26.9456 23.9162 28.2109 23.9406V24.6787C28.2109 25.1573 28.5922 25.5385 29.0707 25.5385C29.5493 25.5385 29.9306 25.1573 29.9306 24.6787V23.9324C31.204 23.827 32.2098 22.7644 32.2098 21.4666V20.696C32.2098 19.3333 31.0986 18.222 29.7359 18.222Z" fill="#14CAF4"/>
<path d="M42.2197 29.1075C41.8628 28.3045 41.222 27.688 40.4027 27.3717C39.5835 27.0554 38.6993 27.0797 37.8963 27.4285C37.8882 27.4285 37.8882 27.4285 37.8801 27.4366L32.4698 29.9349C32.0399 30.1377 31.8534 30.6406 32.048 31.0786C32.2427 31.5085 32.7537 31.6951 33.1917 31.5004L38.5939 29.0102C38.9751 28.848 39.3969 28.8317 39.7782 28.9859C40.1675 29.14 40.4757 29.432 40.638 29.8132C40.8083 30.1945 40.8164 30.6163 40.6623 31.0056C40.5082 31.3949 40.2162 31.7032 39.8349 31.8654L28.7548 36.7566C27.0109 37.5271 25.0236 37.4866 23.3121 36.6349L19.2564 34.6233C17.0907 33.5444 14.5761 33.4877 12.3536 34.4691L12.305 34.4935L9.29563 27.688L13.473 25.8468C15.4684 24.9626 17.699 24.8977 19.7431 25.644L27.895 28.6371C28.625 28.9047 29.0144 29.7159 28.7629 30.454C28.5034 31.2003 27.6922 31.6058 26.9379 31.3544L20.6353 29.2211C20.1892 29.067 19.6944 29.3103 19.5484 29.7564C19.3943 30.2026 19.6376 30.6974 20.0838 30.8434L26.3863 32.9767C26.7189 33.0902 27.0595 33.147 27.3921 33.147C28.7061 33.147 29.9391 32.3196 30.3852 31.0137C30.9368 29.3995 30.0851 27.615 28.4871 27.031L20.3352 24.0379C19.7836 23.8351 19.224 23.681 18.6643 23.5837V18.8304C18.6643 14.1502 22.4766 10.3378 27.1569 10.3378H30.296C34.9762 10.3378 38.7886 14.1502 38.7886 18.8304V21.0692C38.7886 21.5396 39.1698 21.929 39.6484 21.929C40.1269 21.929 40.5082 21.5477 40.5082 21.0692V18.8304C40.5082 13.8744 36.9554 9.72136 32.2589 8.80477V6.21724L34.4328 2.50223C34.5544 2.29134 34.5869 2.0399 34.5139 1.80467C34.4409 1.56944 34.2705 1.38287 34.0515 1.28553L31.391 0.0769437C31.1882 -0.0122813 30.953 -0.0285031 30.7421 0.0526106L28.7629 0.766403L27.0109 0.0688244C26.8081 -0.0122893 26.581 -0.0122893 26.3863 0.0688244L23.596 1.14764C23.3608 1.23686 23.1823 1.42343 23.1012 1.65866C23.0201 1.89389 23.0363 2.15345 23.158 2.36434L25.2994 6.21724V8.79667C20.5623 9.6808 16.9609 13.8419 16.9609 18.8385V23.4215C15.5414 23.4052 14.1219 23.6972 12.7916 24.2813L8.58183 26.1388C8.33849 25.7819 7.99781 25.498 7.58413 25.3357C7.0569 25.133 6.47288 25.1411 5.95375 25.3763L0.51102 27.761C0.194677 27.8989 0 28.2072 0 28.5478V43.1402C0 43.4403 0.154116 43.7161 0.405568 43.8702C0.543462 43.9513 0.69758 44 0.851696 44C0.981478 44 1.11938 43.9676 1.24105 43.9108L11.802 38.5735C12.3131 38.3383 12.7024 37.9246 12.9052 37.4055C13.0674 36.9756 13.0917 36.5213 12.9782 36.0833L13.0512 36.0509C14.7951 35.2803 16.7824 35.3208 18.4939 36.1725L22.5496 38.1842C24.7153 39.263 27.2299 39.3197 29.4443 38.3383L40.5244 33.4471C41.3274 33.0902 41.9439 32.4494 42.2602 31.6302C42.5928 30.7947 42.5685 29.9106 42.2197 29.1075ZM30.5717 8.58576H27.0352V6.81749H30.5717V8.58576ZM25.1615 2.35624L26.7107 1.75599L28.4547 2.45357C28.6494 2.53468 28.8684 2.53469 29.063 2.46169L31.0179 1.75599L32.4942 2.42924L30.9368 5.09788H26.6783L25.1615 2.35624ZM11.1045 36.9837C11.0882 36.9918 11.0801 36.9918 11.0639 36.9999L1.73584 41.7126V38.2328L4.15303 37.0486C4.57482 36.8377 4.75327 36.3267 4.54237 35.8968C4.33148 35.4668 3.82046 35.2965 3.39056 35.5074L1.73584 36.3185V29.0751L6.65944 26.9175C6.79733 26.8607 6.91089 26.885 6.97578 26.9094C7.03256 26.9337 7.14612 26.9905 7.2029 27.1284L7.39758 27.5745L11.3154 36.4402C11.4046 36.6511 11.3154 36.8944 11.1045 36.9837Z" fill="#2029BD"/>
</svg>
