<svg width="46" height="42" viewBox="0 0 46 42" fill="none" xmlns="http://www.w3.org/2000/svg">
<path d="M28.5182 0.280518H17.5819C15.8949 0.280518 14.5215 1.65391 14.5215 3.34097V4.74827C14.5215 5.24845 14.9199 5.6469 15.4201 5.6469C15.9203 5.6469 16.3188 5.24845 16.3188 4.74827V3.34097C16.3188 2.6458 16.8868 2.06931 17.5904 2.06931H28.5266C29.2218 2.06931 29.7983 2.63732 29.7983 3.34097V4.74827C29.7983 5.24845 30.1967 5.6469 30.6969 5.6469C31.1971 5.6469 31.5956 5.24845 31.5956 4.74827V3.34097C31.5786 1.65391 30.2052 0.280518 28.5182 0.280518Z" fill="#14CAF4"/>
<path d="M41.6001 7.53735H4.38298C1.96683 7.53735 0 9.50418 0 11.9203V19.8978C0 20.2963 0.262811 20.6439 0.644307 20.7626L1.19536 20.9236V39.7357C1.19536 40.8293 2.08551 41.7194 3.17914 41.7194H42.8209C43.9145 41.7194 44.8046 40.8293 44.8046 39.7357V21.0508L45.3472 20.8982C45.7287 20.788 46 20.4319 46 20.0335V11.9203C45.983 9.50418 44.0162 7.53735 41.6001 7.53735ZM8.01143 39.9222H3.17066C3.06893 39.9222 2.98415 39.8374 2.98415 39.7357V34.8949H5.56985C6.9178 34.8949 8.01143 35.9885 8.01143 37.3365V39.9222ZM42.9989 39.7357C42.9989 39.8374 42.9141 39.9222 42.8124 39.9222H37.9716V37.3365C37.9716 35.9885 39.0652 34.8949 40.4132 34.8949H42.9989V39.7357ZM42.9989 33.0976H40.4132C38.0734 33.0976 36.1744 34.9966 36.1744 37.3365V39.9222H9.8087V37.3365C9.8087 34.9966 7.90969 33.0976 5.56985 33.0976H2.98415V21.4493L18.8375 26.1289V29.0114C18.8375 29.5115 19.2359 29.91 19.7361 29.91H26.2385C26.7387 29.91 27.1371 29.5115 27.1371 29.0114V26.1459L42.9904 21.5679V33.0976H42.9989ZM20.6432 28.1212V23.7467H25.3483V28.1212H20.6432ZM44.1858 19.3637L27.1371 24.2893V22.8481C27.1371 22.3479 26.7387 21.9494 26.2385 21.9494H19.7361C19.2359 21.9494 18.8375 22.3479 18.8375 22.8481V24.2639L1.7888 19.2366V11.9288C1.7888 10.5045 2.95024 9.3431 4.3745 9.3431H8.00295V12.4544C8.00295 12.9546 8.4014 13.353 8.90158 13.353C9.40177 13.353 9.80023 12.9546 9.80023 12.4544V9.33462H35.8352V12.4459C35.8352 12.9461 36.2337 13.3446 36.7339 13.3446C37.2341 13.3446 37.6325 12.9461 37.6325 12.4459V9.33462H41.5916C43.0159 9.33462 44.1773 10.4961 44.1773 11.9203V19.3637H44.1858Z" fill="#2029BD"/>
<path d="M37.6488 15.9134C37.6488 16.4051 37.2504 16.812 36.7502 16.812C36.25 16.812 35.8516 16.4136 35.8516 15.9134C35.8516 15.4132 36.25 15.0148 36.7502 15.0148C37.2504 15.0148 37.6488 15.4132 37.6488 15.9134Z" fill="#131217"/>
<path d="M9.80899 15.9134C9.80899 16.4051 9.41054 16.812 8.91035 16.812C8.41017 16.812 8.01172 16.4136 8.01172 15.9134C8.01172 15.4132 8.41017 15.0148 8.91035 15.0148C9.41054 15.0148 9.80899 15.4132 9.80899 15.9134Z" fill="#131217"/>
</svg>
