<svg width="47" height="44" viewBox="0 0 47 44" fill="none" xmlns="http://www.w3.org/2000/svg">
<path d="M23.2567 26.292C18.3774 26.292 14.3984 30.2624 14.3984 35.1503C14.3984 37.9201 15.6847 40.407 17.6828 42.0277C17.7171 42.062 17.76 42.0963 17.8028 42.122C19.3035 43.2968 21.1987 44 23.2482 44C25.2977 44 27.1928 43.2968 28.6935 42.122C28.7364 42.0963 28.7792 42.062 28.8135 42.0277C30.8116 40.407 32.0979 37.9201 32.0979 35.1503C32.115 30.2624 28.1447 26.292 23.2567 26.292ZM23.2567 42.182C21.8161 42.182 20.4869 41.7447 19.3721 41.0072C19.9724 39.4723 21.5159 38.4089 23.2567 38.4089C24.9975 38.4089 26.5497 39.4723 27.1414 41.0072C26.0266 41.7533 24.6974 42.182 23.2567 42.182ZM21.6532 35.1417C21.6532 34.3442 22.3049 33.6925 23.1024 33.6925C23.8999 33.6925 24.5516 34.3442 24.5516 35.1417C24.5516 35.9392 23.8999 36.591 23.1024 36.591C22.3049 36.591 21.6532 35.9392 21.6532 35.1417ZM28.5649 39.7552C27.9474 38.5804 26.927 37.6543 25.7093 37.114C26.1209 36.5652 26.3696 35.8878 26.3696 35.1503C26.3696 33.3495 24.9032 31.8831 23.1024 31.8831C21.3016 31.8831 19.8352 33.3495 19.8352 35.1503C19.8352 35.9392 20.1182 36.6595 20.5812 37.2255C19.4579 37.7743 18.5317 38.6662 17.9486 39.7638C16.8767 38.529 16.2164 36.9168 16.2164 35.1503C16.2164 31.2657 19.3721 28.11 23.2567 28.11C27.1414 28.11 30.2971 31.2657 30.2971 35.1503C30.2971 36.9082 29.6453 38.5204 28.5649 39.7552Z" fill="#2029BD"/>
<path d="M8.8583 0C3.97037 0 0 3.97036 0 8.85829C0 11.6281 1.2863 14.115 3.28434 15.7357C3.31865 15.77 3.36152 15.8043 3.4044 15.83C4.90508 17.0048 6.80022 17.708 8.84972 17.708C10.8992 17.708 12.7944 17.0048 14.295 15.83C14.3379 15.8043 14.3808 15.77 14.4151 15.7357C16.4217 14.115 17.6994 11.6281 17.6994 8.85829C17.708 3.97036 13.7377 0 8.8583 0ZM8.8583 15.8901C7.42622 15.8901 6.08847 15.4527 4.97368 14.7152C5.57395 13.1802 7.11751 12.1169 8.8583 12.1169C10.5991 12.1169 12.1512 13.1802 12.7429 14.7152C11.6281 15.4613 10.2904 15.8901 8.8583 15.8901ZM7.25471 8.85829C7.25471 8.06078 7.90644 7.40907 8.70394 7.40907C9.50145 7.40907 10.1532 8.06078 10.1532 8.85829C10.1532 9.65579 9.50145 10.3075 8.70394 10.3075C7.90644 10.3075 7.25471 9.65579 7.25471 8.85829ZM14.1664 13.4718C13.549 12.297 12.5285 11.3709 11.3108 10.8306C11.7225 10.2818 11.9711 9.60435 11.9711 8.86687C11.9711 7.06605 10.5048 5.59968 8.70394 5.59968C6.90313 5.59968 5.43675 7.06605 5.43675 8.86687C5.43675 9.6558 5.71973 10.3761 6.1828 10.9421C5.05943 11.4909 4.1333 12.3827 3.55018 13.4804C2.47827 12.2455 1.81797 10.6334 1.81797 8.86687C1.81797 4.98225 4.97368 1.82653 8.8583 1.82653C12.7429 1.82653 15.8986 4.98225 15.8986 8.86687C15.8901 10.6162 15.2383 12.2284 14.1664 13.4718Z" fill="#2029BD"/>
<path d="M37.663 0C32.7836 0 28.8047 3.97036 28.8047 8.85829C28.8047 11.6281 30.091 14.115 32.089 15.7357C32.1233 15.77 32.1662 15.8043 32.2091 15.83C33.7098 17.0048 35.6049 17.708 37.6544 17.708C39.7039 17.708 41.5991 17.0048 43.0997 15.83C43.1426 15.8043 43.1855 15.77 43.2198 15.7357C45.2264 14.115 46.5041 11.6281 46.5041 8.85829C46.5127 3.97036 42.5423 0 37.663 0ZM37.663 15.8901C36.2309 15.8901 34.8932 15.4527 33.7784 14.7152C34.3786 13.1802 35.9222 12.1169 37.663 12.1169C39.4038 12.1169 40.9559 13.1802 41.5476 14.7152C40.4328 15.4613 39.0951 15.8901 37.663 15.8901ZM36.0594 8.85829C36.0594 8.06078 36.7111 7.40907 37.5086 7.40907C38.3061 7.40907 38.9579 8.06078 38.9579 8.85829C38.9579 9.65579 38.3061 10.3075 37.5086 10.3075C36.7111 10.3075 36.0594 9.65579 36.0594 8.85829ZM42.9711 13.4718C42.3537 12.297 41.3332 11.3709 40.1155 10.8306C40.5271 10.2818 40.7758 9.60435 40.7758 8.86687C40.7758 7.06605 39.3094 5.59968 37.5086 5.59968C35.7078 5.59968 34.2414 7.06605 34.2414 8.86687C34.2414 9.6558 34.5244 10.3761 34.9875 10.9421C33.8641 11.4909 32.938 12.3827 32.3549 13.4804C31.283 12.2455 30.6312 10.6334 30.6312 8.86687C30.6312 4.98225 33.7869 1.82653 37.6716 1.82653C41.5562 1.82653 44.7119 4.98225 44.7119 8.86687C44.6947 10.6162 44.043 12.2284 42.9711 13.4718Z" fill="#2029BD"/>
<path d="M12.8113 31.0342L12.8027 31.0256C12.4168 30.6997 11.8508 30.7512 11.525 31.1285C11.1991 31.5058 11.2506 32.0804 11.6279 32.4062L11.6365 32.4148C11.808 32.5606 12.0138 32.6292 12.2196 32.6292C12.4768 32.6292 12.7341 32.5177 12.9142 32.3033C13.2315 31.926 13.18 31.36 12.8113 31.0342Z" fill="#14CAF4"/>
<path d="M11.0363 29.2162C11.0363 29.2162 11.0277 29.2076 11.0277 29.1991C10.7018 28.8132 10.1359 28.7703 9.74996 29.0876C9.36407 29.4049 9.31262 29.9794 9.63848 30.3653C9.81857 30.5797 10.0758 30.6912 10.3417 30.6912C10.5475 30.6912 10.7533 30.6226 10.9162 30.4854C11.3021 30.1681 11.3535 29.6021 11.0363 29.2162Z" fill="#14CAF4"/>
<path d="M9.56124 27.1323L9.55266 27.1151C9.2954 26.6864 8.73801 26.5491 8.30067 26.8064C7.8719 27.0637 7.7347 27.6211 7.99196 28.0498C8.16346 28.3414 8.4636 28.4957 8.78088 28.4957C8.93524 28.4957 9.09817 28.4529 9.23538 28.3671C9.67272 28.1184 9.8185 27.561 9.56124 27.1323Z" fill="#14CAF4"/>
<path d="M7.67536 22.3902C7.57245 21.9014 7.08366 21.5841 6.59487 21.6956C6.10608 21.7985 5.78879 22.2873 5.90027 22.7761C5.90027 22.7761 5.90027 22.7932 5.90884 22.7932C6.00317 23.2134 6.38049 23.5049 6.7921 23.5049C6.8607 23.5049 6.92931 23.4964 6.99791 23.4792C7.4867 23.3677 7.78684 22.8789 7.67536 22.3902Z" fill="#14CAF4"/>
<path d="M8.42977 24.8343L8.42119 24.8257C8.23254 24.3626 7.70087 24.1397 7.2378 24.3197C6.77473 24.5084 6.5432 25.0401 6.73186 25.5031C6.86906 25.8633 7.21207 26.0777 7.57224 26.0777C7.68372 26.0777 7.7952 26.0605 7.90668 26.0177C8.38689 25.829 8.61843 25.2973 8.42977 24.8343Z" fill="#14CAF4"/>
<path d="M34.9956 31.1285C34.6698 30.7426 34.0952 30.6998 33.7179 31.0256L33.7093 31.0342C33.332 31.3601 33.2891 31.926 33.6064 32.3119C33.7865 32.5263 34.0438 32.6378 34.301 32.6378C34.5068 32.6378 34.7126 32.5692 34.8841 32.4234L34.8927 32.4148C35.2786 32.0804 35.3215 31.5144 34.9956 31.1285Z" fill="#14CAF4"/>
<path d="M39.2754 24.3196C38.8123 24.131 38.2807 24.354 38.092 24.8256L38.0834 24.8342C37.8948 25.2972 38.1263 25.8203 38.5894 26.009C38.7008 26.0519 38.8123 26.069 38.9238 26.069C39.284 26.069 39.627 25.8546 39.7728 25.4945C39.9614 25.0314 39.7385 24.5083 39.2754 24.3196Z" fill="#14CAF4"/>
<path d="M36.7712 29.0875C36.3853 28.7616 35.8108 28.813 35.4935 29.1989C35.4935 29.1989 35.4849 29.2075 35.4849 29.2161C35.1676 29.602 35.2191 30.1679 35.605 30.4852C35.7765 30.6224 35.9823 30.691 36.1881 30.691C36.4454 30.691 36.7112 30.5796 36.8913 30.3652C37.2 29.9879 37.1571 29.4133 36.7712 29.0875Z" fill="#14CAF4"/>
<path d="M39.9177 21.6956C39.4289 21.5841 38.9487 21.9014 38.8372 22.3816C38.7258 22.8704 39.0345 23.3592 39.5233 23.4707C39.5919 23.4878 39.6605 23.4964 39.7291 23.4964C40.1407 23.4964 40.518 23.2134 40.6123 22.7932V22.7761C40.7152 22.2873 40.4065 21.8071 39.9177 21.6956Z" fill="#14CAF4"/>
<path d="M38.2111 26.8064C37.7823 26.5491 37.2249 26.6864 36.9677 27.1151L36.9591 27.1323C36.7018 27.561 36.8476 28.127 37.2849 28.3757C37.4307 28.4614 37.5851 28.5043 37.748 28.5043C38.0567 28.5043 38.3654 28.3414 38.5284 28.0584C38.777 27.6211 38.6398 27.0637 38.2111 26.8064Z" fill="#14CAF4"/>
<path d="M40.1492 19.0115C39.6432 18.9857 39.223 19.3716 39.1887 19.869C39.163 20.3664 39.5403 20.7951 40.0463 20.8209C40.0634 20.8209 40.0806 20.8209 40.0977 20.8209C40.5779 20.8209 40.981 20.4435 41.0067 19.9633C41.041 19.466 40.6551 19.0372 40.1492 19.0115Z" fill="#14CAF4"/>
<path d="M28.9069 1.64643C28.4181 1.49207 27.9122 1.74933 27.7578 2.22954C27.6035 2.70976 27.8693 3.21571 28.3409 3.37006H28.3495C28.4439 3.39579 28.5382 3.41294 28.6325 3.41294C29.0184 3.41294 29.37 3.16426 29.4986 2.78695C29.653 2.30673 29.3871 1.80078 28.9069 1.64643Z" fill="#131217"/>
<path d="M26.1201 0.986067H26.0944C25.597 0.908889 25.1339 1.2519 25.0568 1.74927C24.9882 2.24664 25.3226 2.7097 25.82 2.7783C25.8714 2.78688 25.9229 2.78689 25.9657 2.78689C26.4031 2.78689 26.789 2.46959 26.8576 2.02367C26.9519 1.53488 26.6175 1.07182 26.1201 0.986067Z" fill="#131217"/>
<path d="M23.2476 0.780396H23.2218C22.7159 0.788971 22.3128 1.20059 22.3214 1.69796C22.33 2.19533 22.733 2.58979 23.2304 2.58979C23.239 2.58979 23.239 2.58979 23.2476 2.58979C23.7535 2.58979 24.1565 2.18675 24.1565 1.68081C24.1565 1.19201 23.7449 0.780396 23.2476 0.780396Z" fill="#131217"/>
<path d="M18.7201 2.2554C18.5744 1.77518 18.0684 1.50078 17.5882 1.64656H17.5796C17.0994 1.79234 16.8336 2.29827 16.9793 2.77849C17.0994 3.16438 17.4596 3.42164 17.8455 3.42164C17.9312 3.42164 18.0255 3.40449 18.1113 3.37876C18.6001 3.24155 18.8659 2.73561 18.7201 2.2554Z" fill="#131217"/>
<path d="M21.4208 1.78363C21.3436 1.28626 20.872 0.951834 20.3832 1.02901L20.5118 1.92942L20.3746 1.02901C19.8773 1.10619 19.5343 1.56925 19.6114 2.05805C19.68 2.51254 20.0659 2.82982 20.5118 2.82982C20.5547 2.82982 20.5976 2.82982 20.649 2.82125H20.6662C21.1636 2.74407 21.5066 2.281 21.4208 1.78363Z" fill="#131217"/>
<path d="M7.29743 19.6718C7.19453 19.183 6.70573 18.8657 6.21694 18.9772C5.72815 19.0801 5.41086 19.5689 5.52234 20.0577V20.0748C5.61667 20.495 5.99398 20.7866 6.4056 20.7866C6.4742 20.7866 6.5428 20.778 6.6114 20.7608C7.1002 20.6408 7.40891 20.1606 7.29743 19.6718Z" fill="#14CAF4"/>
</svg>
