<svg width="41" height="44" viewBox="0 0 41 44" fill="none" xmlns="http://www.w3.org/2000/svg">
<path d="M17.4897 14.7153C17.4897 15.2102 17.0923 15.6077 16.5974 15.6077C16.1026 15.6077 15.7051 15.2102 15.7051 14.7153C15.7051 14.2205 16.1026 13.823 16.5974 13.823C17.0923 13.823 17.4897 14.2205 17.4897 14.7153Z" fill="#191B1E"/>
<path d="M24.2534 14.7153C24.2534 15.2102 23.8559 15.6077 23.3611 15.6077C22.8662 15.6077 22.4688 15.2102 22.4688 14.7153C22.4688 14.2205 22.8662 13.823 23.3611 13.823C23.8559 13.823 24.2534 14.2205 24.2534 14.7153Z" fill="#191B1E"/>
<path d="M34.1438 30.6069C32.4808 30.1851 31.0044 29.8444 29.2684 29.5605L27.5243 26.924C27.3783 26.6969 27.135 26.559 26.8673 26.5428C26.5996 26.5265 26.34 26.632 26.1615 26.8348L20.1667 33.6165L14.1962 27.2323C14.0258 27.0457 13.7743 26.9484 13.5229 26.9646C13.2714 26.9808 13.0361 27.1025 12.882 27.3053L11.1704 29.5524C9.38569 29.8363 7.87684 30.1851 6.18953 30.615C2.5472 31.5479 0 34.8333 0 38.6136V40.6172C0 42.483 1.51696 44 3.38274 44H17.1733H23.6224C23.6224 44 23.6224 44 23.6305 44H36.9993C38.865 44 40.382 42.483 40.382 40.6172V38.6136C40.3739 34.8333 37.8105 31.5398 34.1438 30.6069ZM26.705 28.8142L27.9624 30.7205L24.8392 36.9262L21.4808 34.7279L26.705 28.8142ZM13.6364 29.1549L18.8525 34.7279L15.4211 36.91L12.6062 30.5015L13.6364 29.1549ZM16.4351 42.2802H3.37463C2.45796 42.2802 1.71165 41.5339 1.71165 40.6172V38.6136C1.71165 35.6202 3.72345 33.0162 6.61135 32.2861C8.14454 31.8967 9.51548 31.5723 11.0892 31.3127L14.2529 38.5243C14.3503 38.7515 14.5531 38.9299 14.7883 39.0029C15.0317 39.076 15.2913 39.0435 15.5022 38.9056L17.1733 37.8429L16.4351 42.2802ZM18.1792 42.2802L19.1202 36.5937L20.1829 35.9203L21.2942 36.6504L22.5597 42.2802H18.1792ZM36.9993 42.2802H24.3201L23.3628 38.0052L24.7175 38.8894C24.8555 38.9786 25.0258 39.0273 25.188 39.0273C25.2611 39.0273 25.3341 39.0192 25.4071 38.9948C25.6423 38.9299 25.8451 38.7677 25.9506 38.5487L29.5767 31.3451C31.0125 31.5966 32.2942 31.8967 33.722 32.2618C36.6342 33 38.6622 35.6121 38.6622 38.6055V40.6091C38.6622 41.5339 37.9159 42.2802 36.9993 42.2802Z" fill="#2029BD"/>
<path d="M32.7577 3.21239C32.279 3.21239 31.8978 3.59366 31.8978 4.07227V5.22419C31.8978 6.9764 30.47 8.39602 28.7259 8.39602H15.2518C15.2274 8.39602 15.195 8.39602 15.1706 8.39602C15.1463 8.39602 15.1139 8.39602 15.0895 8.39602C12.3882 8.39602 10.1898 10.5944 10.1898 13.2957V17.806C10.1898 18.2117 10.2141 18.6091 10.2628 19.0066C8.51872 18.2522 8.35648 15.9808 8.35648 15.2021V7.13864C8.35648 5.58112 9.62196 4.30752 11.1876 4.30752H12.2422C12.7127 4.30752 13.1021 3.92625 13.1021 3.44764C13.1021 2.49041 13.8808 1.71976 14.8299 1.71976H28.9936C29.4723 1.71976 29.8535 1.3385 29.8535 0.859882C29.8535 0.381268 29.4723 0 28.9936 0H14.8299C13.2237 0 11.869 1.10324 11.4877 2.58776H11.1876C8.68096 2.58776 6.63672 4.63201 6.63672 7.13864V15.2102C6.63672 18.3414 8.20235 20.5074 10.6847 20.913C11.9826 24.8149 15.6655 27.6379 19.9973 27.6379C25.4081 27.6379 29.813 23.233 29.813 17.8223V10.0022C31.987 9.50737 33.6094 7.55236 33.6094 5.2323V4.07227C33.6175 3.60177 33.2363 3.21239 32.7577 3.21239ZM28.1013 17.8142C28.1013 22.2758 24.4671 25.91 20.0054 25.91C15.5438 25.91 11.9096 22.2758 11.9096 17.8142V13.3038C11.9096 11.5516 13.3373 10.1239 15.0895 10.1239C15.1139 10.1239 15.1463 10.1239 15.1706 10.1158C15.195 10.1158 15.2274 10.1239 15.2518 10.1239H28.1013V17.8142Z" fill="#2029BD"/>
<path d="M23.3225 20.2235C22.99 19.8909 22.4383 19.8909 22.1057 20.2235C21.5947 20.7346 20.9051 21.0185 20.1832 21.0185C19.4206 21.0185 18.6905 20.694 18.1714 20.1262C17.855 19.7774 17.3115 19.753 16.9545 20.0694C16.6057 20.3858 16.5814 20.9374 16.8978 21.2862C17.7414 22.2029 18.9339 22.7383 20.1832 22.7383C21.3675 22.7383 22.487 22.2759 23.3225 21.4403C23.6551 21.0996 23.6551 20.5561 23.3225 20.2235Z" fill="#14CAF4"/>
<path d="M33.6182 0.859882C33.6182 1.3385 33.2369 1.71976 32.7583 1.71976C32.2797 1.71976 31.8984 1.3385 31.8984 0.859882C31.8984 0.381268 32.2797 0 32.7583 0C33.2369 0 33.6182 0.381268 33.6182 0.859882Z" fill="#191B1E"/>
</svg>
