<svg width="45" height="44" viewBox="0 0 45 44" fill="none" xmlns="http://www.w3.org/2000/svg">
<path d="M7.9965 34.4936C7.9965 34.9805 7.60866 35.3684 7.12179 35.3684C6.64317 35.3684 6.24707 34.9805 6.24707 34.4936C6.24707 34.0068 6.63492 33.6189 7.12179 33.6189C7.60866 33.6189 7.9965 34.0068 7.9965 34.4936Z" fill="#131217"/>
<path d="M40.3445 7.7487H35.2034C34.0399 7.7487 32.9754 8.1613 32.1419 8.85447V6.22206C32.1419 2.7892 29.3527 0 25.9199 0H20.0857C19.607 0 19.2109 0.387845 19.2109 0.874717V3.27607C19.2109 6.70893 22.0001 9.50639 25.4413 9.50639H30.4007V18.3691C30.1697 18.3526 29.9386 18.3443 29.7076 18.3443C27.4135 18.3443 25.2102 19.054 23.3535 20.3908C22.9656 20.6714 22.8749 21.2161 23.1554 21.6122C23.436 22 23.9806 22.0908 24.3767 21.8102C25.9364 20.6879 27.7766 20.0938 29.7076 20.0938C30.1779 20.0938 30.6318 20.1268 31.0857 20.2011C31.1269 20.2093 31.1599 20.2176 31.2012 20.2176C33.9244 20.6714 36.3257 22.3383 37.6873 24.7975C37.8441 25.0863 38.1494 25.2513 38.4548 25.2513C38.595 25.2513 38.7436 25.2183 38.8756 25.144C39.2965 24.913 39.4533 24.3766 39.214 23.9557C37.7038 21.2243 35.1127 19.3098 32.1419 18.6249V15.7862H36.4082C39.0571 15.7862 41.2192 13.6324 41.2192 10.9753V8.61516C41.2192 8.13654 40.8314 7.7487 40.3445 7.7487ZM30.3925 7.7487H25.433C22.9656 7.7487 20.9521 5.74343 20.9521 3.26781V1.7412H25.9116C28.379 1.7412 30.3925 3.74644 30.3925 6.22206V7.7487ZM39.4698 10.9835C39.4698 12.6669 38.0999 14.045 36.4082 14.045H32.1419V12.5596C32.1419 10.8762 33.5118 9.49813 35.2034 9.49813H39.4698V10.9835Z" fill="#14CAF4"/>
<path d="M44.4951 28.3707C43.7277 26.646 41.7059 25.8538 39.973 26.6212C39.9647 26.6212 39.9648 26.6212 39.9565 26.6295L34.2461 29.2619C33.8087 29.4682 33.6189 29.9798 33.817 30.4254C34.0233 30.8628 34.5349 31.0526 34.9805 30.8546L40.6827 28.2221C41.5244 27.8508 42.5146 28.2386 42.886 29.0803C43.2573 29.9303 42.8777 30.9206 42.0278 31.2919L30.3346 36.4494C28.4861 37.2664 26.3819 37.2169 24.5664 36.3174L20.2836 34.1884C18.006 33.0578 15.3571 32.9918 13.03 34.0233L12.9475 34.0646L9.74568 26.8193L14.1853 24.8553C16.2978 23.9228 18.6579 23.8486 20.8282 24.6407L29.4351 27.8013C30.2191 28.0901 30.6399 28.9648 30.3676 29.757C30.0953 30.5657 29.2123 30.9948 28.4036 30.7225L21.7525 28.4697C21.2986 28.3129 20.7952 28.5605 20.6467 29.0143C20.4899 29.4682 20.7374 29.9716 21.1913 30.1201L27.8425 32.3729C28.1891 32.4885 28.5439 32.5462 28.8987 32.5462C30.2686 32.5462 31.5559 31.6797 32.0263 30.3181C32.6039 28.6347 31.7127 26.7698 30.0458 26.1509L21.4389 22.9903C18.8395 22.0331 16.0173 22.1239 13.4839 23.2461L9.01126 25.2184C8.7637 24.8305 8.40061 24.5335 7.955 24.3602C7.40211 24.1456 6.7997 24.1621 6.26331 24.4014L0.519884 26.9183C0.198054 27.0586 0 27.3722 0 27.7188V43.1254C0 43.4307 0.156789 43.7113 0.412603 43.868C0.552888 43.9506 0.709693 44.0001 0.866482 44.0001C0.998515 44.0001 1.13878 43.9671 1.26256 43.9093L12.4029 38.2814C12.931 38.0421 13.3436 37.613 13.5499 37.0684C13.7232 36.6145 13.7479 36.1276 13.6159 35.6655L13.7232 35.616C15.5716 34.799 17.6759 34.8485 19.4914 35.748L23.7742 37.877C26.0518 39.0076 28.7007 39.0653 31.0278 38.0421L42.7209 32.8846C44.4704 32.1254 45.2626 30.0954 44.4951 28.3707ZM11.9573 36.4412C11.916 36.5567 11.8252 36.6475 11.7097 36.697C11.6932 36.7053 11.6849 36.7135 11.6684 36.7135L1.77419 41.7143V37.8853L4.35709 36.6145C4.79445 36.3999 4.96775 35.8801 4.7532 35.4427C4.53864 35.0136 4.01875 34.832 3.58139 35.0466L1.76595 35.9378V28.3047L6.98126 26.0188C7.09679 25.9693 7.22057 25.9693 7.3361 26.0106C7.45163 26.0519 7.5424 26.1426 7.59191 26.2581L11.7014 35.5747L11.9242 36.0864C11.9985 36.1936 11.9985 36.3257 11.9573 36.4412Z" fill="#2029BD"/>
</svg>
