<svg width="42" height="44" viewBox="0 0 42 44" fill="none" xmlns="http://www.w3.org/2000/svg">
<path d="M40.8033 42.2804H38.9213V14.9106C38.9213 13.637 37.883 12.5986 36.6094 12.5986H32.3993C31.1257 12.5986 30.0874 13.637 30.0874 14.9106V42.2804H25.3013V27.3138C25.3013 26.0402 24.263 25.0019 22.9894 25.0019H18.7793C17.5057 25.0019 16.4673 26.0402 16.4673 27.3138V42.2804H11.6813V34.5254C11.6813 33.2518 10.6429 32.2134 9.36935 32.2134H5.15923C3.88565 32.2134 2.84731 33.2518 2.84731 34.5254V42.2804H0.859871C0.381264 42.2804 0 42.6617 0 43.1403C0 43.6189 0.381264 44.0002 0.859871 44.0002H40.8033C41.2738 44.0002 41.6632 43.6189 41.6632 43.1403C41.6632 42.6617 41.2819 42.2804 40.8033 42.2804ZM9.96153 42.2804H4.56705V34.5254C4.56705 34.2009 4.83475 33.9332 5.15923 33.9332H9.36935C9.69383 33.9332 9.96153 34.2009 9.96153 34.5254V42.2804ZM23.5816 42.2804H18.1871V27.3138C18.1871 26.9893 18.4548 26.7216 18.7793 26.7216H22.9894C23.3139 26.7216 23.5816 26.9893 23.5816 27.3138V42.2804ZM37.2016 42.2804H31.8071V14.9106C31.8071 14.5861 32.0748 14.3184 32.3993 14.3184H36.6094C36.9339 14.3184 37.2016 14.5861 37.2016 14.9106V42.2804Z" fill="#2029BD"/>
<path d="M38.9215 0.900984C38.9377 0.665736 38.8485 0.430486 38.67 0.252022C38.4916 0.0735583 38.2563 -0.00755965 38.0211 0.000552343C38.0048 0.000552343 37.9967 0.000552343 37.9805 0.000552343H32.7807C32.3021 0.000552343 31.9208 0.381814 31.9208 0.860422C31.9208 1.33903 32.3021 1.72029 32.7807 1.72029H35.9931L27.4998 10.2136L24.2956 7.00932C24.1333 6.84707 23.9143 6.75783 23.6872 6.75783C23.46 6.75783 23.241 6.84707 23.0788 7.00932L7.62542 22.4627C7.29283 22.7953 7.29283 23.3388 7.62542 23.6795C7.79577 23.8498 8.0148 23.9309 8.23382 23.9309C8.45284 23.9309 8.67187 23.8498 8.84222 23.6795L23.6872 8.83451L26.8914 12.0387C27.224 12.3713 27.7675 12.3713 28.1082 12.0387L37.2099 2.93709V5.84119C37.2099 6.31979 37.5911 6.70106 38.0697 6.70106C38.5483 6.70106 38.9296 6.31979 38.9296 5.84119V0.949654C38.9215 0.925318 38.9215 0.917208 38.9215 0.900984Z" fill="#14CAF4"/>
<path d="M6.18947 26.0645C6.18947 26.535 5.80821 26.9243 5.3296 26.9243C4.85099 26.9243 4.46973 26.5431 4.46973 26.0645C4.46973 25.5859 4.85099 25.2046 5.3296 25.2046C5.80821 25.2046 6.18947 25.5859 6.18947 26.0645Z" fill="#131217"/>
</svg>
