<svg width="48" height="42" viewBox="0 0 48 42" fill="none" xmlns="http://www.w3.org/2000/svg">
<path d="M43.4139 15.039C43.4139 15.557 43.0013 15.9696 42.4833 15.9696C41.9654 15.9696 41.5527 15.557 41.5527 15.039C41.5527 14.521 41.9654 14.1084 42.4833 14.1084C42.9925 14.1084 43.4139 14.521 43.4139 15.039Z" fill="#131217"/>
<path d="M18.8143 20.4382C18.8143 20.9561 18.4017 21.3688 17.8837 21.3688C17.3657 21.3688 16.9531 20.9561 16.9531 20.4382C16.9531 19.9202 17.3657 19.5076 17.8837 19.5076C18.4017 19.5076 18.8143 19.9202 18.8143 20.4382Z" fill="#131217"/>
<path d="M44.862 4.4862H37.6279C37.189 1.94022 34.959 0 32.2901 0C29.6212 0 27.4001 1.94022 26.9524 4.4862H19.7182C18.1906 4.4862 16.944 5.73286 16.944 7.26046V11.9398H11.7642C12.2734 11.2199 12.5807 10.342 12.5807 9.39381C12.5807 6.96195 10.6054 4.98662 8.17351 4.98662C5.74165 4.98662 3.76631 6.96195 3.76631 9.39381C3.76631 10.6492 4.29307 11.7818 5.13588 12.5807C2.12459 13.8186 0 16.7333 0 20.1133V27.0401C0 29.1472 1.64172 30.8854 3.73119 31.1049V40.1388H1.40469C0.89549 40.1388 0.474088 40.5514 0.474088 41.0694C0.474088 41.5874 0.886711 42 1.40469 42H27.0226H27.0314H27.0402H38.1547H38.1635H38.1723H45.819C46.3282 42 46.7496 41.5874 46.7496 41.0694C46.7496 40.5514 46.337 40.1388 45.819 40.1388H38.8307L36.1618 32.2023H44.8533C46.3809 32.2023 47.6275 30.9557 47.6275 29.4281V7.25167C47.6363 5.73285 46.3896 4.4862 44.862 4.4862ZM32.2901 1.8612C33.9319 1.8612 35.3102 2.97617 35.7228 4.4862H28.8574C29.2701 2.97617 30.6572 1.8612 32.2901 1.8612ZM8.18228 6.84783C9.58696 6.84783 10.7283 7.98913 10.7283 9.39381C10.7283 10.7985 9.58696 11.9398 8.18228 11.9398C6.7776 11.9398 5.6363 10.7985 5.6363 9.39381C5.6363 7.98913 6.7776 6.84783 8.18228 6.84783ZM11.334 16.7772V40.1476H9.4026V29.6915C9.4026 29.1823 8.98998 28.7609 8.472 28.7609C7.95402 28.7609 7.5414 29.1735 7.5414 29.6915V40.1476H5.60995V20.3591C5.60995 19.8411 5.19733 19.4285 4.67935 19.4285C4.16137 19.4285 3.74875 19.8411 3.74875 20.3591V29.235C2.67768 29.033 1.87876 28.1288 1.87876 27.0489V20.1221C1.87876 16.6367 4.81105 13.8098 8.41933 13.8098H25.5125C25.1175 14.995 24.0025 15.8553 22.6856 15.8553H12.2734C11.7554 15.8466 11.334 16.2592 11.334 16.7772ZM36.8729 40.1476H28.3307L30.9996 32.2111H34.2128L36.8729 40.1476ZM45.7751 29.4369C45.7751 29.9373 45.3625 30.3499 44.862 30.3499H19.727C19.2266 30.3499 18.814 29.9373 18.814 29.4369V23.9937C18.814 23.4758 18.4013 23.0631 17.8834 23.0631C17.3654 23.0631 16.9528 23.4758 16.9528 23.9937V29.4369C16.9528 30.9645 18.1994 32.2111 19.727 32.2111H29.033L26.3641 40.1476H13.1865V17.7078H22.6681C25.337 17.7078 27.5055 15.5393 27.5055 12.8704C27.5055 12.3524 27.0928 11.9398 26.5749 11.9398H18.8052V7.26046C18.8052 6.76004 19.2178 6.3474 19.7182 6.3474H44.862C45.3625 6.3474 45.7751 6.76004 45.7751 7.26046V29.4369Z" fill="#2029BD"/>
<path d="M40.297 17.2163C39.9371 16.8563 39.3489 16.8563 38.9801 17.2163L34.9944 21.202L33.537 19.7447C33.1771 19.3847 32.5888 19.3847 32.2201 19.7447L27.0842 24.8805L25.6532 23.4495C25.4776 23.2739 25.2406 23.1774 24.9948 23.1774C24.749 23.1774 24.5119 23.2739 24.3363 23.4495L21.6674 26.1184C21.3075 26.4784 21.3075 27.0666 21.6674 27.4353C21.8518 27.6197 22.0888 27.7075 22.3259 27.7075C22.5629 27.7075 22.7999 27.6197 22.9843 27.4353L24.9948 25.4249L26.4258 26.8559C26.7857 27.2158 27.374 27.2158 27.7427 26.8559L32.8786 21.72L34.3271 23.1686C34.6871 23.5285 35.2753 23.5285 35.644 23.1686L40.2883 18.5244C40.6658 18.1732 40.6658 17.585 40.297 17.2163Z" fill="#14CAF4"/>
</svg>
