<svg width="46" height="46" viewBox="0 0 46 46" fill="none" xmlns="http://www.w3.org/2000/svg">
<path d="M16.9219 8.73586L16.922 8.73582C17.7146 8.46949 18.4547 8.03738 19.1852 7.41347L16.9219 8.73586ZM16.9219 8.73586C15.8136 9.11001 14.6519 9.16695 13.4548 8.90471L13.2507 8.85999L13.3439 9.047C13.9315 10.2257 14.3185 11.4611 14.4988 12.7281L14.5057 12.7764L14.548 12.8007C16.6803 14.0256 18.9549 14.7225 21.314 14.8694L21.3142 14.8695C22.7487 14.9571 24.1954 14.8151 25.6165 14.4416C27.3691 13.9815 29.007 13.2314 30.4928 12.2099L30.5348 12.1811L30.5361 12.1302C30.5385 12.0394 30.5403 11.9487 30.5421 11.8583C30.543 11.8138 30.5438 11.7693 30.5448 11.725L30.5448 11.7248L30.5453 11.6992C30.5552 11.1868 30.5653 10.6623 30.6331 10.1262C30.8129 8.70768 31.206 7.34185 31.8265 5.9953L31.6722 5.87615C31.2516 6.2213 30.8323 6.56792 30.4145 6.91672L30.4144 6.9168C29.7359 7.48469 29.0041 8.06318 28.0791 8.4479C26.9463 8.91888 25.8838 9.05689 24.8239 8.87367L24.8239 8.87366C23.6749 8.67537 22.6681 8.07862 21.832 7.09476C21.5218 6.72942 21.2065 6.4046 20.8926 6.12785L20.8323 6.0747L20.7674 6.12215C20.281 6.47794 19.818 6.8731 19.3337 7.28642L19.3054 7.31058L19.3052 7.31068L19.1853 7.41338L16.9219 8.73586ZM32.4817 12.4519L32.4795 12.5058L32.5233 12.5372C34.1352 13.695 35.6444 15.1467 37.0176 16.8794C40.5405 21.3382 42.6412 27.1228 42.6412 32.3496C42.6412 35.7105 41.7814 38.2231 40.4065 40.1041C39.031 41.9859 37.1343 43.243 35.0482 44.0827C30.872 45.7638 25.956 45.7649 23 45.7649C20.0439 45.7649 15.128 45.7638 10.9517 44.0827C8.86564 43.243 6.96894 41.9859 5.59345 40.1041C4.21852 38.2231 3.35879 35.7105 3.35879 32.3496C3.35879 27.1228 5.46018 21.3383 8.9816 16.8808L8.98161 16.8808C10.0762 15.4948 11.2714 14.2833 12.5412 13.2531L12.5844 13.2181L12.5774 13.163C12.4228 11.9358 12.0408 10.7381 11.4284 9.60322L11.4284 9.60318C10.9458 8.70971 10.3445 7.86511 9.64142 7.09315C9.6055 7.05315 9.57329 7.01345 9.54067 6.97232L9.54064 6.97228C9.23778 6.59075 9.24891 6.03184 9.57782 5.67958L9.57789 5.6795C9.90991 5.3232 10.4366 5.252 10.8332 5.52416C11.4263 5.9323 12.0781 6.35348 12.7847 6.64807L12.7848 6.64812C14.0468 7.17231 15.1976 7.25266 16.2972 6.8827L16.2973 6.88265C16.8513 6.69528 17.3812 6.38185 17.9144 5.92596L18.0342 5.82408L18.0344 5.82394L18.0424 5.81709C18.5672 5.36887 19.1064 4.90837 19.6861 4.48994L19.6862 4.48991C20.1116 4.18248 20.5257 4.04551 20.9278 4.06634C21.33 4.08718 21.7336 4.26669 22.1365 4.61727C22.5363 4.96509 22.936 5.37255 23.3226 5.82839L23.3227 5.82846C23.8634 6.46476 24.4481 6.82356 25.1578 6.94682L25.1579 6.94684C25.843 7.06498 26.5537 6.96357 27.3271 6.64237L27.3272 6.64234C28.0027 6.36122 28.6077 5.87801 29.1598 5.41636C29.8866 4.80877 30.6193 4.20902 31.3524 3.60889L31.3527 3.60865L31.3527 3.60862C31.4288 3.54628 31.5049 3.48396 31.581 3.42162C32.1575 2.94932 32.7345 2.4767 33.3075 1.99959C33.6725 1.69609 34.0241 1.37623 34.3724 1.05878C34.3725 1.05874 34.3725 1.05869 34.3726 1.05865L34.8702 0.60979C34.9625 0.526659 35.1511 0.358551 35.4545 0.272334C35.8223 0.168011 36.2134 0.285911 36.4626 0.573481C36.7104 0.861042 36.7697 1.2674 36.6139 1.61434L36.613 1.61633L36.5433 1.78092L36.543 1.78175L36.5419 1.7842C36.4737 1.94953 36.3918 2.1478 36.2692 2.34679L36.2691 2.34691C35.7431 3.20344 35.2118 4.05938 34.6647 4.90361C33.4976 6.70055 32.8131 8.48919 32.5752 10.3718C32.5194 10.8047 32.5107 11.2583 32.5016 11.7306L32.5011 11.7605L32.5011 11.7605C32.4967 11.9916 32.491 12.2222 32.4817 12.4519ZM13.957 14.7063L13.8985 14.6744L13.8466 14.7161C12.6618 15.6676 11.5431 16.7943 10.5173 18.093C7.26033 22.2151 5.31504 27.5423 5.31504 32.3488C5.31504 34.8588 5.84636 36.8355 6.79286 38.3872C7.73953 39.9392 9.09725 41.059 10.7384 41.8617C14.0155 43.4648 18.4327 43.808 23 43.808C27.5669 43.808 31.9841 43.4648 35.2614 41.8617C36.9026 41.059 38.2605 39.9392 39.2073 38.3872C40.1539 36.8355 40.6854 34.8588 40.6856 32.3488C40.6856 27.5423 38.7403 22.2144 35.4841 18.093L35.484 18.0928C34.2019 16.4759 32.7943 15.141 31.2983 14.0793L31.243 14.0401L31.1861 14.0769C29.6226 15.0892 27.9274 15.8574 26.1155 16.334C24.804 16.679 23.4714 16.8525 22.1418 16.8525C21.8248 16.8525 21.5085 16.8425 21.1929 16.8225L21.1928 16.8225C18.6722 16.6653 16.2433 15.9509 13.957 14.7063ZM27.2888 6.55002C26.529 6.86555 25.8376 6.96258 25.1749 6.8483L27.2888 6.55002Z" fill="#0F18AF" stroke="white" stroke-width="0.2"/>
<path d="M20.5263 34.5884C20.8814 34.6991 21.2853 34.7832 21.6849 34.8299V34.868C21.6849 35.5594 22.2513 36.1222 22.9478 36.1222C23.6435 36.1222 24.2099 35.5594 24.2099 34.868V34.5985C25.4325 34.1485 26.1556 33.1703 26.1556 31.9499C26.1563 30.7201 25.4878 29.8619 24.0539 29.2488M20.5263 34.5884L20.602 34.3502C20.6018 34.3501 20.6016 34.35 20.6014 34.3499M20.5263 34.5884L20.6007 34.3497C20.6009 34.3498 20.6011 34.3499 20.6014 34.3499M20.5263 34.5884C20.0491 34.4368 19.7709 33.9336 19.8902 33.4434L23.6661 29.3661M20.6014 34.3499C20.9403 34.4556 21.3287 34.5366 21.714 34.5816L21.9349 34.6074V34.8299V34.868C21.9349 35.4198 22.3878 35.8722 22.9478 35.8722C23.5069 35.8722 23.9599 35.4199 23.9599 34.868V34.5985V34.4241L24.1236 34.3639C25.2576 33.9465 25.9056 33.0555 25.9056 31.9499V31.9497C25.9059 31.3841 25.7537 30.9178 25.4454 30.5216C25.1342 30.1218 24.6504 29.7763 23.9594 29.4803M20.6014 34.3499C20.2524 34.2387 20.0446 33.8678 20.133 33.5032C20.133 33.503 20.1331 33.5028 20.1331 33.5026L20.1889 33.2789L20.1889 33.2789L20.1896 33.2759C20.2345 33.0855 20.3544 32.9252 20.5285 32.8271C20.7029 32.7299 20.9145 32.7089 21.1063 32.7714C21.3594 32.8574 21.6392 32.9207 21.9411 32.9627C22.1463 32.9945 22.3439 33.0106 22.5481 33.0106C22.765 33.0106 23.0822 32.9886 23.3539 32.8731C23.4924 32.8143 23.6313 32.7262 23.7361 32.5928C23.8439 32.4557 23.9043 32.285 23.9043 32.085C23.9043 31.9761 23.8866 31.8609 23.8314 31.7443C23.7766 31.6287 23.6918 31.5264 23.5784 31.4321C23.3587 31.2497 23.0072 31.0785 22.4739 30.8885L22.4739 30.8885L22.4718 30.8878C22.2914 30.8254 22.1163 30.7537 21.9397 30.6731L21.9397 30.6731L21.9373 30.672C20.6732 30.1111 20.0928 29.3213 20.0928 28.3374C20.0928 27.2971 20.7039 26.4418 21.7762 26.0215L21.9349 25.9593V25.7888V25.507C21.9349 24.9544 22.3879 24.5021 22.9478 24.5021C23.5068 24.5021 23.9599 24.9543 23.9599 25.507V25.5509V25.7743L24.182 25.7993C24.4186 25.8259 24.6486 25.8695 24.8783 25.9303C25.2621 26.0345 25.4901 26.4305 25.3879 26.8149L25.3318 27.0087L25.3318 27.0087L25.3307 27.0126C25.2314 27.3776 24.8366 27.6074 24.4381 27.4997C24.2936 27.46 24.1268 27.4202 23.9509 27.3885L23.9509 27.3885L23.9475 27.3879C23.7589 27.3566 23.5495 27.3407 23.3309 27.3407C23.0023 27.3407 22.7056 27.4018 22.4816 27.5322C22.2507 27.6668 22.0868 27.8849 22.0868 28.17C22.0868 28.2949 22.1141 28.4186 22.1864 28.5374C22.2561 28.6519 22.3583 28.7462 22.4828 28.8308C22.7249 28.9952 23.1067 29.1584 23.6661 29.3661M23.9594 29.4803L23.9632 29.4818L24.0539 29.2488M23.9594 29.4803L23.6661 29.3661M23.9594 29.4803C23.9581 29.4798 23.9569 29.4792 23.9556 29.4787L24.0539 29.2488M24.0539 29.2488L23.7549 29.1324C22.6279 28.7141 22.3368 28.5157 22.3368 28.17C22.3368 27.8178 22.7271 27.5907 23.3309 27.5907C23.5379 27.5907 23.7334 27.6058 23.9066 27.6345L23.6661 29.3661" fill="#131217" stroke="white" stroke-width="0.5"/>
<path d="M13.3365 30.1876C13.3365 24.859 17.6717 20.5238 23.0003 20.5238C28.329 20.5238 32.6641 24.859 32.6641 30.1876C32.6641 35.5162 28.329 39.8514 23.0003 39.8514C17.6717 39.8514 13.3365 35.5162 13.3365 30.1876ZM15.1928 30.1876C15.1928 34.4931 18.6948 37.9952 23.0003 37.9952C27.3058 37.9952 30.8079 34.4931 30.8079 30.1876C30.8079 25.8821 27.3058 22.38 23.0003 22.38C18.6948 22.38 15.1928 25.8821 15.1928 30.1876Z" fill="#14CAF4" stroke="white" stroke-width="0.3"/>
</svg>
