<svg width="38" height="48" viewBox="0 0 38 48" fill="none" xmlns="http://www.w3.org/2000/svg">
<path d="M35.5665 4.36308H23.548C23.1253 2.29242 21.2876 0.722168 19.0875 0.722168C16.8874 0.722168 15.0497 2.28379 14.6269 4.36308H2.60848C1.26255 4.36308 0.158203 5.4588 0.158203 6.81336V32.826C0.158203 34.172 1.25392 35.2763 2.60848 35.2763H14.023L10.3131 46.3199C10.1491 46.7944 10.408 47.3207 10.8911 47.476C10.986 47.5105 11.0896 47.5277 11.1845 47.5277C11.5641 47.5277 11.9265 47.2862 12.0472 46.9065L15.947 35.2763H22.2107L26.1105 46.9065C26.2399 47.2862 26.5936 47.5277 26.9733 47.5277C27.0682 47.5277 27.1717 47.5105 27.2666 47.476C27.7498 47.312 28 46.7944 27.8447 46.3199L24.1347 35.2763H35.5493C36.8952 35.2763 37.9995 34.1806 37.9995 32.826V6.81336C38.0168 5.46743 36.9211 4.36308 35.5665 4.36308ZM19.0875 2.55988C20.2695 2.55988 21.2789 3.31913 21.6586 4.37172H16.5251C16.9047 3.3105 17.9055 2.55988 19.0875 2.55988ZM36.1877 32.826C36.1877 33.1711 35.9116 33.4472 35.5665 33.4472H33.1766V20.4193C33.1766 19.9103 32.7711 19.5048 32.2621 19.5048C31.753 19.5048 31.3475 19.9103 31.3475 20.4193V33.4472H28.5349V23.2147C28.5349 22.7143 28.1294 22.3002 27.6203 22.3002C27.1199 22.3002 26.7058 22.7057 26.7058 23.2147V33.4472H24.1347V26.1999C24.1347 25.6909 23.7292 25.2854 23.2202 25.2854C22.7112 25.2854 22.3056 25.6909 22.3056 26.1999V33.4472H19.9934V23.8791C19.9934 23.37 19.5879 22.9645 19.0789 22.9645C18.5698 22.9645 18.1643 23.37 18.1643 23.8791V33.4472H15.507V28.4173C15.507 27.9082 15.1015 27.5027 14.5924 27.5027C14.0834 27.5027 13.6779 27.9082 13.6779 28.4173V33.4472H11.5555V28.7883C11.5555 28.2792 11.15 27.8737 10.6409 27.8737C10.1319 27.8737 9.72638 28.2792 9.72638 28.7883V33.4472H7.2761V29.8495C7.2761 29.3404 6.8706 28.9349 6.36156 28.9349C5.85252 28.9349 5.44702 29.3404 5.44702 29.8495V33.4472H2.59124C2.24613 33.4472 1.97004 33.1711 1.97004 32.826V6.81336C1.97004 6.46825 2.24613 6.19216 2.59124 6.19216H35.5493C35.8944 6.19216 36.1704 6.46825 36.1704 6.81336V32.826H36.1877Z" fill="#2029BD"/>
<path d="M33.1766 10.4974C33.1766 10.4887 33.1766 10.4715 33.168 10.4629C33.168 10.4456 33.1594 10.4284 33.1594 10.4111C33.1594 10.3938 33.1507 10.3852 33.1507 10.368C33.1507 10.3507 33.1421 10.3421 33.1421 10.3248C33.1421 10.3076 33.1335 10.2989 33.1249 10.2817C33.1162 10.2644 33.1162 10.2558 33.1076 10.2385C33.099 10.2299 33.099 10.2127 33.0903 10.204C33.0817 10.1868 33.0731 10.1781 33.0731 10.1609C33.0645 10.1523 33.0558 10.135 33.0558 10.1264C33.0472 10.1091 33.0386 10.1005 33.03 10.0832C33.0213 10.0746 33.0127 10.0573 33.0041 10.0487C32.9955 10.0401 32.9868 10.0228 32.9782 10.0142C32.9609 9.99696 32.9437 9.9797 32.9264 9.95382L32.9178 9.94519L32.9092 9.93657C32.8919 9.91931 32.8746 9.90206 32.8488 9.88481C32.8401 9.87618 32.8229 9.86754 32.8143 9.85891C32.8056 9.85028 32.7884 9.84166 32.7798 9.83303C32.7625 9.8244 32.7539 9.81577 32.7366 9.80715C32.728 9.79852 32.7107 9.78989 32.7021 9.78126C32.6849 9.77264 32.6762 9.77264 32.659 9.76402C32.6417 9.75539 32.6331 9.74676 32.6158 9.74676C32.5986 9.73813 32.59 9.73813 32.5727 9.7295C32.5554 9.72087 32.5382 9.72087 32.5295 9.71224C32.5209 9.71224 32.5037 9.70362 32.4951 9.70362C32.4778 9.70362 32.4605 9.69499 32.4433 9.69499C32.426 9.69499 32.4174 9.68636 32.4001 9.68636C32.3829 9.68636 32.3656 9.67773 32.357 9.67773C32.3311 9.67773 32.3052 9.67773 32.2794 9.67773C32.2707 9.67773 32.2707 9.67773 32.2621 9.67773H28.3106C27.8015 9.67773 27.396 10.0832 27.396 10.5923C27.396 11.1013 27.8015 11.5068 28.3106 11.5068H30.0534L22.461 19.0993L20.468 17.1062C20.2954 16.9337 20.0625 16.8388 19.8209 16.8388C19.5793 16.8388 19.3463 16.9337 19.1738 17.1062L12.5735 23.7065L10.6064 21.7393C10.2527 21.3856 9.67461 21.3856 9.31225 21.7393L5.97331 25.0783C5.61957 25.432 5.61957 26.0101 5.97331 26.3724C6.15449 26.5536 6.38744 26.6399 6.62039 26.6399C6.85334 26.6399 7.08629 26.5536 7.26747 26.3724L9.95933 23.6806L11.9265 25.6477C12.2802 26.0015 12.8583 26.0015 13.2206 25.6477L19.8209 19.0475L21.8139 21.0405C21.9864 21.2131 22.2194 21.308 22.461 21.308C22.7025 21.308 22.9355 21.2131 23.108 21.0405L31.3475 12.801V14.5438C31.3475 15.0528 31.753 15.4583 32.2621 15.4583C32.7711 15.4583 33.1766 15.0528 33.1766 14.5438V10.5923C33.1853 10.5578 33.1766 10.5233 33.1766 10.4974Z" fill="#14CAF4"/>
<path d="M7.55176 10.5837C7.55176 11.0928 7.14626 11.4983 6.63722 11.4983C6.12819 11.4983 5.72266 11.0928 5.72266 10.5837C5.72266 10.0747 6.12819 9.66919 6.63722 9.66919C7.14626 9.67782 7.55176 10.0833 7.55176 10.5837Z" fill="#131217"/>
<path d="M7.55176 14.311C7.55176 14.8201 7.14626 15.2256 6.63722 15.2256C6.12819 15.2256 5.72266 14.8201 5.72266 14.311C5.72266 13.8106 6.12819 13.3965 6.63722 13.3965C7.14626 13.3965 7.55176 13.8106 7.55176 14.311Z" fill="#131217"/>
<path d="M7.55176 18.0378C7.55176 18.5469 7.14626 18.9524 6.63722 18.9524C6.12819 18.9524 5.72266 18.5469 5.72266 18.0378C5.72266 17.5374 6.12819 17.1233 6.63722 17.1233C7.14626 17.1233 7.55176 17.5374 7.55176 18.0378Z" fill="#131217"/>
</svg>
