<svg width="34" height="34" viewBox="0 0 34 34" fill="none" xmlns="http://www.w3.org/2000/svg">
<path opacity="0.4" d="M22.7968 3.22534H11.2891C6.29048 3.22534 3.31055 6.20527 3.31055 11.2039V22.6979C3.31055 27.7102 6.29048 30.6901 11.2891 30.6901H22.7831C27.7817 30.6901 30.7616 27.7102 30.7616 22.7116V11.2039C30.7753 6.20527 27.7954 3.22534 22.7968 3.22534Z" fill="white"/>
<path d="M10.0124 26.4331C9.44932 26.4331 8.98242 25.9662 8.98242 25.4032V22.5606C8.98242 21.9975 9.44932 21.5306 10.0124 21.5306C10.5754 21.5306 11.0423 21.9975 11.0423 22.5606V25.4032C11.0423 25.9799 10.5754 26.4331 10.0124 26.4331Z" fill="#E8FBFF"/>
<path d="M17.0436 26.4331C16.4806 26.4331 16.0137 25.9662 16.0137 25.4031V19.7042C16.0137 19.1412 16.4806 18.6743 17.0436 18.6743C17.6066 18.6743 18.0735 19.1412 18.0735 19.7042V25.4031C18.0735 25.9799 17.6066 26.4331 17.0436 26.4331Z" fill="#E8FBFF"/>
<path d="M24.0749 26.4331C23.5118 26.4331 23.0449 25.9662 23.0449 25.4031V16.8616C23.0449 16.2986 23.5118 15.8317 24.0749 15.8317C24.6379 15.8317 25.1048 16.2986 25.1048 16.8616V25.4031C25.1048 25.9799 24.6516 26.4331 24.0749 26.4331Z" fill="#E8FBFF"/>
<path d="M25.1032 8.47109C25.1032 8.40243 25.0757 8.32004 25.062 8.25137C25.0482 8.19645 25.0345 8.12778 25.0208 8.07285C24.9933 8.01792 24.9521 7.97673 24.9246 7.9218C24.8834 7.86687 24.8422 7.79821 24.7873 7.75701C24.7736 7.74328 24.7736 7.72954 24.7599 7.72954C24.7187 7.70208 24.6775 7.68835 24.6363 7.66088C24.5813 7.61968 24.5127 7.57849 24.444 7.55102C24.3753 7.52356 24.3067 7.52356 24.238 7.50983C24.1831 7.49609 24.1419 7.48236 24.087 7.48236H20.0634C19.5003 7.48236 19.0334 7.94926 19.0334 8.51229C19.0334 9.07532 19.5003 9.54222 20.0634 9.54222H21.7799C18.5116 12.9753 14.3919 15.3922 9.76408 16.5595C9.21478 16.6968 8.87147 17.2598 9.0088 17.8091C9.11866 18.276 9.54436 18.5919 10.0113 18.5919C10.0937 18.5919 10.176 18.5781 10.2584 18.5644C15.1609 17.3422 19.5415 14.8017 23.0433 11.2038V12.5359C23.0433 13.0989 23.5102 13.5658 24.0732 13.5658C24.6363 13.5658 25.1032 13.0989 25.1032 12.5359V8.51229C25.1032 8.49856 25.1032 8.48483 25.1032 8.47109Z" fill="#E8FBFF"/>
</svg>
