<svg width="28" height="28" viewBox="0 0 28 28" fill="none" xmlns="http://www.w3.org/2000/svg">
<path d="M25.0834 9.76492V18.4566C25.0834 18.6316 25.025 18.8066 24.8734 18.9583C23.1817 20.6616 20.1717 23.6949 18.445 25.4333C18.2934 25.5966 18.095 25.6666 17.8967 25.6666H8.59835C5.46002 25.6666 2.91669 23.1233 2.91669 19.9849V9.76492C2.91669 6.62659 5.46002 4.08325 8.59835 4.08325H19.4017C22.54 4.08325 25.0834 6.62659 25.0834 9.76492Z" fill="#FF5000"/>
<path d="M9.67169 7.33825C9.18169 7.33825 8.79669 6.94159 8.79669 6.46325V3.20825C8.79669 2.72992 9.18169 2.33325 9.67169 2.33325C10.1617 2.33325 10.5467 2.72992 10.5467 3.20825V6.45159C10.5467 6.94159 10.1617 7.33825 9.67169 7.33825Z" fill="#131217"/>
<path d="M18.3283 7.33825C17.8383 7.33825 17.4533 6.94159 17.4533 6.46325V3.20825C17.4533 2.71825 17.85 2.33325 18.3283 2.33325C18.8183 2.33325 19.2033 2.72992 19.2033 3.20825V6.45159C19.2033 6.94159 18.8183 7.33825 18.3283 7.33825Z" fill="#131217"/>
<path d="M17.2433 14.8284H8.58667C8.09667 14.8284 7.71167 14.4317 7.71167 13.9534C7.71167 13.475 8.10834 13.0784 8.58667 13.0784H17.2433C17.7333 13.0784 18.1183 13.475 18.1183 13.9534C18.1183 14.4317 17.7333 14.8284 17.2433 14.8284Z" fill="#131217"/>
<path d="M14 19.1567H8.58667C8.09667 19.1567 7.71167 18.7601 7.71167 18.2817C7.71167 17.7917 8.10834 17.4067 8.58667 17.4067H14C14.49 17.4067 14.875 17.8034 14.875 18.2817C14.875 18.7601 14.49 19.1567 14 19.1567Z" fill="#131217"/>
<path d="M25.0833 18.4566C25.0833 18.6316 25.025 18.8066 24.8733 18.9583C23.1816 20.6616 20.1716 23.695 18.445 25.4333C18.2933 25.5966 18.095 25.6666 17.8966 25.6666C17.5116 25.6666 17.1383 25.3633 17.1383 24.92V20.8366C17.1383 19.1333 18.585 17.7216 20.3583 17.7216C21.4666 17.71 23.0066 17.71 24.325 17.71C24.78 17.71 25.0833 18.0716 25.0833 18.4566Z" fill="#131217"/>
</svg>
