<svg width="29" height="29" viewBox="0 0 29 29" fill="none" xmlns="http://www.w3.org/2000/svg">
<g clip-path="url(#clip0_2163_1615)">
<path d="M22.0474 19.1841C21.1 18.2487 19.9172 18.2487 18.9758 19.1841C18.2577 19.8962 17.5395 20.6083 16.8335 21.3324C16.6404 21.5316 16.4774 21.5738 16.2421 21.441C15.7774 21.1876 15.2826 20.9824 14.836 20.7048C12.7541 19.3953 11.0101 17.7116 9.46521 15.8168C8.69881 14.8754 8.0169 13.8676 7.54016 12.7331C7.44361 12.5038 7.46171 12.3529 7.64878 12.1658C8.3669 11.4718 9.06692 10.7598 9.77297 10.0477C10.7566 9.05799 10.7566 7.89934 9.76694 6.90363C9.20572 6.33637 8.6445 5.78119 8.08328 5.21393C7.50395 4.63461 6.93066 4.04925 6.3453 3.47596C5.39787 2.55266 4.21508 2.55266 3.27368 3.482C2.54952 4.19408 1.85554 4.92427 1.11932 5.62429C0.437406 6.26999 0.0934319 7.06053 0.0210163 7.98383C-0.0936416 9.48645 0.274471 10.9046 0.793449 12.2865C1.85554 15.1469 3.47282 17.6875 5.43408 20.0169C8.08328 23.1669 11.2454 25.6592 14.9446 27.4576C16.6102 28.2662 18.3361 28.8878 20.2129 28.9904C21.5043 29.0628 22.6267 28.7369 23.5259 27.7291C24.1414 27.0412 24.8354 26.4136 25.4871 25.7558C26.4527 24.7782 26.4587 23.5954 25.4992 22.6299C24.3526 21.4773 23.2 20.3307 22.0474 19.1841Z" fill="#2029BD"/>
<path d="M20.8931 14.3745L23.1199 13.9943C22.7699 11.9485 21.8043 10.0959 20.3379 8.62345C18.787 7.07255 16.8258 6.09494 14.6654 5.79321L14.3516 8.03206C16.0232 8.26741 17.5439 9.02174 18.7448 10.2226C19.8793 11.3571 20.6215 12.7934 20.8931 14.3745Z" fill="#2029BD"/>
<path d="M24.3763 4.69494C21.8055 2.12419 18.5528 0.500874 14.9622 0L14.6484 2.23885C17.7502 2.67334 20.5624 4.07941 22.7831 6.29412C24.8892 8.4002 26.2711 11.0615 26.772 13.9883L28.9988 13.6081C28.4134 10.2166 26.8142 7.13896 24.3763 4.69494Z" fill="#2029BD"/>
</g>
<defs>
<clipPath id="clip0_2163_1615">
<rect width="29" height="29" fill="white"/>
</clipPath>
</defs>
</svg>
